<svg width="641" height="193" viewBox="0 0 641 193" fill="none" xmlns="http://www.w3.org/2000/svg">
<path d="M269.126 81.9255C269.126 76.6801 274.767 72.6493 283.216 72.6493C295.643 72.6493 310.197 77.8948 319.136 84.7691L328.538 60.502C317.01 51.2258 300.821 47.1951 284.633 47.1951C257.407 47.1951 238.138 64.091 238.384 85.9563C238.847 128.997 300.821 115.69 301.067 133.524C301.067 138.991 294.499 143.049 284.169 143.049C270.079 143.049 255.989 138.77 245.197 130.681L235.331 153.982C249.176 163.976 267.245 168.724 286.977 168.724C313.739 168.724 332.517 153.043 332.517 131.399C331.809 89.5453 269.371 98.8214 269.153 81.9255H269.126Z" fill="white"/>
<path d="M381.411 49.5689H348.325V166.322H381.411V49.5689Z" fill="white"/>
<path d="M607.914 49.5693V66.2168C599.929 54.097 587.501 47.1951 571.286 47.1951C541.47 47.1951 517.76 74.3058 517.76 107.822C517.76 141.337 541.47 168.697 571.286 168.697C587.474 168.697 599.929 161.795 607.914 149.675V166.322H641V49.5693H607.914ZM579.053 137.086C563.082 137.086 550.191 124.276 550.191 107.849C550.191 91.4226 563.109 78.6126 579.053 78.6126C594.996 78.6126 607.914 91.4226 607.914 107.849C607.914 124.276 595.241 137.086 579.053 137.086Z" fill="white"/>
<path d="M518.385 49.5689H477.75L445.509 91.2013H437.851V49.5689H404.765V166.322H437.851V120.659H445.373L479.631 166.322H522.119L473.008 105.916L518.385 49.5689Z" fill="white"/>
<path d="M0 40.1909C0 30.164 8.0841 22.0356 18.0563 22.0356H151.167C161.14 22.0356 169.224 30.164 169.224 40.1909V174.845C169.224 184.872 161.14 193 151.167 193H18.0563C8.0841 193 0 184.872 0 174.845V40.1909Z" fill="#84EF84"/>
<path fill-rule="evenodd" clip-rule="evenodd" d="M64.1681 118.026L164.07 0L188.476 21.8432L73.2923 157.924C58.9384 174.882 31.8117 164.444 31.8117 141.962V62.1538H64.1681V118.026Z" fill="black"/>
</svg>
