<svg width="19" height="19" viewBox="0 0 19 19" fill="none" xmlns="http://www.w3.org/2000/svg">
<path fill-rule="evenodd" clip-rule="evenodd" d="M9.5 19C14.7467 19 19 14.7467 19 9.5C19 4.2533 14.7467 0 9.5 0C4.2533 0 0 4.2533 0 9.5C0 14.7467 4.2533 19 9.5 19ZM10.6074 4.99384C10.3416 4.992 9.99402 4.99139 9.5 4.99139C8.03149 4.99139 7.85779 4.99689 7.27759 5.02301C5.78564 5.09082 5.09131 5.79852 5.02295 7.27753C5.0072 7.62714 4.99878 7.82916 4.99463 8.25568C4.99194 8.53711 4.99097 8.91626 4.99097 9.5C4.99097 10.9689 4.99646 11.1426 5.02295 11.7225C5.09082 13.1987 5.78333 13.9092 7.27759 13.9775C7.67444 13.9957 7.88135 14.004 8.4436 14.0074C8.70251 14.009 9.03687 14.0095 9.5 14.0095C10.9694 14.0095 11.1427 14.004 11.7229 13.9775C13.2148 13.9096 13.9092 13.201 13.9774 11.7229C14.0035 11.1431 14.009 10.9694 14.009 9.50049C14.009 8.03198 14.004 7.85779 13.9774 7.27802C13.9097 5.79852 13.2134 5.09131 11.7229 5.02344C11.3379 5.0058 11.1317 4.99744 10.6074 4.99384ZM7.23267 4.03302C7.81934 4.00641 8.00635 4 9.5 4C10.4304 4 10.854 4.00244 11.1831 4.01086C11.3823 4.01599 11.5469 4.02325 11.7683 4.03345C13.7676 4.12512 14.8772 5.23706 14.967 7.2326C14.9935 7.81927 15 8.00629 15 9.5C15 10.9937 14.9935 11.1812 14.9666 11.7678C14.8762 13.7671 13.7634 14.8753 11.7678 14.967C11.1812 14.9936 10.9937 15 9.5 15C8.00635 15 7.81934 14.9936 7.23218 14.967C5.23291 14.8753 4.12463 13.7653 4.03296 11.7678C4.00647 11.1812 4 10.9937 4 9.5C4 8.00629 4.00647 7.81927 4.03345 7.23218C4.12512 5.23291 5.23523 4.12469 7.23267 4.03302ZM6.67578 9.5C6.67578 7.94031 7.94031 6.67572 9.5 6.67572C11.0597 6.67572 12.3242 7.94031 12.3242 9.5C12.3242 11.0602 11.0597 12.3247 9.5 12.3247C7.94031 12.3247 6.67578 11.0597 6.67578 9.5ZM7.66663 9.5C7.66663 10.5129 8.48755 11.3333 9.5 11.3333C10.5125 11.3333 11.3334 10.5129 11.3334 9.5C11.3334 8.48755 10.5125 7.66669 9.5 7.66669C8.48755 7.66669 7.66663 8.48755 7.66663 9.5ZM11.7756 6.56439C11.7756 6.20001 12.0713 5.90436 12.436 5.90436C12.8004 5.90436 13.0956 6.20001 13.0956 6.56439C13.0956 6.92877 12.8004 7.22437 12.436 7.22437C12.0713 7.22437 11.7756 6.92877 11.7756 6.56439Z" fill="#84EF84"/>
</svg>
