<?xml version="1.0" encoding="utf-8"?>
<!-- Generator: Adobe Illustrator 27.1.1, SVG Export Plug-In . SVG Version: 6.00 Build 0)  -->
<svg version="1.1" id="Layer_1" xmlns="http://www.w3.org/2000/svg" xmlns:xlink="http://www.w3.org/1999/xlink" x="0px" y="0px"
	 viewBox="0 0 37 37" style="enable-background:new 0 0 37 37;" xml:space="preserve">
<style type="text/css">
	.st0{fill:#FFFFFF;}
</style>
<g id="Group_410" transform="translate(0 0.003)">
	<g>
		<g id="Group_409">
			<path id="Path_240" class="st0" d="M12.9,28.6H8.7V15.1h4.2L12.9,28.6z M10.8,13.2c-1.3,0-2.4-1.1-2.4-2.4c0,0,0,0,0,0
				c0-1.3,1.1-2.4,2.4-2.4s2.4,1.1,2.4,2.4C13.2,12.1,12.1,13.2,10.8,13.2C10.8,13.2,10.8,13.2,10.8,13.2 M24.5,28.6V22
				c0-1.6,0-3.6-2.2-3.6s-2.5,1.7-2.5,3.5v6.7h-4.2V15.1h4v1.8h0c0.8-1.4,2.3-2.3,4-2.2c4.3,0,5,2.8,5,6.4l0,7.4L24.5,28.6"/>
		</g>
	</g>
</g>
</svg>
