<svg width="94" height="93" viewBox="0 0 94 93" fill="none" xmlns="http://www.w3.org/2000/svg">
<g clip-path="url(#clip0_910_45)">
<path d="M90.87 56.5C91.6 53.28 92 49.94 92 46.5C92 43.06 91.6 39.72 90.87 36.5H84.7C83.8 33.1 82.45 29.89 80.72 26.92L85.09 22.55C81.49 16.84 76.65 12 70.95 8.41L66.58 12.78C63.61 11.05 60.4 9.7 57 8.8V2.63C53.78 1.9 50.44 1.5 47 1.5C43.56 1.5 40.22 1.9 37 2.63V8.8C33.6 9.7 30.39 11.05 27.42 12.78L23.05 8.41C17.34 12.01 12.5 16.85 8.91 22.55L13.28 26.92C11.55 29.89 10.2 33.1 9.3 36.5H3.13C2.4 39.72 2 43.06 2 46.5C2 49.94 2.4 53.28 3.13 56.5H9.3C10.2 59.9 11.55 63.11 13.28 66.08L8.91 70.45C12.51 76.16 17.35 81 23.05 84.59L27.42 80.22C30.39 81.95 33.6 83.3 37 84.2V90.37C40.22 91.1 43.56 91.5 47 91.5C50.44 91.5 53.78 91.1 57 90.37V84.2C60.4 83.3 63.61 81.95 66.58 80.22L70.95 84.59C76.66 80.99 81.5 76.15 85.09 70.45L80.72 66.08C82.45 63.11 83.8 59.9 84.7 56.5H90.87Z" stroke="#5AA52A" stroke-width="3"/>
<path d="M47 70.5C60.2548 70.5 71 59.7548 71 46.5C71 33.2452 60.2548 22.5 47 22.5C33.7452 22.5 23 33.2452 23 46.5C23 59.7548 33.7452 70.5 47 70.5Z" stroke="#5AA52A" stroke-width="3"/>
<path d="M33.22 46.5H57.23" stroke="#5AA52A" stroke-width="3"/>
<path d="M49.5699 37.8101L58.2599 46.5001L49.5699 55.1901" stroke="#5AA52A" stroke-width="3"/>
</g>
<defs>
<clipPath id="clip0_910_45">
<rect width="93" height="93" fill="white" transform="translate(0.5)"/>
</clipPath>
</defs>
</svg>
