<?xml version="1.0" encoding="utf-8"?>
<!-- Generator: Adobe Illustrator 27.7.0, SVG Export Plug-In . SVG Version: 6.00 Build 0)  -->
<svg version="1.1" id="Layer_1" xmlns="http://www.w3.org/2000/svg" xmlns:xlink="http://www.w3.org/1999/xlink" x="0px" y="0px"
	 viewBox="0 0 19 20" style="enable-background:new 0 0 19 20;" xml:space="preserve">
<style type="text/css">
	.st0{fill-rule:evenodd;clip-rule:evenodd;fill:#000000;}
</style>
<path class="st0" d="M9.5,0.5C4.3,0.5,0,4.8,0,10c0,5.2,4.3,9.5,9.5,9.5c5.2,0,9.5-4.3,9.5-9.5C19,4.8,14.7,0.5,9.5,0.5z M6.2,15.4
	c-0.7,0-1.4,0-2.1,0c-0.1,0-0.2,0-0.2-0.2c0-2.3,0-4.6,0-7c0-0.1,0-0.2,0.2-0.2c0.7,0,1.4,0,2.1,0c0.1,0,0.2,0.1,0.2,0.2
	c0,1.2,0,2.3,0,3.5c0,1.2,0,2.3,0,3.5C6.4,15.4,6.3,15.4,6.2,15.4z M6.5,6.2c-0.2,0.7-0.8,1-1.6,0.9C4,7,3.6,6.2,3.9,5.4
	c0.2-0.5,0.7-0.8,1.3-0.8C6.1,4.6,6.7,5.3,6.5,6.2z M14.9,15.4c-0.7,0-1.4,0-2.1,0c-0.2,0-0.2,0-0.2-0.2c0-1.2,0-2.4,0-3.7
	c0-0.3,0-0.6-0.1-0.8c-0.3-0.9-1.2-1.2-1.9-0.6c-0.4,0.3-0.5,0.7-0.5,1.2c0,1.2,0,2.3,0,3.5c0,0.2,0,0.3,0,0.5c0,0.1,0,0.2-0.2,0.2
	c-0.7,0-1.4,0-2.1,0c-0.1,0-0.2,0-0.2-0.2c0-1,0-2.1,0-3.1c0-1.3,0-2.6,0-3.8c0-0.1,0-0.2,0.2-0.2c0.7,0,1.4,0,2.1,0
	c0.1,0,0.2,0,0.2,0.2c0,0.3,0,0.5,0,0.8C10.2,9,10.2,9,10.2,9c0.6-0.9,1.6-1.2,2.6-1c1.2,0.2,2,1,2.2,2.4c0,0.3,0.1,0.6,0.1,0.9
	c0,1.3,0,2.6,0,3.9C15.1,15.4,15.1,15.4,14.9,15.4z"/>
</svg>
