<svg width="94" height="92" viewBox="0 0 94 92" fill="none" xmlns="http://www.w3.org/2000/svg">
<rect x="2.33325" y="2" width="90" height="70" rx="5" stroke="#5AA52A" stroke-width="3"/>
<line x1="23.5833" y1="90.5" x2="71.0833" y2="90.5" stroke="#5AA52A" stroke-width="3"/>
<line x1="43.8333" y1="72" x2="43.8333" y2="90.6875" stroke="#5AA52A" stroke-width="3"/>
<line x1="53.8333" y1="72" x2="53.8333" y2="90.6875" stroke="#5AA52A" stroke-width="3"/>
<path d="M45.4866 18.1899C46.1698 16.5473 48.4967 16.5473 49.1799 18.1899L53.1461 27.7257C53.4341 28.4182 54.0853 28.8913 54.8329 28.9513L65.1276 29.7766C66.901 29.9187 67.62 32.1318 66.2689 33.2891L58.4254 40.0079C57.8558 40.4958 57.6071 41.2614 57.7811 41.9909L60.1774 52.0368C60.5902 53.7673 58.7077 55.135 57.1895 54.2077L48.3758 48.8243C47.7357 48.4333 46.9308 48.4333 46.2907 48.8243L37.477 54.2077C35.9588 55.135 34.0763 53.7673 34.4891 52.0368L36.8854 41.9909C37.0594 41.2614 36.8107 40.4958 36.2411 40.0079L28.3976 33.2891C27.0465 32.1318 27.7655 29.9187 29.5389 29.7766L39.8336 28.9513C40.5812 28.8913 41.2324 28.4182 41.5204 27.7257L45.4866 18.1899Z" stroke="#5AA52A" stroke-width="3"/>
</svg>
