<svg width="299" height="173" viewBox="0 0 299 173" fill="none" xmlns="http://www.w3.org/2000/svg">
<path fill-rule="evenodd" clip-rule="evenodd" d="M210.133 0L0 121.5L0.00392062 161.508L0.0039196 172.06L298.021 0H210.133Z" fill="black"/>
<path d="M203.959 37.0085L196.999 24.9534L199.719 23.3834L206.679 35.4385L203.959 37.0085ZM194.442 29.3631L193.072 26.9902L203.447 21.0002L204.817 23.3731L194.442 29.3631Z" fill="#84EF84"/>
<path d="M187.445 46.5447L180.385 34.3164L183.104 32.7464L190.164 44.9747L187.445 46.5447ZM195.014 42.1747L187.954 29.9464L190.69 28.3664L197.75 40.5947L195.014 42.1747ZM186.123 40.4951L184.763 38.1395L191.604 34.1895L192.964 36.5451L186.123 40.4951Z" fill="#84EF84"/>
<path d="M178.857 51.7553C177.968 52.2686 177.037 52.5903 176.066 52.7203C175.105 52.8436 174.173 52.7891 173.269 52.5566C172.358 52.3126 171.516 51.9062 170.741 51.3374C169.971 50.7505 169.329 50.0124 168.816 49.1233C168.302 48.2342 167.993 47.3119 167.888 46.3564C167.783 45.401 167.862 44.4704 168.124 43.5646C168.391 42.6406 168.833 41.7927 169.45 41.0209C170.06 40.2376 170.821 39.5826 171.733 39.0559C172.784 38.4493 173.846 38.0898 174.921 37.9775C176.007 37.8586 177.026 37.9706 177.979 38.3137L177.195 41.237C176.509 40.9556 175.827 40.8412 175.15 40.8938C174.472 40.9465 173.798 41.1661 173.128 41.5528C172.412 41.9661 171.865 42.4978 171.486 43.1477C171.1 43.7862 170.912 44.4874 170.922 45.2514C170.937 45.9972 171.164 46.7512 171.604 47.5133C172.044 48.2754 172.587 48.8551 173.232 49.2525C173.877 49.6498 174.564 49.8535 175.294 49.8635C176.023 49.8734 176.74 49.6751 177.444 49.2684C178.16 48.8551 178.69 48.3723 179.033 47.8201C179.381 47.2496 179.541 46.6337 179.514 45.9723C179.491 45.2927 179.266 44.5833 178.839 43.8443L181.341 44.0168L175.835 47.0802L174.505 44.7765L180.93 41.0665L181.16 41.4649C182.007 42.9314 182.455 44.3202 182.504 45.6315C182.557 46.9245 182.263 48.0951 181.621 49.1432C180.991 50.1846 180.069 51.0553 178.857 51.7553Z" fill="#84EF84"/>
<path d="M167.039 58.3259L159.979 46.0977L162.698 44.5277L169.758 56.7559L167.039 58.3259Z" fill="#84EF84"/>
<path d="M156.464 64.4314L149.404 52.2031L152.123 50.6331L159.183 62.8614L156.464 64.4314ZM158.56 63.2214L157.18 60.8312L163.225 57.3412L164.605 59.7314L158.56 63.2214Z" fill="#84EF84"/>
<path d="M147.532 69.5866L140.572 57.5316L143.292 55.9616L150.252 68.0166L147.532 69.5866ZM138.015 61.9413L136.645 59.5684L147.02 53.5784L148.39 55.9513L138.015 61.9413Z" fill="#84EF84"/>
<path d="M136.315 76.3398C135.391 76.8731 134.444 77.2048 133.472 77.3348C132.511 77.4581 131.57 77.4011 130.648 77.1638C129.726 76.9264 128.883 76.52 128.12 75.9446C127.35 75.3576 126.708 74.6196 126.195 73.7304C125.675 72.8298 125.356 71.9051 125.24 70.9563C125.123 70.0075 125.19 69.0836 125.441 68.1844C125.685 67.2737 126.104 66.4392 126.697 65.6808C127.296 64.9041 128.057 64.2491 128.981 63.7158C129.893 63.1891 130.829 62.8641 131.789 62.7408C132.755 62.5992 133.693 62.6504 134.603 62.8944C135.519 63.1202 136.362 63.5266 137.132 64.1136C137.895 64.6891 138.537 65.4271 139.057 66.3278C139.57 67.2169 139.888 68.1416 140.012 69.1019C140.128 70.0507 140.065 70.9804 139.821 71.8911C139.57 72.7902 139.145 73.6281 138.547 74.4048C137.96 75.1748 137.216 75.8198 136.315 76.3398ZM134.851 73.8829C135.578 73.4629 136.12 72.9346 136.476 72.2979C136.843 71.6546 137.011 70.9576 136.978 70.2069C136.938 69.4447 136.698 68.6825 136.258 67.9204C135.925 67.3431 135.538 66.8735 135.098 66.5116C134.652 66.1382 134.17 65.8774 133.653 65.7292C133.13 65.5694 132.593 65.5329 132.043 65.6197C131.497 65.6883 130.953 65.8793 130.411 66.1926C129.683 66.6126 129.136 67.1443 128.768 67.7876C128.405 68.4127 128.241 69.1006 128.274 69.8513C128.3 70.5904 128.537 71.3468 128.983 72.1204C129.317 72.6978 129.707 73.1732 130.153 73.5466C130.6 73.92 131.079 74.19 131.591 74.3564C132.107 74.5046 132.644 74.541 133.201 74.4658C133.758 74.3905 134.308 74.1963 134.851 73.8829Z" fill="#84EF84"/>
<path d="M118.124 80.6316L116.904 78.5185L119.537 76.9985C119.872 76.8052 120.138 76.5592 120.335 76.2606C120.532 75.9621 120.635 75.6333 120.643 75.2744C120.652 74.9155 120.546 74.5455 120.326 74.1645C120.112 73.795 119.848 73.5241 119.533 73.3519C119.218 73.1796 118.882 73.1042 118.525 73.1256C118.168 73.1471 117.822 73.2545 117.487 73.4478L114.854 74.9678L113.634 72.8547L116.665 71.1047C117.439 70.658 118.228 70.4106 119.031 70.3623C119.835 70.3141 120.586 70.4811 121.283 70.8633C121.986 71.2274 122.568 71.8077 123.028 72.6045C123.488 73.4012 123.703 74.2007 123.673 75.0029C123.649 75.787 123.418 76.5206 122.981 77.2039C122.538 77.8757 121.929 78.4349 121.155 78.8816L118.124 80.6316ZM118.616 86.283L111.556 74.0547L114.275 72.4847L121.335 84.713L118.616 86.283Z" fill="#84EF84"/>
<path d="M111.434 90.6822C110.429 91.2622 109.47 91.6006 108.556 91.6972C107.647 91.7757 106.698 91.6534 105.711 91.3304L106.468 88.561C107.121 88.7847 107.757 88.8868 108.377 88.8675C109.002 88.83 109.632 88.6279 110.267 88.2613C110.844 87.9279 111.229 87.5673 111.421 87.1795C111.624 86.785 111.619 86.403 111.406 86.0335C111.212 85.6986 110.952 85.4873 110.624 85.3994C110.296 85.3116 109.916 85.2926 109.483 85.3425C109.061 85.3857 108.602 85.458 108.107 85.5595C107.623 85.6542 107.128 85.7317 106.624 85.7918C106.114 85.8404 105.608 85.8319 105.109 85.7663C104.614 85.6825 104.146 85.4985 103.704 85.2144C103.257 84.9187 102.853 84.4591 102.493 83.8356C102.059 83.085 101.865 82.335 101.91 81.5857C101.966 80.8296 102.237 80.1264 102.724 79.4759C103.204 78.8139 103.865 78.2396 104.708 77.7529C105.563 77.2596 106.429 76.9597 107.306 76.8532C108.196 76.7401 109.021 76.81 109.783 77.063L109.026 79.8323C108.437 79.6646 107.898 79.5984 107.411 79.6336C106.934 79.6622 106.46 79.8132 105.986 80.0865C105.513 80.3599 105.191 80.6689 105.02 81.0136C104.843 81.3469 104.851 81.6809 105.045 82.0157C105.225 82.3275 105.475 82.5216 105.796 82.5978C106.111 82.6626 106.476 82.6676 106.891 82.6128C107.317 82.5514 107.772 82.4733 108.256 82.3785C108.752 82.2771 109.255 82.2021 109.766 82.1535C110.277 82.1049 110.783 82.1283 111.285 82.2236C111.791 82.3008 112.275 82.4987 112.736 82.8175C113.191 83.1247 113.601 83.5959 113.968 84.231C114.641 85.3972 114.755 86.5552 114.311 87.705C113.859 88.8431 112.9 89.8356 111.434 90.6822Z" fill="#84EF84"/>
<path d="M91.3996 101.996L90.0196 99.6062L93.0507 97.8562C93.7897 97.4295 94.353 96.9118 94.7406 96.3032C95.1215 95.6829 95.2988 95.0033 95.2723 94.2641C95.2459 93.525 95.0093 92.7686 94.5627 91.9949C94.116 91.2213 93.5768 90.6473 92.945 90.2731C92.3248 89.8922 91.6509 89.7116 90.9233 89.7314C90.2073 89.7445 89.4797 89.9644 88.7407 90.391L85.623 92.191L84.253 89.8181L87.4054 87.9981C88.3291 87.4648 89.2645 87.1249 90.2115 86.9785C91.1633 86.8138 92.0879 86.8419 92.9853 87.0629C93.8875 87.2656 94.7112 87.6522 95.4563 88.2228C96.2063 88.7751 96.8413 89.5016 97.3613 90.4023C97.8746 91.2914 98.1863 92.2046 98.2963 93.1418C98.4179 94.0723 98.3466 94.9756 98.0826 95.8517C97.8186 96.7277 97.3807 97.5425 96.7688 98.2961C96.1685 99.043 95.4122 99.6797 94.5 100.206L91.3996 101.996ZM89.5637 103.056L82.5037 90.8281L85.223 89.2581L92.283 101.486L89.5637 103.056Z" fill="#84EF84"/>
<path d="M75.9101 110.939L68.8501 98.7109L70.7554 97.6109L72.9794 99.5831L78.6294 109.369L75.9101 110.939ZM84.3452 106.069L71.8099 100.997L70.7554 97.6109L83.2907 102.683L84.3452 106.069ZM84.3452 106.069L82.2077 104.047L76.5577 94.2609L79.277 92.6909L86.337 104.919L84.3452 106.069Z" fill="#84EF84"/>
<path d="M61.6433 119.176L59.433 104.147L61.8925 102.727L73.7503 112.186L70.8751 113.846L61.3431 105.816L62.3304 105.246L64.4665 117.546L61.6433 119.176ZM63.1172 115.369L61.8372 113.151L68.5056 109.301L69.7856 111.519L63.1172 115.369Z" fill="#84EF84"/>
<path d="M50.1906 119.068L49.0306 117.059L51.6114 115.569C52.1541 115.256 52.4898 114.877 52.6185 114.433C52.7587 113.983 52.6921 113.521 52.4188 113.047C52.1655 112.609 51.8111 112.328 51.3558 112.206C50.9004 112.084 50.4014 112.18 49.8587 112.493L47.2606 113.993L46.0406 111.88L48.9505 110.2C49.7588 109.733 50.5589 109.479 51.3509 109.438C52.1362 109.385 52.8587 109.529 53.5185 109.872C54.1782 110.215 54.7114 110.738 55.1181 111.443C55.5314 112.159 55.7216 112.888 55.6885 113.631C55.6487 114.362 55.4038 115.058 54.9536 115.718C54.5034 116.378 53.8568 116.951 53.0139 117.438L50.1906 119.068ZM51.0222 125.308L43.9622 113.08L46.6815 111.51L53.7415 123.738L51.0222 125.308ZM57.6732 121.468L50.8227 118.403L52.9269 116.287L60.8948 119.608L57.6732 121.468Z" fill="#84EF84"/>
<path d="M41.1385 131.015L39.9185 128.902L42.7937 127.242C43.3248 126.935 43.6505 126.539 43.7707 126.054C43.891 125.569 43.8211 125.101 43.5611 124.651C43.3811 124.339 43.1518 124.102 42.8732 123.939C42.5947 123.777 42.2884 123.7 41.9543 123.708C41.6318 123.709 41.2916 123.813 40.9337 124.02L38.0585 125.68L36.8685 123.619L39.5185 122.089C39.9688 121.829 40.2692 121.509 40.4197 121.13C40.5635 120.739 40.502 120.312 40.2354 119.85C39.9754 119.4 39.6435 119.145 39.2397 119.086C38.8292 119.015 38.3988 119.109 37.9485 119.369L35.2985 120.899L34.0785 118.786L37.2481 116.956C38.0333 116.503 38.7806 116.264 39.49 116.239C40.2109 116.208 40.8557 116.352 41.4244 116.67C41.993 116.988 42.4474 117.442 42.7874 118.031C43.2207 118.781 43.3449 119.556 43.1599 120.356C42.9749 121.155 42.4657 121.927 41.6322 122.67L41.1715 121.712C42.3125 121.315 43.3334 121.256 44.2344 121.537C45.1468 121.811 45.8564 122.386 46.3631 123.264C46.7497 123.934 46.9323 124.637 46.9108 125.373C46.8941 126.09 46.664 126.785 46.2205 127.457C45.7885 128.122 45.1395 128.705 44.2735 129.205L41.1385 131.015ZM39.06 132.215L32 119.986L34.6847 118.436L41.7447 130.665L39.06 132.215Z" fill="#84EF84"/>
</svg>
