<?xml version="1.0" encoding="utf-8"?>
<!-- Generator: Adobe Illustrator 27.7.0, SVG Export Plug-In . SVG Version: 6.00 Build 0)  -->
<svg version="1.1" id="Layer_1" xmlns="http://www.w3.org/2000/svg" xmlns:xlink="http://www.w3.org/1999/xlink" x="0px" y="0px"
	 viewBox="0 0 100 100" style="enable-background:new 0 0 100 100;" xml:space="preserve">
<style type="text/css">
	.st0{fill:none;stroke:#015844;stroke-width:2;stroke-linecap:round;stroke-linejoin:round;stroke-miterlimit:10;}
	.st1{fill:#FFFFFF;stroke:#015844;stroke-width:2;stroke-linecap:round;stroke-linejoin:round;stroke-miterlimit:10;}
	.st2{fill:none;stroke:#015844;stroke-width:2;stroke-linecap:round;stroke-miterlimit:10;}
</style>
<path class="st0" d="M72,44.1c0.3,1.3,0.5,2.6,0.5,4C73,60.2,63.6,70.5,51.4,71C39.3,71.5,29,62.1,28.5,49.9
	C28,37.8,37.4,27.5,49.6,27c5.8-0.2,11.2,1.8,15.2,5.3"/>
<polygon class="st0" points="86.5,70.8 86.5,29.2 50.5,8.4 14.5,29.2 14.5,70.8 50.5,91.6 "/>
<circle class="st1" cx="50.5" cy="8" r="3"/>
<circle class="st1" cx="14.5" cy="29" r="3"/>
<circle class="st1" cx="14.5" cy="71" r="3"/>
<circle class="st1" cx="50.5" cy="91" r="3"/>
<circle class="st1" cx="86.5" cy="71" r="3"/>
<circle class="st1" cx="86.5" cy="29" r="3"/>
<path class="st2" d="M41,47.5c0,0,10,10,9.5,9.5s23-23,23-23"/>
</svg>
