<svg width="291" height="196" viewBox="0 0 291 196" fill="none" xmlns="http://www.w3.org/2000/svg">
<rect width="291" height="195.773" transform="translate(0 0.166504)" fill="white"/>
<path d="M106.903 34.0265L101.463 25.1665H105.103L109.283 32.3265H106.943L111.123 25.1665H114.683L109.203 34.0265H106.903ZM106.523 39.2865V32.5865H109.663V39.2865H106.523Z" fill="black"/>
<path d="M117.861 39.5065C116.861 39.5065 115.955 39.2865 115.141 38.8465C114.341 38.3932 113.708 37.7798 113.241 37.0065C112.775 36.2332 112.541 35.3665 112.541 34.4065C112.541 33.4465 112.775 32.5865 113.241 31.8265C113.708 31.0665 114.341 30.4665 115.141 30.0265C115.941 29.5732 116.848 29.3465 117.861 29.3465C118.875 29.3465 119.781 29.5665 120.581 30.0065C121.381 30.4465 122.015 31.0532 122.481 31.8265C122.948 32.5865 123.181 33.4465 123.181 34.4065C123.181 35.3665 122.948 36.2332 122.481 37.0065C122.015 37.7798 121.381 38.3932 120.581 38.8465C119.781 39.2865 118.875 39.5065 117.861 39.5065ZM117.861 36.7265C118.301 36.7265 118.688 36.6332 119.021 36.4465C119.355 36.2465 119.608 35.9732 119.781 35.6265C119.968 35.2665 120.061 34.8598 120.061 34.4065C120.061 33.9532 119.968 33.5598 119.781 33.2265C119.595 32.8798 119.335 32.6132 119.001 32.4265C118.681 32.2265 118.301 32.1265 117.861 32.1265C117.435 32.1265 117.055 32.2265 116.721 32.4265C116.388 32.6132 116.128 32.8798 115.941 33.2265C115.755 33.5732 115.661 33.9732 115.661 34.4265C115.661 34.8665 115.755 35.2665 115.941 35.6265C116.128 35.9732 116.388 36.2465 116.721 36.4465C117.055 36.6332 117.435 36.7265 117.861 36.7265Z" fill="black"/>
<path d="M129.025 39.5065C128.132 39.5065 127.338 39.3265 126.645 38.9665C125.965 38.5932 125.432 38.0865 125.045 37.4465C124.658 36.7932 124.465 36.0465 124.465 35.2065V29.5665H127.525V35.1665C127.525 35.4998 127.578 35.7865 127.685 36.0265C127.805 36.2665 127.978 36.4532 128.205 36.5865C128.432 36.7198 128.705 36.7865 129.025 36.7865C129.478 36.7865 129.838 36.6465 130.105 36.3665C130.372 36.0732 130.505 35.6732 130.505 35.1665V29.5665H133.565V35.1865C133.565 36.0398 133.372 36.7932 132.985 37.4465C132.598 38.0865 132.065 38.5932 131.385 38.9665C130.705 39.3265 129.918 39.5065 129.025 39.5065Z" fill="black"/>
<path d="M135.486 39.2865V29.5665H138.546V39.2865H135.486ZM138.546 33.9465L137.266 32.9465C137.52 31.8132 137.946 30.9332 138.546 30.3065C139.146 29.6798 139.98 29.3665 141.046 29.3665C141.513 29.3665 141.92 29.4398 142.266 29.5865C142.626 29.7198 142.94 29.9332 143.206 30.2265L141.386 32.5265C141.253 32.3798 141.086 32.2665 140.886 32.1865C140.686 32.1065 140.46 32.0665 140.206 32.0665C139.7 32.0665 139.293 32.2265 138.986 32.5465C138.693 32.8532 138.546 33.3198 138.546 33.9465Z" fill="black"/>
<path d="M148.461 39.2865V25.1665H151.601V39.2865H148.461ZM150.881 39.2865V36.5265H157.861V39.2865H150.881Z" fill="black"/>
<path d="M159.672 39.2865V25.1665H161.912L167.472 33.8265H166.332L171.872 25.1665H174.132V39.2865H170.992V30.4665L171.552 30.6065L167.932 36.2465H165.852L162.252 30.6065L162.792 30.4665V39.2865H159.672Z" fill="black"/>
<path d="M176.84 39.2865V25.1665H179.04L179.98 27.9865V39.2865H176.84ZM186.58 39.2865L178.26 28.6265L179.04 25.1665L187.36 35.8265L186.58 39.2865ZM186.58 39.2865L185.74 36.4665V25.1665H188.88V39.2865H186.58Z" fill="black"/>
<path d="M51.3524 69.2865L48.3257 60.0332H49.579L51.979 67.5798H51.619L53.979 60.0332H54.8857L57.2457 67.5798H56.899L59.299 60.0332H60.539L57.5257 69.2865H56.6324L54.259 61.7532H54.6057L52.2457 69.2865H51.3524Z" fill="black"/>
<path d="M66.345 69.2865V65.5932C66.345 65.1132 66.1938 64.7176 65.8916 64.4065C65.5894 64.0954 65.1983 63.9398 64.7183 63.9398C64.3983 63.9398 64.1138 64.0109 63.865 64.1532C63.6161 64.2954 63.4205 64.4909 63.2783 64.7398C63.1361 64.9887 63.065 65.2732 63.065 65.5932L62.5716 65.3132C62.5716 64.8332 62.6783 64.4065 62.8916 64.0332C63.105 63.6598 63.4027 63.3665 63.785 63.1532C64.1672 62.9309 64.5983 62.8198 65.0783 62.8198C65.5583 62.8198 65.9805 62.9265 66.345 63.1398C66.7183 63.3532 67.0116 63.651 67.225 64.0332C67.4383 64.4154 67.545 64.8554 67.545 65.3532V69.2865H66.345ZM61.865 69.2865V59.7665H63.065V69.2865H61.865Z" fill="black"/>
<path d="M72.103 69.4198C71.4719 69.4198 70.903 69.2776 70.3963 68.9932C69.8896 68.6998 69.4896 68.3043 69.1963 67.8065C68.903 67.3087 68.7563 66.7443 68.7563 66.1132C68.7563 65.4909 68.8985 64.9309 69.183 64.4332C69.4763 63.9354 69.8674 63.5443 70.3563 63.2598C70.8541 62.9665 71.4096 62.8198 72.023 62.8198C72.6096 62.8198 73.1252 62.9532 73.5696 63.2198C74.023 63.4865 74.3741 63.8554 74.623 64.3265C74.8808 64.7976 75.0096 65.331 75.0096 65.9265C75.0096 66.0154 75.0052 66.1132 74.9963 66.2198C74.9874 66.3176 74.9696 66.4332 74.943 66.5665H69.5963V65.5665H74.303L73.863 65.9532C73.863 65.5265 73.7874 65.1665 73.6363 64.8732C73.4852 64.571 73.2719 64.3398 72.9963 64.1798C72.7208 64.0109 72.3874 63.9265 71.9963 63.9265C71.5874 63.9265 71.2274 64.0154 70.9163 64.1932C70.6052 64.371 70.3652 64.6198 70.1963 64.9398C70.0274 65.2598 69.943 65.6376 69.943 66.0732C69.943 66.5176 70.0319 66.9087 70.2096 67.2465C70.3874 67.5754 70.6408 67.8332 70.9696 68.0198C71.2985 68.1976 71.6763 68.2865 72.103 68.2865C72.4585 68.2865 72.783 68.2243 73.0763 68.0998C73.3785 67.9754 73.6363 67.7887 73.8496 67.5398L74.623 68.3265C74.3208 68.6821 73.9474 68.9532 73.503 69.1398C73.0674 69.3265 72.6008 69.4198 72.103 69.4198Z" fill="black"/>
<path d="M80.7981 69.2865V65.5932C80.7981 65.1132 80.647 64.7176 80.3447 64.4065C80.0425 64.0954 79.6514 63.9398 79.1714 63.9398C78.8514 63.9398 78.567 64.0109 78.3181 64.1532C78.0692 64.2954 77.8736 64.4909 77.7314 64.7398C77.5892 64.9887 77.5181 65.2732 77.5181 65.5932L77.0247 65.3132C77.0247 64.8332 77.1314 64.4065 77.3447 64.0332C77.5581 63.6598 77.8559 63.3665 78.2381 63.1532C78.6203 62.9309 79.0514 62.8198 79.5314 62.8198C80.0114 62.8198 80.4336 62.9398 80.7981 63.1798C81.1714 63.4198 81.4647 63.7354 81.6781 64.1265C81.8914 64.5087 81.9981 64.9176 81.9981 65.3532V69.2865H80.7981ZM76.3181 69.2865V62.9532H77.5181V69.2865H76.3181Z" fill="black"/>
<path d="M88.4762 69.3398L85.7295 62.9532H87.0629L89.1029 67.9532H88.6762L90.8229 62.9532H92.1562L89.1962 69.3398H88.4762ZM86.6629 71.9398L88.5295 68.1132L89.1962 69.3398L87.9962 71.9398H86.6629Z" fill="black"/>
<path d="M95.7869 69.4198C95.1647 69.4198 94.6047 69.2732 94.1069 68.9798C93.6092 68.6865 93.2136 68.2909 92.9203 67.7932C92.6269 67.2865 92.4803 66.7221 92.4803 66.0998C92.4803 65.4865 92.6269 64.9354 92.9203 64.4465C93.2136 63.9487 93.6092 63.5532 94.1069 63.2598C94.6047 62.9665 95.1647 62.8198 95.7869 62.8198C96.4003 62.8198 96.9558 62.9665 97.4536 63.2598C97.9603 63.5443 98.3603 63.9354 98.6536 64.4332C98.9469 64.9309 99.0936 65.4865 99.0936 66.0998C99.0936 66.7221 98.9469 67.2865 98.6536 67.7932C98.3603 68.2909 97.9603 68.6865 97.4536 68.9798C96.9558 69.2732 96.4003 69.4198 95.7869 69.4198ZM95.7869 68.2598C96.1869 68.2598 96.5425 68.1665 96.8536 67.9798C97.1647 67.7932 97.4092 67.5398 97.5869 67.2198C97.7647 66.8909 97.8536 66.5176 97.8536 66.0998C97.8536 65.6909 97.7603 65.3265 97.5736 65.0065C97.3958 64.6865 97.1514 64.4376 96.8403 64.2598C96.538 64.0732 96.1869 63.9798 95.7869 63.9798C95.3869 63.9798 95.0314 64.0732 94.7203 64.2598C94.4092 64.4376 94.1647 64.6865 93.9869 65.0065C93.8092 65.3265 93.7203 65.6909 93.7203 66.0998C93.7203 66.5176 93.8092 66.8909 93.9869 67.2198C94.1647 67.5398 94.4092 67.7932 94.7203 67.9798C95.0314 68.1665 95.3869 68.2598 95.7869 68.2598Z" fill="black"/>
<path d="M103.006 69.4198C102.481 69.4198 102.01 69.3043 101.592 69.0732C101.183 68.8332 100.863 68.5043 100.632 68.0865C100.401 67.6687 100.286 67.1843 100.286 66.6332V62.9532H101.486V66.5798C101.486 66.9265 101.543 67.2287 101.659 67.4865C101.783 67.7354 101.961 67.9265 102.192 68.0598C102.423 68.1932 102.695 68.2598 103.006 68.2598C103.477 68.2598 103.846 68.1132 104.112 67.8198C104.379 67.5176 104.512 67.1043 104.512 66.5798V62.9532H105.712V66.6332C105.712 67.1843 105.597 67.6687 105.366 68.0865C105.135 68.5043 104.815 68.8332 104.406 69.0732C104.006 69.3043 103.539 69.4198 103.006 69.4198Z" fill="black"/>
<path d="M112.987 69.4198C112.365 69.4198 111.801 69.2732 111.294 68.9798C110.796 68.6865 110.401 68.2909 110.107 67.7932C109.823 67.2865 109.681 66.7265 109.681 66.1132C109.681 65.4909 109.823 64.9309 110.107 64.4332C110.401 63.9354 110.796 63.5443 111.294 63.2598C111.801 62.9665 112.365 62.8198 112.987 62.8198C113.476 62.8198 113.93 62.9132 114.347 63.0998C114.765 63.2776 115.125 63.5398 115.427 63.8865L114.627 64.6865C114.432 64.4554 114.192 64.2821 113.907 64.1665C113.632 64.0421 113.325 63.9798 112.987 63.9798C112.587 63.9798 112.232 64.0732 111.921 64.2598C111.61 64.4376 111.365 64.6865 111.187 65.0065C111.01 65.3265 110.921 65.6954 110.921 66.1132C110.921 66.5309 111.01 66.8998 111.187 67.2198C111.365 67.5398 111.61 67.7932 111.921 67.9798C112.232 68.1665 112.587 68.2598 112.987 68.2598C113.325 68.2598 113.632 68.2021 113.907 68.0865C114.192 67.9621 114.436 67.7843 114.641 67.5532L115.427 68.3532C115.134 68.691 114.774 68.9532 114.347 69.1398C113.93 69.3265 113.476 69.4198 112.987 69.4198Z" fill="black"/>
<path d="M116.618 69.2865V59.7665H117.818V69.2865H116.618Z" fill="black"/>
<path d="M119.587 69.2865V62.9532H120.787V69.2865H119.587ZM120.187 61.6865C119.964 61.6865 119.782 61.6154 119.64 61.4732C119.498 61.3221 119.427 61.1354 119.427 60.9132C119.427 60.6998 119.498 60.5221 119.64 60.3798C119.782 60.2287 119.964 60.1532 120.187 60.1532C120.409 60.1532 120.591 60.2287 120.733 60.3798C120.876 60.5221 120.947 60.6998 120.947 60.9132C120.947 61.1354 120.876 61.3221 120.733 61.4732C120.591 61.6154 120.409 61.6865 120.187 61.6865Z" fill="black"/>
<path d="M125.448 69.4198C124.826 69.4198 124.262 69.2732 123.755 68.9798C123.257 68.6865 122.862 68.2909 122.568 67.7932C122.284 67.2865 122.142 66.7265 122.142 66.1132C122.142 65.4909 122.284 64.9309 122.568 64.4332C122.862 63.9354 123.257 63.5443 123.755 63.2598C124.262 62.9665 124.826 62.8198 125.448 62.8198C125.937 62.8198 126.391 62.9132 126.808 63.0998C127.226 63.2776 127.586 63.5398 127.888 63.8865L127.088 64.6865C126.893 64.4554 126.653 64.2821 126.368 64.1665C126.093 64.0421 125.786 63.9798 125.448 63.9798C125.048 63.9798 124.693 64.0732 124.382 64.2598C124.071 64.4376 123.826 64.6865 123.648 65.0065C123.471 65.3265 123.382 65.6954 123.382 66.1132C123.382 66.5309 123.471 66.8998 123.648 67.2198C123.826 67.5398 124.071 67.7932 124.382 67.9798C124.693 68.1665 125.048 68.2598 125.448 68.2598C125.786 68.2598 126.093 68.2021 126.368 68.0865C126.653 67.9621 126.897 67.7843 127.102 67.5532L127.888 68.3532C127.595 68.691 127.235 68.9532 126.808 69.1398C126.391 69.3265 125.937 69.4198 125.448 69.4198Z" fill="black"/>
<path d="M133.132 69.2865L130.172 66.0465L133.105 62.9532H134.558L131.292 66.3665L131.345 65.6732L134.678 69.2865H133.132ZM129.078 69.2865V59.7665H130.278V69.2865H129.078Z" fill="black"/>
<path d="M141.386 69.4198C140.764 69.4198 140.204 69.2732 139.706 68.9798C139.208 68.6865 138.813 68.2909 138.519 67.7932C138.226 67.2865 138.079 66.7221 138.079 66.0998C138.079 65.4865 138.226 64.9354 138.519 64.4465C138.813 63.9487 139.208 63.5532 139.706 63.2598C140.204 62.9665 140.764 62.8198 141.386 62.8198C141.999 62.8198 142.555 62.9665 143.053 63.2598C143.559 63.5443 143.959 63.9354 144.253 64.4332C144.546 64.9309 144.693 65.4865 144.693 66.0998C144.693 66.7221 144.546 67.2865 144.253 67.7932C143.959 68.2909 143.559 68.6865 143.053 68.9798C142.555 69.2732 141.999 69.4198 141.386 69.4198ZM141.386 68.2598C141.786 68.2598 142.141 68.1665 142.453 67.9798C142.764 67.7932 143.008 67.5398 143.186 67.2198C143.364 66.8909 143.453 66.5176 143.453 66.0998C143.453 65.6909 143.359 65.3265 143.173 65.0065C142.995 64.6865 142.75 64.4376 142.439 64.2598C142.137 64.0732 141.786 63.9798 141.386 63.9798C140.986 63.9798 140.63 64.0732 140.319 64.2598C140.008 64.4376 139.764 64.6865 139.586 65.0065C139.408 65.3265 139.319 65.6909 139.319 66.0998C139.319 66.5176 139.408 66.8909 139.586 67.2198C139.764 67.5398 140.008 67.7932 140.319 67.9798C140.63 68.1665 140.986 68.2598 141.386 68.2598Z" fill="black"/>
<path d="M150.525 69.2865V65.5932C150.525 65.1132 150.374 64.7176 150.071 64.4065C149.769 64.0954 149.378 63.9398 148.898 63.9398C148.578 63.9398 148.294 64.0109 148.045 64.1532C147.796 64.2954 147.6 64.4909 147.458 64.7398C147.316 64.9887 147.245 65.2732 147.245 65.5932L146.751 65.3132C146.751 64.8332 146.858 64.4065 147.071 64.0332C147.285 63.6598 147.582 63.3665 147.965 63.1532C148.347 62.9309 148.778 62.8198 149.258 62.8198C149.738 62.8198 150.16 62.9398 150.525 63.1798C150.898 63.4198 151.191 63.7354 151.405 64.1265C151.618 64.5087 151.725 64.9176 151.725 65.3532V69.2865H150.525ZM146.045 69.2865V62.9532H147.245V69.2865H146.045Z" fill="black"/>
<path d="M157.096 69.2865V60.2998H158.296V69.2865H157.096ZM155.536 64.0465V62.9532H159.856V64.0465H155.536Z" fill="black"/>
<path d="M165.512 69.2865V65.5932C165.512 65.1132 165.361 64.7176 165.058 64.4065C164.756 64.0954 164.365 63.9398 163.885 63.9398C163.565 63.9398 163.281 64.0109 163.032 64.1532C162.783 64.2954 162.587 64.4909 162.445 64.7398C162.303 64.9887 162.232 65.2732 162.232 65.5932L161.738 65.3132C161.738 64.8332 161.845 64.4065 162.058 64.0332C162.272 63.6598 162.569 63.3665 162.952 63.1532C163.334 62.9309 163.765 62.8198 164.245 62.8198C164.725 62.8198 165.147 62.9265 165.512 63.1398C165.885 63.3532 166.178 63.651 166.392 64.0332C166.605 64.4154 166.712 64.8554 166.712 65.3532V69.2865H165.512ZM161.032 69.2865V59.7665H162.232V69.2865H161.032Z" fill="black"/>
<path d="M168.35 69.2865V62.9532H169.55V69.2865H168.35ZM168.95 61.6865C168.727 61.6865 168.545 61.6154 168.403 61.4732C168.261 61.3221 168.19 61.1354 168.19 60.9132C168.19 60.6998 168.261 60.5221 168.403 60.3798C168.545 60.2287 168.727 60.1532 168.95 60.1532C169.172 60.1532 169.354 60.2287 169.496 60.3798C169.639 60.5221 169.71 60.6998 169.71 60.9132C169.71 61.1354 169.639 61.3221 169.496 61.4732C169.354 61.6154 169.172 61.6865 168.95 61.6865Z" fill="black"/>
<path d="M173.331 69.4198C172.976 69.4198 172.638 69.3754 172.318 69.2865C172.007 69.1887 171.718 69.0554 171.451 68.8865C171.185 68.7087 170.954 68.4998 170.758 68.2598L171.531 67.4865C171.763 67.7709 172.029 67.9843 172.331 68.1265C172.634 68.2598 172.971 68.3265 173.345 68.3265C173.718 68.3265 174.007 68.2643 174.211 68.1398C174.416 68.0065 174.518 67.8243 174.518 67.5932C174.518 67.3621 174.434 67.1843 174.265 67.0598C174.105 66.9265 173.896 66.8198 173.638 66.7398C173.38 66.6509 173.105 66.5665 172.811 66.4865C172.527 66.3976 172.256 66.2865 171.998 66.1532C171.74 66.0198 171.527 65.8376 171.358 65.6065C171.198 65.3754 171.118 65.0687 171.118 64.6865C171.118 64.3043 171.211 63.9754 171.398 63.6998C171.585 63.4154 171.843 63.1976 172.171 63.0465C172.509 62.8954 172.914 62.8198 173.385 62.8198C173.883 62.8198 174.323 62.9087 174.705 63.0865C175.096 63.2554 175.416 63.5132 175.665 63.8598L174.891 64.6332C174.714 64.4021 174.491 64.2243 174.225 64.0998C173.967 63.9754 173.674 63.9132 173.345 63.9132C172.998 63.9132 172.731 63.9754 172.545 64.0998C172.367 64.2154 172.278 64.3798 172.278 64.5932C172.278 64.8065 172.358 64.971 172.518 65.0865C172.678 65.2021 172.887 65.2998 173.145 65.3798C173.411 65.4598 173.687 65.5443 173.971 65.6332C174.256 65.7132 174.527 65.8243 174.785 65.9665C175.043 66.1087 175.251 66.2998 175.411 66.5398C175.58 66.7798 175.665 67.0954 175.665 67.4865C175.665 68.0821 175.451 68.5532 175.025 68.8998C174.607 69.2465 174.043 69.4198 173.331 69.4198Z" fill="black"/>
<path d="M179.782 69.2865V59.7665H180.982V69.2865H179.782Z" fill="black"/>
<path d="M182.751 69.2865V62.9532H183.951V69.2865H182.751ZM183.351 61.6865C183.128 61.6865 182.946 61.6154 182.804 61.4732C182.662 61.3221 182.591 61.1354 182.591 60.9132C182.591 60.6998 182.662 60.5221 182.804 60.3798C182.946 60.2287 183.128 60.1532 183.351 60.1532C183.573 60.1532 183.755 60.2287 183.897 60.3798C184.04 60.5221 184.111 60.6998 184.111 60.9132C184.111 61.1354 184.04 61.3221 183.897 61.4732C183.755 61.6154 183.573 61.6865 183.351 61.6865Z" fill="black"/>
<path d="M190.199 69.2865V65.5932C190.199 65.1132 190.048 64.7176 189.746 64.4065C189.444 64.0954 189.052 63.9398 188.572 63.9398C188.252 63.9398 187.968 64.0109 187.719 64.1532C187.47 64.2954 187.275 64.4909 187.132 64.7398C186.99 64.9887 186.919 65.2732 186.919 65.5932L186.426 65.3132C186.426 64.8332 186.532 64.4065 186.746 64.0332C186.959 63.6598 187.257 63.3665 187.639 63.1532C188.021 62.9309 188.452 62.8198 188.932 62.8198C189.412 62.8198 189.835 62.9398 190.199 63.1798C190.572 63.4198 190.866 63.7354 191.079 64.1265C191.292 64.5087 191.399 64.9176 191.399 65.3532V69.2865H190.199ZM185.719 69.2865V62.9532H186.919V69.2865H185.719Z" fill="black"/>
<path d="M197.077 69.2865L194.117 66.0465L197.05 62.9532H198.504L195.237 66.3665L195.29 65.6732L198.624 69.2865H197.077ZM193.024 69.2865V59.7665H194.224V69.2865H193.024Z" fill="black"/>
<path d="M199.523 70.7532L200.349 69.1665L200.776 69.0598C200.732 69.1576 200.674 69.2376 200.603 69.2998C200.541 69.3621 200.461 69.3932 200.363 69.3932C200.176 69.3932 200.003 69.3176 199.843 69.1665C199.692 69.0065 199.616 68.8109 199.616 68.5798C199.616 68.3221 199.701 68.1087 199.869 67.9398C200.038 67.7621 200.252 67.6732 200.509 67.6732C200.741 67.6732 200.945 67.7621 201.123 67.9398C201.301 68.1087 201.389 68.3221 201.389 68.5798C201.389 68.6776 201.367 68.7976 201.323 68.9398C201.287 69.0732 201.212 69.2465 201.096 69.4598L200.216 71.1265L199.523 70.7532Z" fill="black"/>
<path d="M207.715 69.2865L205.208 62.9532H206.461L208.275 67.8865H207.875L209.675 62.9532H210.368L212.168 67.8865H211.768L213.581 62.9532H214.835L212.341 69.2865H211.635L209.808 64.4998H210.248L208.408 69.2865H207.715Z" fill="black"/>
<path d="M218.652 69.4198C218.021 69.4198 217.452 69.2776 216.946 68.9932C216.439 68.6998 216.039 68.3043 215.746 67.8065C215.452 67.3087 215.306 66.7443 215.306 66.1132C215.306 65.4909 215.448 64.9309 215.732 64.4332C216.026 63.9354 216.417 63.5443 216.906 63.2598C217.404 62.9665 217.959 62.8198 218.572 62.8198C219.159 62.8198 219.675 62.9532 220.119 63.2198C220.572 63.4865 220.924 63.8554 221.172 64.3265C221.43 64.7976 221.559 65.331 221.559 65.9265C221.559 66.0154 221.555 66.1132 221.546 66.2198C221.537 66.3176 221.519 66.4332 221.492 66.5665H216.146V65.5665H220.852L220.412 65.9532C220.412 65.5265 220.337 65.1665 220.186 64.8732C220.035 64.571 219.821 64.3398 219.546 64.1798C219.27 64.0109 218.937 63.9265 218.546 63.9265C218.137 63.9265 217.777 64.0154 217.466 64.1932C217.155 64.371 216.915 64.6198 216.746 64.9398C216.577 65.2598 216.492 65.6376 216.492 66.0732C216.492 66.5176 216.581 66.9087 216.759 67.2465C216.937 67.5754 217.19 67.8332 217.519 68.0198C217.848 68.1976 218.226 68.2865 218.652 68.2865C219.008 68.2865 219.332 68.2243 219.626 68.0998C219.928 67.9754 220.186 67.7887 220.399 67.5398L221.172 68.3265C220.87 68.6821 220.497 68.9532 220.052 69.1398C219.617 69.3265 219.15 69.4198 218.652 69.4198Z" fill="black"/>
<path d="M227.454 69.2865L224.948 62.9532H226.201L228.014 67.8865H227.614L229.414 62.9532H230.108L231.908 67.8865H231.508L233.321 62.9532H234.574L232.081 69.2865H231.374L229.548 64.4998H229.988L228.148 69.2865H227.454Z" fill="black"/>
<path d="M235.55 69.2865V62.9532H236.75V69.2865H235.55ZM236.15 61.6865C235.928 61.6865 235.746 61.6154 235.604 61.4732C235.461 61.3221 235.39 61.1354 235.39 60.9132C235.39 60.6998 235.461 60.5221 235.604 60.3798C235.746 60.2287 235.928 60.1532 236.15 60.1532C236.372 60.1532 236.555 60.2287 236.697 60.3798C236.839 60.5221 236.91 60.6998 236.91 60.9132C236.91 61.1354 236.839 61.3221 236.697 61.4732C236.555 61.6154 236.372 61.6865 236.15 61.6865Z" fill="black"/>
<path d="M238.519 69.2865V59.7665H239.719V69.2865H238.519Z" fill="black"/>
<path d="M241.474 69.2865V59.7665H242.674V69.2865H241.474Z" fill="black"/>
<path d="M52.4069 89.4198C52.0514 89.4198 51.7136 89.3754 51.3936 89.2865C51.0825 89.1887 50.7936 89.0554 50.5269 88.8865C50.2603 88.7087 50.0292 88.4998 49.8336 88.2598L50.6069 87.4865C50.838 87.7709 51.1047 87.9843 51.4069 88.1265C51.7092 88.2598 52.0469 88.3265 52.4203 88.3265C52.7936 88.3265 53.0825 88.2643 53.2869 88.1398C53.4914 88.0065 53.5936 87.8243 53.5936 87.5932C53.5936 87.3621 53.5092 87.1843 53.3403 87.0598C53.1803 86.9265 52.9714 86.8198 52.7136 86.7398C52.4558 86.6509 52.1803 86.5665 51.8869 86.4865C51.6025 86.3976 51.3314 86.2865 51.0736 86.1532C50.8158 86.0198 50.6025 85.8376 50.4336 85.6065C50.2736 85.3754 50.1936 85.0687 50.1936 84.6865C50.1936 84.3043 50.2869 83.9754 50.4736 83.6998C50.6603 83.4154 50.918 83.1976 51.2469 83.0465C51.5847 82.8954 51.9892 82.8198 52.4603 82.8198C52.958 82.8198 53.398 82.9087 53.7803 83.0865C54.1714 83.2554 54.4914 83.5132 54.7403 83.8598L53.9669 84.6332C53.7892 84.4021 53.5669 84.2243 53.3003 84.0998C53.0425 83.9754 52.7492 83.9132 52.4203 83.9132C52.0736 83.9132 51.8069 83.9754 51.6203 84.0998C51.4425 84.2154 51.3536 84.3798 51.3536 84.5932C51.3536 84.8065 51.4336 84.971 51.5936 85.0865C51.7536 85.2021 51.9625 85.2998 52.2203 85.3798C52.4869 85.4598 52.7625 85.5443 53.0469 85.6332C53.3314 85.7132 53.6025 85.8243 53.8603 85.9665C54.118 86.1087 54.3269 86.2998 54.4869 86.5398C54.6558 86.7798 54.7403 87.0954 54.7403 87.4865C54.7403 88.0821 54.5269 88.5532 54.1003 88.8998C53.6825 89.2465 53.118 89.4198 52.4069 89.4198Z" fill="black"/>
<path d="M59.017 89.4198C58.3859 89.4198 57.817 89.2776 57.3104 88.9932C56.8037 88.6998 56.4037 88.3043 56.1104 87.8065C55.817 87.3087 55.6704 86.7443 55.6704 86.1132C55.6704 85.4909 55.8126 84.9309 56.097 84.4332C56.3904 83.9354 56.7815 83.5443 57.2704 83.2598C57.7681 82.9665 58.3237 82.8198 58.937 82.8198C59.5237 82.8198 60.0393 82.9532 60.4837 83.2198C60.937 83.4865 61.2881 83.8554 61.537 84.3265C61.7948 84.7976 61.9237 85.331 61.9237 85.9265C61.9237 86.0154 61.9193 86.1132 61.9104 86.2198C61.9015 86.3176 61.8837 86.4332 61.857 86.5665H56.5104V85.5665H61.217L60.777 85.9532C60.777 85.5265 60.7015 85.1665 60.5504 84.8732C60.3993 84.571 60.1859 84.3398 59.9104 84.1798C59.6348 84.0109 59.3015 83.9265 58.9104 83.9265C58.5015 83.9265 58.1415 84.0154 57.8304 84.1932C57.5193 84.371 57.2793 84.6198 57.1104 84.9398C56.9415 85.2598 56.857 85.6376 56.857 86.0732C56.857 86.5176 56.9459 86.9087 57.1237 87.2465C57.3015 87.5754 57.5548 87.8332 57.8837 88.0198C58.2126 88.1976 58.5904 88.2865 59.017 88.2865C59.3726 88.2865 59.697 88.2243 59.9904 88.0998C60.2926 87.9754 60.5504 87.7887 60.7637 87.5398L61.537 88.3265C61.2348 88.6821 60.8615 88.9532 60.417 89.1398C59.9815 89.3265 59.5148 89.4198 59.017 89.4198Z" fill="black"/>
<path d="M67.7121 89.2865V85.5932C67.7121 85.1132 67.561 84.7176 67.2588 84.4065C66.9566 84.0954 66.5655 83.9398 66.0855 83.9398C65.7655 83.9398 65.481 84.0109 65.2321 84.1532C64.9832 84.2954 64.7877 84.4909 64.6455 84.7398C64.5032 84.9887 64.4321 85.2732 64.4321 85.5932L63.9388 85.3132C63.9388 84.8332 64.0455 84.4065 64.2588 84.0332C64.4721 83.6598 64.7699 83.3665 65.1521 83.1532C65.5344 82.9309 65.9655 82.8198 66.4455 82.8198C66.9255 82.8198 67.3477 82.9398 67.7121 83.1798C68.0855 83.4198 68.3788 83.7354 68.5921 84.1265C68.8055 84.5087 68.9121 84.9176 68.9121 85.3532V89.2865H67.7121ZM63.2321 89.2865V82.9532H64.4321V89.2865H63.2321Z" fill="black"/>
<path d="M73.2168 89.4198C72.6302 89.4198 72.1057 89.2776 71.6435 88.9932C71.1813 88.6998 70.8124 88.3043 70.5368 87.8065C70.2702 87.3087 70.1368 86.7487 70.1368 86.1265C70.1368 85.5043 70.2702 84.9443 70.5368 84.4465C70.8124 83.9487 71.1813 83.5532 71.6435 83.2598C72.1057 82.9665 72.6302 82.8198 73.2168 82.8198C73.6879 82.8198 74.1146 82.9221 74.4968 83.1265C74.879 83.3221 75.1857 83.5976 75.4168 83.9532C75.6568 84.2998 75.7902 84.7043 75.8168 85.1665V87.0732C75.7902 87.5265 75.6613 87.9309 75.4302 88.2865C75.199 88.6421 74.8924 88.9221 74.5102 89.1265C74.1279 89.3221 73.6968 89.4198 73.2168 89.4198ZM73.4168 88.2865C73.8168 88.2865 74.1635 88.1932 74.4568 88.0065C74.759 87.8198 74.9946 87.5665 75.1635 87.2465C75.3324 86.9176 75.4168 86.5443 75.4168 86.1265C75.4168 85.6909 75.3279 85.3132 75.1502 84.9932C74.9813 84.6732 74.7457 84.4198 74.4435 84.2332C74.1502 84.0465 73.8035 83.9532 73.4035 83.9532C73.0035 83.9532 72.6524 84.0465 72.3502 84.2332C72.0479 84.4198 71.8079 84.6776 71.6302 85.0065C71.4613 85.3265 71.3768 85.6954 71.3768 86.1132C71.3768 86.5398 71.4613 86.9176 71.6302 87.2465C71.8079 87.5665 72.0479 87.8198 72.3502 88.0065C72.6613 88.1932 73.0168 88.2865 73.4168 88.2865ZM76.5502 89.2865H75.3368V87.5798L75.5635 86.0332L75.3368 84.4998V79.7665H76.5502V89.2865Z" fill="black"/>
<path d="M83.1507 89.3398L80.404 82.9532H81.7373L83.7773 87.9532H83.3507L85.4973 82.9532H86.8307L83.8707 89.3398H83.1507ZM81.3373 91.9398L83.204 88.1132L83.8707 89.3398L82.6707 91.9398H81.3373Z" fill="black"/>
<path d="M90.4614 89.4198C89.8392 89.4198 89.2792 89.2732 88.7814 88.9798C88.2836 88.6865 87.8881 88.2909 87.5947 87.7932C87.3014 87.2865 87.1547 86.7221 87.1547 86.0998C87.1547 85.4865 87.3014 84.9354 87.5947 84.4465C87.8881 83.9487 88.2836 83.5532 88.7814 83.2598C89.2792 82.9665 89.8392 82.8198 90.4614 82.8198C91.0747 82.8198 91.6303 82.9665 92.1281 83.2598C92.6347 83.5443 93.0347 83.9354 93.3281 84.4332C93.6214 84.9309 93.7681 85.4865 93.7681 86.0998C93.7681 86.7221 93.6214 87.2865 93.3281 87.7932C93.0347 88.2909 92.6347 88.6865 92.1281 88.9798C91.6303 89.2732 91.0747 89.4198 90.4614 89.4198ZM90.4614 88.2598C90.8614 88.2598 91.217 88.1665 91.5281 87.9798C91.8392 87.7932 92.0836 87.5398 92.2614 87.2198C92.4392 86.8909 92.5281 86.5176 92.5281 86.0998C92.5281 85.6909 92.4347 85.3265 92.2481 85.0065C92.0703 84.6865 91.8259 84.4376 91.5147 84.2598C91.2125 84.0732 90.8614 83.9798 90.4614 83.9798C90.0614 83.9798 89.7058 84.0732 89.3947 84.2598C89.0836 84.4376 88.8392 84.6865 88.6614 85.0065C88.4836 85.3265 88.3947 85.6909 88.3947 86.0998C88.3947 86.5176 88.4836 86.8909 88.6614 87.2198C88.8392 87.5398 89.0836 87.7932 89.3947 87.9798C89.7058 88.1665 90.0614 88.2598 90.4614 88.2598Z" fill="black"/>
<path d="M97.6802 89.4198C97.1557 89.4198 96.6846 89.3043 96.2668 89.0732C95.8579 88.8332 95.5379 88.5043 95.3068 88.0865C95.0757 87.6687 94.9602 87.1843 94.9602 86.6332V82.9532H96.1602V86.5798C96.1602 86.9265 96.2179 87.2287 96.3335 87.4865C96.4579 87.7354 96.6357 87.9265 96.8668 88.0598C97.0979 88.1932 97.369 88.2598 97.6802 88.2598C98.1513 88.2598 98.5202 88.1132 98.7868 87.8198C99.0535 87.5176 99.1868 87.1043 99.1868 86.5798V82.9532H100.387V86.6332C100.387 87.1843 100.271 87.6687 100.04 88.0865C99.809 88.5043 99.489 88.8332 99.0802 89.0732C98.6802 89.3043 98.2135 89.4198 97.6802 89.4198Z" fill="black"/>
<path d="M107.462 89.4198C106.884 89.4198 106.36 89.2776 105.889 88.9932C105.417 88.6998 105.044 88.3043 104.769 87.8065C104.502 87.3087 104.369 86.7487 104.369 86.1265C104.369 85.5043 104.502 84.9443 104.769 84.4465C105.044 83.9487 105.413 83.5532 105.875 83.2598C106.346 82.9665 106.875 82.8198 107.462 82.8198C107.942 82.8198 108.369 82.9221 108.742 83.1265C109.124 83.3221 109.431 83.5976 109.662 83.9532C109.893 84.2998 110.022 84.7043 110.049 85.1665V87.0732C110.022 87.5265 109.893 87.9309 109.662 88.2865C109.44 88.6421 109.137 88.9221 108.755 89.1265C108.382 89.3221 107.951 89.4198 107.462 89.4198ZM107.662 88.2865C108.257 88.2865 108.737 88.0865 109.102 87.6865C109.466 87.2776 109.649 86.7576 109.649 86.1265C109.649 85.6909 109.564 85.3132 109.395 84.9932C109.235 84.6643 109.004 84.4109 108.702 84.2332C108.4 84.0465 108.049 83.9532 107.649 83.9532C107.249 83.9532 106.893 84.0465 106.582 84.2332C106.28 84.4198 106.04 84.6776 105.862 85.0065C105.693 85.3265 105.609 85.6954 105.609 86.1132C105.609 86.5398 105.693 86.9176 105.862 87.2465C106.04 87.5665 106.284 87.8198 106.595 88.0065C106.906 88.1932 107.262 88.2865 107.662 88.2865ZM109.569 89.2865V87.5798L109.795 86.0332L109.569 84.4998V82.9532H110.782V89.2865H109.569Z" fill="black"/>
<path d="M117.862 89.4198C117.338 89.4198 116.867 89.3043 116.449 89.0732C116.04 88.8332 115.72 88.5043 115.489 88.0865C115.258 87.6687 115.142 87.1843 115.142 86.6332V82.9532H116.342V86.5798C116.342 86.9265 116.4 87.2287 116.516 87.4865C116.64 87.7354 116.818 87.9265 117.049 88.0598C117.28 88.1932 117.551 88.2598 117.862 88.2598C118.334 88.2598 118.702 88.1132 118.969 87.8198C119.236 87.5176 119.369 87.1043 119.369 86.5798V82.9532H120.569V86.6332C120.569 87.1843 120.454 87.6687 120.222 88.0865C119.991 88.5043 119.671 88.8332 119.262 89.0732C118.862 89.3043 118.396 89.4198 117.862 89.4198Z" fill="black"/>
<path d="M126.657 89.2865V85.5932C126.657 85.1132 126.506 84.7176 126.204 84.4065C125.902 84.0954 125.511 83.9398 125.031 83.9398C124.711 83.9398 124.426 84.0109 124.177 84.1532C123.929 84.2954 123.733 84.4909 123.591 84.7398C123.449 84.9887 123.377 85.2732 123.377 85.5932L122.884 85.3132C122.884 84.8332 122.991 84.4065 123.204 84.0332C123.417 83.6598 123.715 83.3665 124.097 83.1532C124.48 82.9309 124.911 82.8198 125.391 82.8198C125.871 82.8198 126.293 82.9398 126.657 83.1798C127.031 83.4198 127.324 83.7354 127.537 84.1265C127.751 84.5087 127.857 84.9176 127.857 85.3532V89.2865H126.657ZM122.177 89.2865V82.9532H123.377V89.2865H122.177Z" fill="black"/>
<path d="M129.495 89.2865V82.9532H130.695V89.2865H129.495ZM130.095 81.6865C129.873 81.6865 129.691 81.6154 129.549 81.4732C129.407 81.3221 129.335 81.1354 129.335 80.9132C129.335 80.6998 129.407 80.5221 129.549 80.3798C129.691 80.2287 129.873 80.1532 130.095 80.1532C130.318 80.1532 130.5 80.2287 130.642 80.3798C130.784 80.5221 130.855 80.6998 130.855 80.9132C130.855 81.1354 130.784 81.3221 130.642 81.4732C130.5 81.6154 130.318 81.6865 130.095 81.6865Z" fill="black"/>
<path d="M135.171 89.4198C134.584 89.4198 134.055 89.2776 133.584 88.9932C133.113 88.6998 132.739 88.3043 132.464 87.8065C132.197 87.3087 132.064 86.7487 132.064 86.1265C132.064 85.5043 132.197 84.9443 132.464 84.4465C132.739 83.9487 133.113 83.5532 133.584 83.2598C134.055 82.9665 134.579 82.8198 135.157 82.8198C135.646 82.8198 136.077 82.9221 136.451 83.1265C136.833 83.3221 137.135 83.5976 137.357 83.9532C137.588 84.2998 137.717 84.7043 137.744 85.1665V87.0732C137.717 87.5265 137.588 87.9309 137.357 88.2865C137.135 88.6421 136.833 88.9221 136.451 89.1265C136.077 89.3221 135.651 89.4198 135.171 89.4198ZM135.357 88.2865C135.953 88.2865 136.433 88.0865 136.797 87.6865C137.162 87.2776 137.344 86.7576 137.344 86.1265C137.344 85.6909 137.259 85.3132 137.091 84.9932C136.931 84.6643 136.699 84.4109 136.397 84.2332C136.104 84.0465 135.757 83.9532 135.357 83.9532C134.957 83.9532 134.602 84.0465 134.291 84.2332C133.988 84.4198 133.748 84.6776 133.571 85.0065C133.393 85.3265 133.304 85.6954 133.304 86.1132C133.304 86.5398 133.393 86.9176 133.571 87.2465C133.748 87.5665 133.988 87.8198 134.291 88.0065C134.602 88.1932 134.957 88.2865 135.357 88.2865ZM137.277 91.9398V87.6998L137.491 86.1532L137.277 84.6198V82.9532H138.477V91.9398H137.277Z" fill="black"/>
<path d="M142.797 89.4198C142.273 89.4198 141.802 89.3043 141.384 89.0732C140.975 88.8332 140.655 88.5043 140.424 88.0865C140.193 87.6687 140.077 87.1843 140.077 86.6332V82.9532H141.277V86.5798C141.277 86.9265 141.335 87.2287 141.451 87.4865C141.575 87.7354 141.753 87.9265 141.984 88.0598C142.215 88.1932 142.486 88.2598 142.797 88.2598C143.268 88.2598 143.637 88.1132 143.904 87.8198C144.171 87.5176 144.304 87.1043 144.304 86.5798V82.9532H145.504V86.6332C145.504 87.1843 145.388 87.6687 145.157 88.0865C144.926 88.5043 144.606 88.8332 144.197 89.0732C143.797 89.3043 143.331 89.4198 142.797 89.4198Z" fill="black"/>
<path d="M150.046 89.4198C149.415 89.4198 148.846 89.2776 148.339 88.9932C147.832 88.6998 147.432 88.3043 147.139 87.8065C146.846 87.3087 146.699 86.7443 146.699 86.1132C146.699 85.4909 146.841 84.9309 147.126 84.4332C147.419 83.9354 147.81 83.5443 148.299 83.2598C148.797 82.9665 149.352 82.8198 149.966 82.8198C150.552 82.8198 151.068 82.9532 151.512 83.2198C151.966 83.4865 152.317 83.8554 152.566 84.3265C152.823 84.7976 152.952 85.331 152.952 85.9265C152.952 86.0154 152.948 86.1132 152.939 86.2198C152.93 86.3176 152.912 86.4332 152.886 86.5665H147.539V85.5665H152.246L151.806 85.9532C151.806 85.5265 151.73 85.1665 151.579 84.8732C151.428 84.571 151.215 84.3398 150.939 84.1798C150.663 84.0109 150.33 83.9265 149.939 83.9265C149.53 83.9265 149.17 84.0154 148.859 84.1932C148.548 84.371 148.308 84.6198 148.139 84.9398C147.97 85.2598 147.886 85.6376 147.886 86.0732C147.886 86.5176 147.975 86.9087 148.152 87.2465C148.33 87.5754 148.583 87.8332 148.912 88.0198C149.241 88.1976 149.619 88.2865 150.046 88.2865C150.401 88.2865 150.726 88.2243 151.019 88.0998C151.321 87.9754 151.579 87.7887 151.792 87.5398L152.566 88.3265C152.263 88.6821 151.89 88.9532 151.446 89.1398C151.01 89.3265 150.543 89.4198 150.046 89.4198Z" fill="black"/>
<path d="M159.728 89.4198C159.15 89.4198 158.625 89.2776 158.154 88.9932C157.683 88.6998 157.31 88.3043 157.034 87.8065C156.768 87.3087 156.634 86.7487 156.634 86.1265C156.634 85.5043 156.768 84.9443 157.034 84.4465C157.31 83.9487 157.679 83.5532 158.141 83.2598C158.612 82.9665 159.141 82.8198 159.728 82.8198C160.208 82.8198 160.634 82.9221 161.008 83.1265C161.39 83.3221 161.696 83.5976 161.928 83.9532C162.159 84.2998 162.288 84.7043 162.314 85.1665V87.0732C162.288 87.5265 162.159 87.9309 161.928 88.2865C161.705 88.6421 161.403 88.9221 161.021 89.1265C160.648 89.3221 160.216 89.4198 159.728 89.4198ZM159.928 88.2865C160.523 88.2865 161.003 88.0865 161.368 87.6865C161.732 87.2776 161.914 86.7576 161.914 86.1265C161.914 85.6909 161.83 85.3132 161.661 84.9932C161.501 84.6643 161.27 84.4109 160.968 84.2332C160.665 84.0465 160.314 83.9532 159.914 83.9532C159.514 83.9532 159.159 84.0465 158.848 84.2332C158.545 84.4198 158.305 84.6776 158.128 85.0065C157.959 85.3265 157.874 85.6954 157.874 86.1132C157.874 86.5398 157.959 86.9176 158.128 87.2465C158.305 87.5665 158.55 87.8198 158.861 88.0065C159.172 88.1932 159.528 88.2865 159.928 88.2865ZM161.834 89.2865V87.5798L162.061 86.0332L161.834 84.4998V82.9532H163.048V89.2865H161.834Z" fill="black"/>
<path d="M167.688 89.4198C167.066 89.4198 166.501 89.2732 165.995 88.9798C165.497 88.6865 165.101 88.2909 164.808 87.7932C164.524 87.2865 164.381 86.7265 164.381 86.1132C164.381 85.4909 164.524 84.9309 164.808 84.4332C165.101 83.9354 165.497 83.5443 165.995 83.2598C166.501 82.9665 167.066 82.8198 167.688 82.8198C168.177 82.8198 168.63 82.9132 169.048 83.0998C169.466 83.2776 169.826 83.5398 170.128 83.8865L169.328 84.6865C169.132 84.4554 168.892 84.2821 168.608 84.1665C168.332 84.0421 168.026 83.9798 167.688 83.9798C167.288 83.9798 166.932 84.0732 166.621 84.2598C166.31 84.4376 166.066 84.6865 165.888 85.0065C165.71 85.3265 165.621 85.6954 165.621 86.1132C165.621 86.5309 165.71 86.8998 165.888 87.2198C166.066 87.5398 166.31 87.7932 166.621 87.9798C166.932 88.1665 167.288 88.2598 167.688 88.2598C168.026 88.2598 168.332 88.2021 168.608 88.0865C168.892 87.9621 169.137 87.7843 169.341 87.5532L170.128 88.3532C169.835 88.691 169.475 88.9532 169.048 89.1398C168.63 89.3265 168.177 89.4198 167.688 89.4198Z" fill="black"/>
<path d="M174.094 89.4198C173.472 89.4198 172.908 89.2732 172.401 88.9798C171.903 88.6865 171.508 88.2909 171.214 87.7932C170.93 87.2865 170.788 86.7265 170.788 86.1132C170.788 85.4909 170.93 84.9309 171.214 84.4332C171.508 83.9354 171.903 83.5443 172.401 83.2598C172.908 82.9665 173.472 82.8198 174.094 82.8198C174.583 82.8198 175.036 82.9132 175.454 83.0998C175.872 83.2776 176.232 83.5398 176.534 83.8865L175.734 84.6865C175.539 84.4554 175.299 84.2821 175.014 84.1665C174.739 84.0421 174.432 83.9798 174.094 83.9798C173.694 83.9798 173.339 84.0732 173.028 84.2598C172.716 84.4376 172.472 84.6865 172.294 85.0065C172.116 85.3265 172.028 85.6954 172.028 86.1132C172.028 86.5309 172.116 86.8998 172.294 87.2198C172.472 87.5398 172.716 87.7932 173.028 87.9798C173.339 88.1665 173.694 88.2598 174.094 88.2598C174.432 88.2598 174.739 88.2021 175.014 88.0865C175.299 87.9621 175.543 87.7843 175.748 87.5532L176.534 88.3532C176.241 88.691 175.881 88.9532 175.454 89.1398C175.036 89.3265 174.583 89.4198 174.094 89.4198Z" fill="black"/>
<path d="M180.54 89.4198C179.909 89.4198 179.34 89.2776 178.834 88.9932C178.327 88.6998 177.927 88.3043 177.634 87.8065C177.34 87.3087 177.194 86.7443 177.194 86.1132C177.194 85.4909 177.336 84.9309 177.62 84.4332C177.914 83.9354 178.305 83.5443 178.794 83.2598C179.292 82.9665 179.847 82.8198 180.46 82.8198C181.047 82.8198 181.563 82.9532 182.007 83.2198C182.46 83.4865 182.812 83.8554 183.06 84.3265C183.318 84.7976 183.447 85.331 183.447 85.9265C183.447 86.0154 183.443 86.1132 183.434 86.2198C183.425 86.3176 183.407 86.4332 183.38 86.5665H178.034V85.5665H182.74L182.3 85.9532C182.3 85.5265 182.225 85.1665 182.074 84.8732C181.923 84.571 181.709 84.3398 181.434 84.1798C181.158 84.0109 180.825 83.9265 180.434 83.9265C180.025 83.9265 179.665 84.0154 179.354 84.1932C179.043 84.371 178.803 84.6198 178.634 84.9398C178.465 85.2598 178.38 85.6376 178.38 86.0732C178.38 86.5176 178.469 86.9087 178.647 87.2465C178.825 87.5754 179.078 87.8332 179.407 88.0198C179.736 88.1976 180.114 88.2865 180.54 88.2865C180.896 88.2865 181.22 88.2243 181.514 88.0998C181.816 87.9754 182.074 87.7887 182.287 87.5398L183.06 88.3265C182.758 88.6821 182.385 88.9532 181.94 89.1398C181.505 89.3265 181.038 89.4198 180.54 89.4198Z" fill="black"/>
<path d="M186.769 89.4198C186.413 89.4198 186.076 89.3754 185.756 89.2865C185.444 89.1887 185.156 89.0554 184.889 88.8865C184.622 88.7087 184.391 88.4998 184.196 88.2598L184.969 87.4865C185.2 87.7709 185.467 87.9843 185.769 88.1265C186.071 88.2598 186.409 88.3265 186.782 88.3265C187.156 88.3265 187.444 88.2643 187.649 88.1398C187.853 88.0065 187.956 87.8243 187.956 87.5932C187.956 87.3621 187.871 87.1843 187.702 87.0598C187.542 86.9265 187.333 86.8198 187.076 86.7398C186.818 86.6509 186.542 86.5665 186.249 86.4865C185.964 86.3976 185.693 86.2865 185.436 86.1532C185.178 86.0198 184.964 85.8376 184.796 85.6065C184.636 85.3754 184.556 85.0687 184.556 84.6865C184.556 84.3043 184.649 83.9754 184.836 83.6998C185.022 83.4154 185.28 83.1976 185.609 83.0465C185.947 82.8954 186.351 82.8198 186.822 82.8198C187.32 82.8198 187.76 82.9087 188.142 83.0865C188.533 83.2554 188.853 83.5132 189.102 83.8598L188.329 84.6332C188.151 84.4021 187.929 84.2243 187.662 84.0998C187.404 83.9754 187.111 83.9132 186.782 83.9132C186.436 83.9132 186.169 83.9754 185.982 84.0998C185.804 84.2154 185.716 84.3798 185.716 84.5932C185.716 84.8065 185.796 84.971 185.956 85.0865C186.116 85.2021 186.324 85.2998 186.582 85.3798C186.849 85.4598 187.124 85.5443 187.409 85.6332C187.693 85.7132 187.964 85.8243 188.222 85.9665C188.48 86.1087 188.689 86.2998 188.849 86.5398C189.018 86.7798 189.102 87.0954 189.102 87.4865C189.102 88.0821 188.889 88.5532 188.462 88.8998C188.044 89.2465 187.48 89.4198 186.769 89.4198Z" fill="black"/>
<path d="M192.459 89.4198C192.103 89.4198 191.766 89.3754 191.446 89.2865C191.135 89.1887 190.846 89.0554 190.579 88.8865C190.312 88.7087 190.081 88.4998 189.886 88.2598L190.659 87.4865C190.89 87.7709 191.157 87.9843 191.459 88.1265C191.761 88.2598 192.099 88.3265 192.472 88.3265C192.846 88.3265 193.135 88.2643 193.339 88.1398C193.543 88.0065 193.646 87.8243 193.646 87.5932C193.646 87.3621 193.561 87.1843 193.392 87.0598C193.232 86.9265 193.023 86.8198 192.766 86.7398C192.508 86.6509 192.232 86.5665 191.939 86.4865C191.655 86.3976 191.383 86.2865 191.126 86.1532C190.868 86.0198 190.655 85.8376 190.486 85.6065C190.326 85.3754 190.246 85.0687 190.246 84.6865C190.246 84.3043 190.339 83.9754 190.526 83.6998C190.712 83.4154 190.97 83.1976 191.299 83.0465C191.637 82.8954 192.041 82.8198 192.512 82.8198C193.01 82.8198 193.45 82.9087 193.832 83.0865C194.223 83.2554 194.543 83.5132 194.792 83.8598L194.019 84.6332C193.841 84.4021 193.619 84.2243 193.352 84.0998C193.095 83.9754 192.801 83.9132 192.472 83.9132C192.126 83.9132 191.859 83.9754 191.672 84.0998C191.495 84.2154 191.406 84.3798 191.406 84.5932C191.406 84.8065 191.486 84.971 191.646 85.0865C191.806 85.2021 192.015 85.2998 192.272 85.3798C192.539 85.4598 192.815 85.5443 193.099 85.6332C193.383 85.7132 193.655 85.8243 193.912 85.9665C194.17 86.1087 194.379 86.2998 194.539 86.5398C194.708 86.7798 194.792 87.0954 194.792 87.4865C194.792 88.0821 194.579 88.5532 194.152 88.8998C193.735 89.2465 193.17 89.4198 192.459 89.4198Z" fill="black"/>
<path d="M201.803 89.4198C201.18 89.4198 200.616 89.2732 200.109 88.9798C199.611 88.6865 199.216 88.2909 198.923 87.7932C198.638 87.2865 198.496 86.7265 198.496 86.1132C198.496 85.4909 198.638 84.9309 198.923 84.4332C199.216 83.9354 199.611 83.5443 200.109 83.2598C200.616 82.9665 201.18 82.8198 201.803 82.8198C202.291 82.8198 202.745 82.9132 203.163 83.0998C203.58 83.2776 203.94 83.5398 204.243 83.8865L203.443 84.6865C203.247 84.4554 203.007 84.2821 202.723 84.1665C202.447 84.0421 202.14 83.9798 201.803 83.9798C201.403 83.9798 201.047 84.0732 200.736 84.2598C200.425 84.4376 200.18 84.6865 200.003 85.0065C199.825 85.3265 199.736 85.6954 199.736 86.1132C199.736 86.5309 199.825 86.8998 200.003 87.2198C200.18 87.5398 200.425 87.7932 200.736 87.9798C201.047 88.1665 201.403 88.2598 201.803 88.2598C202.14 88.2598 202.447 88.2021 202.723 88.0865C203.007 87.9621 203.251 87.7843 203.456 87.5532L204.243 88.3532C203.949 88.691 203.589 88.9532 203.163 89.1398C202.745 89.3265 202.291 89.4198 201.803 89.4198Z" fill="black"/>
<path d="M208.209 89.4198C207.587 89.4198 207.027 89.2732 206.529 88.9798C206.031 88.6865 205.635 88.2909 205.342 87.7932C205.049 87.2865 204.902 86.7221 204.902 86.0998C204.902 85.4865 205.049 84.9354 205.342 84.4465C205.635 83.9487 206.031 83.5532 206.529 83.2598C207.027 82.9665 207.587 82.8198 208.209 82.8198C208.822 82.8198 209.378 82.9665 209.875 83.2598C210.382 83.5443 210.782 83.9354 211.075 84.4332C211.369 84.9309 211.515 85.4865 211.515 86.0998C211.515 86.7221 211.369 87.2865 211.075 87.7932C210.782 88.2909 210.382 88.6865 209.875 88.9798C209.378 89.2732 208.822 89.4198 208.209 89.4198ZM208.209 88.2598C208.609 88.2598 208.964 88.1665 209.275 87.9798C209.587 87.7932 209.831 87.5398 210.009 87.2198C210.187 86.8909 210.275 86.5176 210.275 86.0998C210.275 85.6909 210.182 85.3265 209.995 85.0065C209.818 84.6865 209.573 84.4376 209.262 84.2598C208.96 84.0732 208.609 83.9798 208.209 83.9798C207.809 83.9798 207.453 84.0732 207.142 84.2598C206.831 84.4376 206.587 84.6865 206.409 85.0065C206.231 85.3265 206.142 85.6909 206.142 86.0998C206.142 86.5176 206.231 86.8909 206.409 87.2198C206.587 87.5398 206.831 87.7932 207.142 87.9798C207.453 88.1665 207.809 88.2598 208.209 88.2598Z" fill="black"/>
<path d="M215.548 89.4198C214.961 89.4198 214.436 89.2776 213.974 88.9932C213.512 88.6998 213.143 88.3043 212.868 87.8065C212.601 87.3087 212.468 86.7487 212.468 86.1265C212.468 85.5043 212.601 84.9443 212.868 84.4465C213.143 83.9487 213.512 83.5532 213.974 83.2598C214.436 82.9665 214.961 82.8198 215.548 82.8198C216.019 82.8198 216.445 82.9221 216.828 83.1265C217.21 83.3221 217.516 83.5976 217.748 83.9532C217.988 84.2998 218.121 84.7043 218.148 85.1665V87.0732C218.121 87.5265 217.992 87.9309 217.761 88.2865C217.53 88.6421 217.223 88.9221 216.841 89.1265C216.459 89.3221 216.028 89.4198 215.548 89.4198ZM215.748 88.2865C216.148 88.2865 216.494 88.1932 216.788 88.0065C217.09 87.8198 217.325 87.5665 217.494 87.2465C217.663 86.9176 217.748 86.5443 217.748 86.1265C217.748 85.6909 217.659 85.3132 217.481 84.9932C217.312 84.6732 217.076 84.4198 216.774 84.2332C216.481 84.0465 216.134 83.9532 215.734 83.9532C215.334 83.9532 214.983 84.0465 214.681 84.2332C214.379 84.4198 214.139 84.6776 213.961 85.0065C213.792 85.3265 213.708 85.6954 213.708 86.1132C213.708 86.5398 213.792 86.9176 213.961 87.2465C214.139 87.5665 214.379 87.8198 214.681 88.0065C214.992 88.1932 215.348 88.2865 215.748 88.2865ZM218.881 89.2865H217.668V87.5798L217.894 86.0332L217.668 84.4998V79.7665H218.881V89.2865Z" fill="black"/>
<path d="M223.561 89.4198C222.93 89.4198 222.361 89.2776 221.855 88.9932C221.348 88.6998 220.948 88.3043 220.655 87.8065C220.361 87.3087 220.215 86.7443 220.215 86.1132C220.215 85.4909 220.357 84.9309 220.641 84.4332C220.935 83.9354 221.326 83.5443 221.815 83.2598C222.312 82.9665 222.868 82.8198 223.481 82.8198C224.068 82.8198 224.584 82.9532 225.028 83.2198C225.481 83.4865 225.832 83.8554 226.081 84.3265C226.339 84.7976 226.468 85.331 226.468 85.9265C226.468 86.0154 226.464 86.1132 226.455 86.2198C226.446 86.3176 226.428 86.4332 226.401 86.5665H221.055V85.5665H225.761L225.321 85.9532C225.321 85.5265 225.246 85.1665 225.095 84.8732C224.944 84.571 224.73 84.3398 224.455 84.1798C224.179 84.0109 223.846 83.9265 223.455 83.9265C223.046 83.9265 222.686 84.0154 222.375 84.1932C222.064 84.371 221.824 84.6198 221.655 84.9398C221.486 85.2598 221.401 85.6376 221.401 86.0732C221.401 86.5176 221.49 86.9087 221.668 87.2465C221.846 87.5754 222.099 87.8332 222.428 88.0198C222.757 88.1976 223.135 88.2865 223.561 88.2865C223.917 88.2865 224.241 88.2243 224.535 88.0998C224.837 87.9754 225.095 87.7887 225.308 87.5398L226.081 88.3265C225.779 88.6821 225.406 88.9532 224.961 89.1398C224.526 89.3265 224.059 89.4198 223.561 89.4198Z" fill="black"/>
<path d="M231.523 89.2865V80.2998H232.723V89.2865H231.523ZM229.963 84.0465V82.9532H234.283V84.0465H229.963Z" fill="black"/>
<path d="M238.157 89.4198C237.535 89.4198 236.975 89.2732 236.477 88.9798C235.979 88.6865 235.583 88.2909 235.29 87.7932C234.997 87.2865 234.85 86.7221 234.85 86.0998C234.85 85.4865 234.997 84.9354 235.29 84.4465C235.583 83.9487 235.979 83.5532 236.477 83.2598C236.975 82.9665 237.535 82.8198 238.157 82.8198C238.77 82.8198 239.326 82.9665 239.823 83.2598C240.33 83.5443 240.73 83.9354 241.023 84.4332C241.317 84.9309 241.463 85.4865 241.463 86.0998C241.463 86.7221 241.317 87.2865 241.023 87.7932C240.73 88.2909 240.33 88.6865 239.823 88.9798C239.326 89.2732 238.77 89.4198 238.157 89.4198ZM238.157 88.2598C238.557 88.2598 238.912 88.1665 239.223 87.9798C239.535 87.7932 239.779 87.5398 239.957 87.2198C240.135 86.8909 240.223 86.5176 240.223 86.0998C240.223 85.6909 240.13 85.3265 239.943 85.0065C239.766 84.6865 239.521 84.4376 239.21 84.2598C238.908 84.0732 238.557 83.9798 238.157 83.9798C237.757 83.9798 237.401 84.0732 237.09 84.2598C236.779 84.4376 236.534 84.6865 236.357 85.0065C236.179 85.3265 236.09 85.6909 236.09 86.0998C236.09 86.5176 236.179 86.8909 236.357 87.2198C236.534 87.5398 236.779 87.7932 237.09 87.9798C237.401 88.1665 237.757 88.2598 238.157 88.2598Z" fill="black"/>
<path d="M97.7809 109.42C97.2032 109.42 96.6787 109.278 96.2076 108.993C95.7365 108.7 95.3632 108.304 95.0876 107.807C94.8209 107.309 94.6876 106.749 94.6876 106.127C94.6876 105.504 94.8209 104.944 95.0876 104.447C95.3632 103.949 95.7321 103.553 96.1943 103.26C96.6654 102.967 97.1943 102.82 97.7809 102.82C98.2609 102.82 98.6876 102.922 99.0609 103.127C99.4432 103.322 99.7498 103.598 99.9809 103.953C100.212 104.3 100.341 104.704 100.368 105.167V107.073C100.341 107.527 100.212 107.931 99.9809 108.287C99.7587 108.642 99.4565 108.922 99.0743 109.127C98.7009 109.322 98.2698 109.42 97.7809 109.42ZM97.9809 108.287C98.5765 108.287 99.0565 108.087 99.4209 107.687C99.7854 107.278 99.9676 106.758 99.9676 106.127C99.9676 105.691 99.8832 105.313 99.7143 104.993C99.5543 104.664 99.3232 104.411 99.0209 104.233C98.7187 104.047 98.3676 103.953 97.9676 103.953C97.5676 103.953 97.2121 104.047 96.9009 104.233C96.5987 104.42 96.3587 104.678 96.1809 105.007C96.012 105.327 95.9276 105.695 95.9276 106.113C95.9276 106.54 96.012 106.918 96.1809 107.247C96.3587 107.567 96.6032 107.82 96.9143 108.007C97.2254 108.193 97.5809 108.287 97.9809 108.287ZM99.8876 109.287V107.58L100.114 106.033L99.8876 104.5V102.953H101.101V109.287H99.8876Z" fill="black"/>
<path d="M105.741 109.42C105.119 109.42 104.555 109.273 104.048 108.98C103.55 108.687 103.155 108.291 102.861 107.793C102.577 107.287 102.435 106.727 102.435 106.113C102.435 105.491 102.577 104.931 102.861 104.433C103.155 103.935 103.55 103.544 104.048 103.26C104.555 102.967 105.119 102.82 105.741 102.82C106.23 102.82 106.684 102.913 107.101 103.1C107.519 103.278 107.879 103.54 108.181 103.887L107.381 104.687C107.186 104.455 106.946 104.282 106.661 104.167C106.386 104.042 106.079 103.98 105.741 103.98C105.341 103.98 104.986 104.073 104.675 104.26C104.364 104.438 104.119 104.687 103.941 105.007C103.764 105.327 103.675 105.695 103.675 106.113C103.675 106.531 103.764 106.9 103.941 107.22C104.119 107.54 104.364 107.793 104.675 107.98C104.986 108.167 105.341 108.26 105.741 108.26C106.079 108.26 106.386 108.202 106.661 108.087C106.946 107.962 107.19 107.784 107.395 107.553L108.181 108.353C107.888 108.691 107.528 108.953 107.101 109.14C106.684 109.327 106.23 109.42 105.741 109.42Z" fill="black"/>
<path d="M112.148 109.42C111.525 109.42 110.961 109.273 110.454 108.98C109.956 108.687 109.561 108.291 109.268 107.793C108.983 107.287 108.841 106.727 108.841 106.113C108.841 105.491 108.983 104.931 109.268 104.433C109.561 103.935 109.956 103.544 110.454 103.26C110.961 102.967 111.525 102.82 112.148 102.82C112.636 102.82 113.09 102.913 113.508 103.1C113.925 103.278 114.285 103.54 114.588 103.887L113.788 104.687C113.592 104.455 113.352 104.282 113.068 104.167C112.792 104.042 112.485 103.98 112.148 103.98C111.748 103.98 111.392 104.073 111.081 104.26C110.77 104.438 110.525 104.687 110.348 105.007C110.17 105.327 110.081 105.695 110.081 106.113C110.081 106.531 110.17 106.9 110.348 107.22C110.525 107.54 110.77 107.793 111.081 107.98C111.392 108.167 111.748 108.26 112.148 108.26C112.485 108.26 112.792 108.202 113.068 108.087C113.352 107.962 113.596 107.784 113.801 107.553L114.588 108.353C114.294 108.691 113.934 108.953 113.508 109.14C113.09 109.327 112.636 109.42 112.148 109.42Z" fill="black"/>
<path d="M118.594 109.42C117.963 109.42 117.394 109.278 116.887 108.993C116.381 108.7 115.981 108.304 115.687 107.807C115.394 107.309 115.247 106.744 115.247 106.113C115.247 105.491 115.389 104.931 115.674 104.433C115.967 103.935 116.358 103.544 116.847 103.26C117.345 102.967 117.901 102.82 118.514 102.82C119.101 102.82 119.616 102.953 120.061 103.22C120.514 103.487 120.865 103.855 121.114 104.327C121.372 104.798 121.501 105.331 121.501 105.927C121.501 106.015 121.496 106.113 121.487 106.22C121.478 106.318 121.461 106.433 121.434 106.567H116.087V105.567H120.794L120.354 105.953C120.354 105.527 120.278 105.167 120.127 104.873C119.976 104.571 119.763 104.34 119.487 104.18C119.212 104.011 118.878 103.927 118.487 103.927C118.078 103.927 117.718 104.015 117.407 104.193C117.096 104.371 116.856 104.62 116.687 104.94C116.518 105.26 116.434 105.638 116.434 106.073C116.434 106.518 116.523 106.909 116.701 107.247C116.878 107.575 117.132 107.833 117.461 108.02C117.789 108.198 118.167 108.287 118.594 108.287C118.949 108.287 119.274 108.224 119.567 108.1C119.869 107.975 120.127 107.789 120.341 107.54L121.114 108.327C120.812 108.682 120.438 108.953 119.994 109.14C119.558 109.327 119.092 109.42 118.594 109.42Z" fill="black"/>
<path d="M124.822 109.42C124.467 109.42 124.129 109.375 123.809 109.287C123.498 109.189 123.209 109.055 122.942 108.887C122.676 108.709 122.445 108.5 122.249 108.26L123.022 107.487C123.253 107.771 123.52 107.984 123.822 108.127C124.125 108.26 124.462 108.327 124.836 108.327C125.209 108.327 125.498 108.264 125.702 108.14C125.907 108.007 126.009 107.824 126.009 107.593C126.009 107.362 125.925 107.184 125.756 107.06C125.596 106.927 125.387 106.82 125.129 106.74C124.871 106.651 124.596 106.567 124.302 106.487C124.018 106.398 123.747 106.287 123.489 106.153C123.231 106.02 123.018 105.838 122.849 105.607C122.689 105.375 122.609 105.069 122.609 104.687C122.609 104.304 122.702 103.975 122.889 103.7C123.076 103.415 123.333 103.198 123.662 103.047C124 102.895 124.405 102.82 124.876 102.82C125.373 102.82 125.813 102.909 126.196 103.087C126.587 103.255 126.907 103.513 127.156 103.86L126.382 104.633C126.205 104.402 125.982 104.224 125.716 104.1C125.458 103.975 125.165 103.913 124.836 103.913C124.489 103.913 124.222 103.975 124.036 104.1C123.858 104.215 123.769 104.38 123.769 104.593C123.769 104.807 123.849 104.971 124.009 105.087C124.169 105.202 124.378 105.3 124.636 105.38C124.902 105.46 125.178 105.544 125.462 105.633C125.747 105.713 126.018 105.824 126.276 105.967C126.533 106.109 126.742 106.3 126.902 106.54C127.071 106.78 127.156 107.095 127.156 107.487C127.156 108.082 126.942 108.553 126.516 108.9C126.098 109.247 125.533 109.42 124.822 109.42Z" fill="black"/>
<path d="M130.512 109.42C130.157 109.42 129.819 109.375 129.499 109.287C129.188 109.189 128.899 109.055 128.632 108.887C128.366 108.709 128.135 108.5 127.939 108.26L128.712 107.487C128.944 107.771 129.21 107.984 129.512 108.127C129.815 108.26 130.152 108.327 130.526 108.327C130.899 108.327 131.188 108.264 131.392 108.14C131.597 108.007 131.699 107.824 131.699 107.593C131.699 107.362 131.615 107.184 131.446 107.06C131.286 106.927 131.077 106.82 130.819 106.74C130.561 106.651 130.286 106.567 129.992 106.487C129.708 106.398 129.437 106.287 129.179 106.153C128.921 106.02 128.708 105.838 128.539 105.607C128.379 105.375 128.299 105.069 128.299 104.687C128.299 104.304 128.392 103.975 128.579 103.7C128.766 103.415 129.024 103.198 129.352 103.047C129.69 102.895 130.095 102.82 130.566 102.82C131.064 102.82 131.504 102.909 131.886 103.087C132.277 103.255 132.597 103.513 132.846 103.86L132.072 104.633C131.895 104.402 131.672 104.224 131.406 104.1C131.148 103.975 130.855 103.913 130.526 103.913C130.179 103.913 129.912 103.975 129.726 104.1C129.548 104.215 129.459 104.38 129.459 104.593C129.459 104.807 129.539 104.971 129.699 105.087C129.859 105.202 130.068 105.3 130.326 105.38C130.592 105.46 130.868 105.544 131.152 105.633C131.437 105.713 131.708 105.824 131.966 105.967C132.224 106.109 132.432 106.3 132.592 106.54C132.761 106.78 132.846 107.095 132.846 107.487C132.846 108.082 132.632 108.553 132.206 108.9C131.788 109.247 131.224 109.42 130.512 109.42Z" fill="black"/>
<path d="M139.043 109.34L136.296 102.953H137.629L139.669 107.953H139.243L141.389 102.953H142.723L139.763 109.34H139.043ZM137.229 111.94L139.096 108.113L139.763 109.34L138.563 111.94H137.229Z" fill="black"/>
<path d="M146.353 109.42C145.731 109.42 145.171 109.273 144.673 108.98C144.176 108.687 143.78 108.291 143.487 107.793C143.193 107.287 143.047 106.722 143.047 106.1C143.047 105.487 143.193 104.935 143.487 104.447C143.78 103.949 144.176 103.553 144.673 103.26C145.171 102.967 145.731 102.82 146.353 102.82C146.967 102.82 147.522 102.967 148.02 103.26C148.527 103.544 148.927 103.935 149.22 104.433C149.513 104.931 149.66 105.487 149.66 106.1C149.66 106.722 149.513 107.287 149.22 107.793C148.927 108.291 148.527 108.687 148.02 108.98C147.522 109.273 146.967 109.42 146.353 109.42ZM146.353 108.26C146.753 108.26 147.109 108.167 147.42 107.98C147.731 107.793 147.976 107.54 148.153 107.22C148.331 106.891 148.42 106.518 148.42 106.1C148.42 105.691 148.327 105.327 148.14 105.007C147.962 104.687 147.718 104.438 147.407 104.26C147.104 104.073 146.753 103.98 146.353 103.98C145.953 103.98 145.598 104.073 145.287 104.26C144.976 104.438 144.731 104.687 144.553 105.007C144.376 105.327 144.287 105.691 144.287 106.1C144.287 106.518 144.376 106.891 144.553 107.22C144.731 107.54 144.976 107.793 145.287 107.98C145.598 108.167 145.953 108.26 146.353 108.26Z" fill="black"/>
<path d="M153.572 109.42C153.048 109.42 152.577 109.304 152.159 109.073C151.75 108.833 151.43 108.504 151.199 108.087C150.968 107.669 150.852 107.184 150.852 106.633V102.953H152.052V106.58C152.052 106.927 152.11 107.229 152.225 107.487C152.35 107.735 152.528 107.927 152.759 108.06C152.99 108.193 153.261 108.26 153.572 108.26C154.043 108.26 154.412 108.113 154.679 107.82C154.945 107.518 155.079 107.104 155.079 106.58V102.953H156.279V106.633C156.279 107.184 156.163 107.669 155.932 108.087C155.701 108.504 155.381 108.833 154.972 109.073C154.572 109.304 154.105 109.42 153.572 109.42Z" fill="black"/>
<path d="M157.887 109.287V102.953H159.087V109.287H157.887ZM159.087 105.673L158.634 105.473C158.634 104.664 158.82 104.02 159.194 103.54C159.567 103.06 160.105 102.82 160.807 102.82C161.127 102.82 161.416 102.878 161.674 102.993C161.932 103.1 162.172 103.282 162.394 103.54L161.607 104.353C161.474 104.211 161.327 104.109 161.167 104.047C161.007 103.984 160.82 103.953 160.607 103.953C160.163 103.953 159.798 104.095 159.514 104.38C159.229 104.664 159.087 105.095 159.087 105.673Z" fill="black"/>
<path d="M166.46 109.287V100.033H167.713V109.287H166.46ZM167.313 109.287V108.14H172.273V109.287H167.313Z" fill="black"/>
<path d="M173.817 109.287V100.033H174.697L178.617 106.473H178.017L181.937 100.033H182.817V109.287H181.563V102.233L181.857 102.313L178.763 107.393H177.883L174.79 102.313L175.07 102.233V109.287H173.817Z" fill="black"/>
<path d="M185.001 109.287V100.033H185.881L186.255 101.487V109.287H185.001ZM191.401 109.287L185.721 101.7L185.881 100.033L191.575 107.607L191.401 109.287ZM191.401 109.287L191.028 107.913V100.033H192.281V109.287H191.401Z" fill="black"/>
<path d="M195.308 109.42C195.059 109.42 194.85 109.335 194.681 109.167C194.521 108.989 194.441 108.78 194.441 108.54C194.441 108.291 194.521 108.087 194.681 107.927C194.85 107.758 195.059 107.673 195.308 107.673C195.556 107.673 195.761 107.758 195.921 107.927C196.09 108.087 196.174 108.291 196.174 108.54C196.174 108.78 196.09 108.989 195.921 109.167C195.761 109.335 195.556 109.42 195.308 109.42Z" fill="black"/>
<rect x="58" y="131.94" width="175" height="40" rx="20" fill="#84EF84"/>
<path d="M101.333 156.94V155.327H103.719C104.324 155.327 104.853 155.202 105.306 154.953C105.759 154.695 106.111 154.335 106.359 153.873C106.617 153.411 106.746 152.864 106.746 152.233C106.746 151.62 106.617 151.087 106.359 150.633C106.102 150.171 105.746 149.815 105.293 149.567C104.839 149.309 104.315 149.18 103.719 149.18H101.293V147.567H103.746C104.439 147.567 105.079 147.682 105.666 147.913C106.262 148.144 106.777 148.473 107.213 148.9C107.657 149.318 107.999 149.811 108.239 150.38C108.488 150.949 108.613 151.571 108.613 152.247C108.613 152.922 108.488 153.549 108.239 154.127C107.999 154.695 107.662 155.193 107.226 155.62C106.791 156.038 106.275 156.362 105.679 156.593C105.093 156.824 104.457 156.94 103.773 156.94H101.333ZM100.093 156.94V147.567H101.906V156.94H100.093ZM112.894 157.073C112.245 157.073 111.658 156.927 111.134 156.633C110.618 156.331 110.205 155.927 109.894 155.42C109.592 154.904 109.44 154.331 109.44 153.7C109.44 153.069 109.592 152.504 109.894 152.007C110.196 151.5 110.609 151.1 111.134 150.807C111.658 150.504 112.24 150.353 112.88 150.353C113.538 150.353 114.125 150.504 114.64 150.807C115.165 151.1 115.578 151.5 115.88 152.007C116.183 152.504 116.334 153.069 116.334 153.7C116.334 154.331 116.183 154.904 115.88 155.42C115.578 155.927 115.165 156.331 114.64 156.633C114.125 156.927 113.543 157.073 112.894 157.073ZM112.88 155.447C113.209 155.447 113.498 155.375 113.747 155.233C114.005 155.082 114.2 154.878 114.334 154.62C114.476 154.353 114.547 154.051 114.547 153.713C114.547 153.375 114.476 153.078 114.334 152.82C114.192 152.562 113.996 152.362 113.747 152.22C113.498 152.069 113.209 151.993 112.88 151.993C112.56 151.993 112.276 152.069 112.027 152.22C111.778 152.362 111.583 152.562 111.44 152.82C111.298 153.078 111.227 153.375 111.227 153.713C111.227 154.051 111.298 154.353 111.44 154.62C111.583 154.878 111.778 155.082 112.027 155.233C112.276 155.375 112.56 155.447 112.88 155.447ZM119.035 156.94L116.622 150.5H118.382L119.955 155.18L119.422 155.193L121.035 150.5H122.302L123.915 155.193L123.382 155.18L124.955 150.5H126.715L124.315 156.94H123.048L121.422 152.487H121.915L120.288 156.94H119.035ZM131.896 156.94V153.247C131.896 152.864 131.776 152.553 131.536 152.313C131.296 152.073 130.985 151.953 130.602 151.953C130.354 151.953 130.131 152.007 129.936 152.113C129.74 152.22 129.585 152.371 129.469 152.567C129.362 152.762 129.309 152.989 129.309 153.247L128.629 152.9C128.629 152.393 128.736 151.953 128.949 151.58C129.171 151.198 129.474 150.9 129.856 150.687C130.247 150.473 130.687 150.367 131.176 150.367C131.647 150.367 132.069 150.487 132.442 150.727C132.816 150.958 133.109 151.264 133.322 151.647C133.536 152.02 133.642 152.424 133.642 152.86V156.94H131.896ZM127.562 156.94V150.5H129.309V156.94H127.562ZM135.049 156.94V147.3H136.796V156.94H135.049ZM141.37 157.073C140.721 157.073 140.135 156.927 139.61 156.633C139.095 156.331 138.681 155.927 138.37 155.42C138.068 154.904 137.917 154.331 137.917 153.7C137.917 153.069 138.068 152.504 138.37 152.007C138.673 151.5 139.086 151.1 139.61 150.807C140.135 150.504 140.717 150.353 141.357 150.353C142.015 150.353 142.601 150.504 143.117 150.807C143.641 151.1 144.055 151.5 144.357 152.007C144.659 152.504 144.81 153.069 144.81 153.7C144.81 154.331 144.659 154.904 144.357 155.42C144.055 155.927 143.641 156.331 143.117 156.633C142.601 156.927 142.019 157.073 141.37 157.073ZM141.357 155.447C141.686 155.447 141.975 155.375 142.224 155.233C142.481 155.082 142.677 154.878 142.81 154.62C142.953 154.353 143.024 154.051 143.024 153.713C143.024 153.375 142.953 153.078 142.81 152.82C142.668 152.562 142.473 152.362 142.224 152.22C141.975 152.069 141.686 151.993 141.357 151.993C141.037 151.993 140.753 152.069 140.504 152.22C140.255 152.362 140.059 152.562 139.917 152.82C139.775 153.078 139.704 153.375 139.704 153.713C139.704 154.051 139.775 154.353 139.917 154.62C140.059 154.878 140.255 155.082 140.504 155.233C140.753 155.375 141.037 155.447 141.357 155.447ZM148.628 157.073C148.041 157.073 147.513 156.927 147.041 156.633C146.57 156.34 146.201 155.94 145.935 155.433C145.668 154.927 145.535 154.358 145.535 153.727C145.535 153.087 145.668 152.513 145.935 152.007C146.201 151.5 146.57 151.1 147.041 150.807C147.513 150.513 148.041 150.367 148.628 150.367C149.09 150.367 149.504 150.46 149.868 150.647C150.233 150.833 150.521 151.095 150.735 151.433C150.957 151.762 151.077 152.135 151.095 152.553V154.873C151.077 155.3 150.957 155.678 150.735 156.007C150.521 156.335 150.233 156.598 149.868 156.793C149.504 156.98 149.09 157.073 148.628 157.073ZM148.948 155.46C149.437 155.46 149.833 155.3 150.135 154.98C150.437 154.651 150.588 154.229 150.588 153.713C150.588 153.375 150.517 153.078 150.375 152.82C150.241 152.553 150.05 152.349 149.801 152.207C149.561 152.055 149.277 151.98 148.948 151.98C148.628 151.98 148.344 152.055 148.095 152.207C147.855 152.349 147.664 152.553 147.521 152.82C147.388 153.078 147.321 153.375 147.321 153.713C147.321 154.06 147.388 154.367 147.521 154.633C147.664 154.891 147.855 155.095 148.095 155.247C148.344 155.389 148.628 155.46 148.948 155.46ZM150.495 156.94V155.207L150.775 153.633L150.495 152.087V150.5H152.228V156.94H150.495ZM156.493 157.073C155.898 157.073 155.364 156.927 154.893 156.633C154.422 156.34 154.049 155.94 153.773 155.433C153.507 154.927 153.373 154.358 153.373 153.727C153.373 153.087 153.507 152.513 153.773 152.007C154.049 151.5 154.418 151.1 154.88 150.807C155.351 150.513 155.889 150.367 156.493 150.367C156.956 150.367 157.369 150.46 157.733 150.647C158.107 150.833 158.404 151.095 158.627 151.433C158.858 151.762 158.982 152.135 159 152.553V154.847C158.982 155.264 158.862 155.642 158.64 155.98C158.418 156.318 158.12 156.584 157.747 156.78C157.373 156.975 156.956 157.073 156.493 157.073ZM156.787 155.46C157.116 155.46 157.4 155.389 157.64 155.247C157.889 155.095 158.08 154.891 158.213 154.633C158.356 154.367 158.427 154.06 158.427 153.713C158.427 153.375 158.356 153.078 158.213 152.82C158.08 152.553 157.889 152.349 157.64 152.207C157.4 152.055 157.12 151.98 156.8 151.98C156.471 151.98 156.182 152.055 155.933 152.207C155.693 152.358 155.502 152.562 155.36 152.82C155.227 153.078 155.16 153.375 155.16 153.713C155.16 154.06 155.227 154.367 155.36 154.633C155.502 154.891 155.698 155.095 155.947 155.247C156.196 155.389 156.476 155.46 156.787 155.46ZM160.067 156.94H158.333V155.207L158.613 153.633L158.32 152.087V147.3H160.067V156.94ZM164.403 156.94V147.567H166.216V156.94H164.403ZM165.736 156.94V155.327H170.509V156.94H165.736ZM171.812 156.94V147.567H173.092L176.892 153.647H176.158L179.945 147.567H181.225V156.94H179.425V150.673L179.772 150.78L177.132 155.02H175.905L173.265 150.78L173.625 150.673V156.94H171.812ZM183.14 156.94V147.567H184.406L184.953 149.38V156.94H183.14ZM189.62 156.94L184.06 149.74L184.406 147.567L189.966 154.767L189.62 156.94ZM189.62 156.94L189.1 155.18V147.567H190.926V156.94H189.62Z" fill="black"/>
</svg>
