<?xml version="1.0" encoding="utf-8"?>
<!-- Generator: Adobe Illustrator 27.7.0, SVG Export Plug-In . SVG Version: 6.00 Build 0)  -->
<svg version="1.1" id="Layer_1" xmlns="http://www.w3.org/2000/svg" xmlns:xlink="http://www.w3.org/1999/xlink" x="0px" y="0px"
	 viewBox="0 0 34 30" style="enable-background:new 0 0 34 30;" xml:space="preserve">
<style type="text/css">
	.st0{fill:#015844;}
</style>
<path class="st0" d="M0.5,22.6v2.1c0,2.9,2.3,5.1,5.1,5.1h16.8c-1.3-1.4-2-3.1-2-5.1v-2.1H0.5z"/>
<path class="st0" d="M11.4,0.7v19.4h10.4c0.8,0,1.3,0.6,1.3,1.3v3.4c0,2.9,2.3,5.1,5.1,5.1s5.1-2.3,5.1-5.1v-24L11.4,0.7L11.4,0.7z
	 M30.3,13.3H19.7v-2.6h10.6C30.3,10.7,30.3,13.3,30.3,13.3z M30.3,8H14.4V5.3h16V8H30.3z"/>
</svg>
