<?xml version="1.0" encoding="utf-8"?>
<!-- Generator: Adobe Illustrator 27.7.0, SVG Export Plug-In . SVG Version: 6.00 Build 0)  -->
<svg version="1.1" id="Layer_1" xmlns="http://www.w3.org/2000/svg" xmlns:xlink="http://www.w3.org/1999/xlink" x="0px" y="0px"
	 viewBox="0 0 34 34" style="enable-background:new 0 0 34 34;" xml:space="preserve">
<style type="text/css">
	.st0{fill:#015844;}
</style>
<path class="st0" d="M17.3,0.5C8.2,0.5,0.7,7.9,0.7,17.2c0,9.1,7.4,16.7,16.6,16.7c9.1,0,16.6-7.4,16.6-16.7
	C34,7.9,26.4,0.5,17.3,0.5z M25.8,13.2L15.4,23.6c-0.3,0.3-0.5,0.3-0.8,0.3s-0.5-0.1-0.8-0.3l-5.3-5.3c-0.4-0.4-0.4-1.1,0-1.5
	s1.1-0.4,1.5,0l4.5,4.5l9.6-9.6c0.4-0.4,1.1-0.4,1.5,0C26.3,12,26.3,12.7,25.8,13.2z"/>
</svg>
