<svg width="563" height="354" viewBox="0 0 563 354" fill="none" xmlns="http://www.w3.org/2000/svg">
<g clip-path="url(#clip0_381_274)">
<rect width="563" height="60" fill="#222222"/>
<path d="M35.1223 37.18C34.1023 37.18 33.2263 37.006 32.4943 36.658C31.7743 36.31 31.1203 35.788 30.5323 35.092L32.1523 33.472C32.5243 33.964 32.9563 34.348 33.4483 34.624C33.9403 34.888 34.5403 35.02 35.2483 35.02C35.8843 35.02 36.3883 34.894 36.7603 34.642C37.1443 34.39 37.3363 34.042 37.3363 33.598C37.3363 33.214 37.2283 32.902 37.0123 32.662C36.7963 32.422 36.5083 32.218 36.1483 32.05C35.8003 31.882 35.4103 31.732 34.9783 31.6C34.5583 31.456 34.1323 31.294 33.7003 31.114C33.2803 30.934 32.8903 30.712 32.5303 30.448C32.1823 30.172 31.9003 29.824 31.6843 29.404C31.4683 28.972 31.3603 28.432 31.3603 27.784C31.3603 27.016 31.5463 26.362 31.9183 25.822C32.2903 25.282 32.8003 24.868 33.4483 24.58C34.0963 24.292 34.8283 24.148 35.6443 24.148C36.5083 24.148 37.2883 24.31 37.9843 24.634C38.6803 24.958 39.2503 25.378 39.6943 25.894L38.0743 27.514C37.7023 27.106 37.3183 26.806 36.9223 26.614C36.5383 26.422 36.1003 26.326 35.6083 26.326C35.0443 26.326 34.6003 26.434 34.2763 26.65C33.9523 26.866 33.7903 27.178 33.7903 27.586C33.7903 27.934 33.8983 28.216 34.1143 28.432C34.3303 28.648 34.6123 28.834 34.9603 28.99C35.3203 29.146 35.7103 29.296 36.1303 29.44C36.5623 29.584 36.9883 29.746 37.4083 29.926C37.8403 30.106 38.2303 30.34 38.5783 30.628C38.9383 30.916 39.2263 31.288 39.4423 31.744C39.6583 32.188 39.7663 32.74 39.7663 33.4C39.7663 34.576 39.3523 35.5 38.5243 36.172C37.6963 36.844 36.5623 37.18 35.1223 37.18ZM45.534 37.18C44.622 37.18 43.812 36.988 43.104 36.604C42.396 36.208 41.832 35.668 41.412 34.984C41.004 34.3 40.8 33.52 40.8 32.644C40.8 31.78 40.998 31.012 41.394 30.34C41.802 29.656 42.354 29.116 43.05 28.72C43.746 28.312 44.52 28.108 45.372 28.108C46.212 28.108 46.95 28.3 47.586 28.684C48.234 29.056 48.738 29.572 49.098 30.232C49.47 30.88 49.656 31.618 49.656 32.446C49.656 32.602 49.644 32.764 49.62 32.932C49.608 33.088 49.578 33.268 49.53 33.472L42.222 33.49V31.726L48.432 31.708L47.478 32.446C47.454 31.93 47.358 31.498 47.19 31.15C47.034 30.802 46.8 30.538 46.488 30.358C46.188 30.166 45.816 30.07 45.372 30.07C44.904 30.07 44.496 30.178 44.148 30.394C43.8 30.598 43.53 30.892 43.338 31.276C43.158 31.648 43.068 32.092 43.068 32.608C43.068 33.136 43.164 33.598 43.356 33.994C43.56 34.378 43.848 34.678 44.22 34.894C44.592 35.098 45.024 35.2 45.516 35.2C45.96 35.2 46.362 35.128 46.722 34.984C47.082 34.828 47.394 34.6 47.658 34.3L49.044 35.686C48.624 36.178 48.108 36.55 47.496 36.802C46.896 37.054 46.242 37.18 45.534 37.18ZM51.1143 37V23.986H53.4723V37H51.1143ZM59.7196 37.18C58.8076 37.18 57.9976 36.988 57.2896 36.604C56.5816 36.208 56.0176 35.668 55.5976 34.984C55.1896 34.3 54.9856 33.52 54.9856 32.644C54.9856 31.78 55.1836 31.012 55.5796 30.34C55.9876 29.656 56.5396 29.116 57.2356 28.72C57.9316 28.312 58.7056 28.108 59.5576 28.108C60.3976 28.108 61.1356 28.3 61.7716 28.684C62.4196 29.056 62.9236 29.572 63.2836 30.232C63.6556 30.88 63.8416 31.618 63.8416 32.446C63.8416 32.602 63.8296 32.764 63.8056 32.932C63.7936 33.088 63.7636 33.268 63.7156 33.472L56.4076 33.49V31.726L62.6176 31.708L61.6636 32.446C61.6396 31.93 61.5436 31.498 61.3756 31.15C61.2196 30.802 60.9856 30.538 60.6736 30.358C60.3736 30.166 60.0016 30.07 59.5576 30.07C59.0896 30.07 58.6816 30.178 58.3336 30.394C57.9856 30.598 57.7156 30.892 57.5236 31.276C57.3436 31.648 57.2536 32.092 57.2536 32.608C57.2536 33.136 57.3496 33.598 57.5416 33.994C57.7456 34.378 58.0336 34.678 58.4056 34.894C58.7776 35.098 59.2096 35.2 59.7016 35.2C60.1456 35.2 60.5476 35.128 60.9076 34.984C61.2676 34.828 61.5796 34.6 61.8436 34.3L63.2296 35.686C62.8096 36.178 62.2936 36.55 61.6816 36.802C61.0816 37.054 60.4276 37.18 59.7196 37.18ZM69.4039 37.18C68.5159 37.18 67.7179 36.982 67.0099 36.586C66.3019 36.19 65.7439 35.65 65.3359 34.966C64.9279 34.282 64.7239 33.514 64.7239 32.662C64.7239 31.798 64.9279 31.024 65.3359 30.34C65.7439 29.656 66.3019 29.116 67.0099 28.72C67.7299 28.312 68.5279 28.108 69.4039 28.108C70.0879 28.108 70.7179 28.234 71.2939 28.486C71.8699 28.738 72.3679 29.098 72.7879 29.566L71.2759 31.096C71.0479 30.844 70.7719 30.652 70.4479 30.52C70.1359 30.388 69.7879 30.322 69.4039 30.322C68.9719 30.322 68.5819 30.424 68.2339 30.628C67.8979 30.82 67.6279 31.09 67.4239 31.438C67.2319 31.774 67.1359 32.176 67.1359 32.644C67.1359 33.1 67.2319 33.508 67.4239 33.868C67.6279 34.216 67.8979 34.492 68.2339 34.696C68.5819 34.888 68.9719 34.984 69.4039 34.984C69.7999 34.984 70.1539 34.918 70.4659 34.786C70.7899 34.642 71.0659 34.438 71.2939 34.174L72.8239 35.704C72.3799 36.184 71.8699 36.55 71.2939 36.802C70.7179 37.054 70.0879 37.18 69.4039 37.18ZM75.2966 37V24.688H77.6546V37H75.2966ZM73.2626 30.376V28.306H79.6886V30.376H73.2626ZM89.3543 37.18C88.7303 37.18 88.1663 37.054 87.6623 36.802C87.1583 36.538 86.7563 36.184 86.4563 35.74C86.1563 35.296 85.9943 34.786 85.9703 34.21V31.132C85.9943 30.556 86.1563 30.046 86.4563 29.602C86.7683 29.146 87.1703 28.786 87.6623 28.522C88.1663 28.258 88.7303 28.126 89.3543 28.126C90.1583 28.126 90.8783 28.324 91.5143 28.72C92.1503 29.116 92.6483 29.656 93.0083 30.34C93.3803 31.024 93.5663 31.798 93.5663 32.662C93.5663 33.514 93.3803 34.282 93.0083 34.966C92.6483 35.65 92.1503 36.19 91.5143 36.586C90.8783 36.982 90.1583 37.18 89.3543 37.18ZM88.9403 35.002C89.3723 35.002 89.7563 34.906 90.0923 34.714C90.4283 34.51 90.6863 34.234 90.8663 33.886C91.0583 33.526 91.1543 33.112 91.1543 32.644C91.1543 32.188 91.0583 31.786 90.8663 31.438C90.6863 31.078 90.4283 30.802 90.0923 30.61C89.7563 30.406 89.3723 30.304 88.9403 30.304C88.5203 30.304 88.1423 30.406 87.8063 30.61C87.4703 30.802 87.2063 31.078 87.0143 31.438C86.8343 31.786 86.7443 32.188 86.7443 32.644C86.7443 33.112 86.8343 33.526 87.0143 33.886C87.2063 34.234 87.4643 34.51 87.7883 34.714C88.1243 34.906 88.5083 35.002 88.9403 35.002ZM84.5303 40.636V28.306H86.8883V30.592L86.4923 32.698L86.8703 34.804V40.636H84.5303ZM98.7484 37.18C97.9564 37.18 97.2424 36.982 96.6064 36.586C95.9704 36.19 95.4724 35.65 95.1124 34.966C94.7524 34.282 94.5724 33.514 94.5724 32.662C94.5724 31.798 94.7524 31.024 95.1124 30.34C95.4724 29.656 95.9704 29.116 96.6064 28.72C97.2424 28.324 97.9564 28.126 98.7484 28.126C99.3724 28.126 99.9304 28.252 100.422 28.504C100.914 28.756 101.304 29.11 101.592 29.566C101.892 30.01 102.054 30.514 102.078 31.078V34.21C102.054 34.786 101.892 35.296 101.592 35.74C101.304 36.184 100.914 36.538 100.422 36.802C99.9304 37.054 99.3724 37.18 98.7484 37.18ZM99.1804 35.002C99.8404 35.002 100.374 34.786 100.782 34.354C101.19 33.91 101.394 33.34 101.394 32.644C101.394 32.188 101.298 31.786 101.106 31.438C100.926 31.078 100.668 30.802 100.332 30.61C100.008 30.406 99.6244 30.304 99.1804 30.304C98.7484 30.304 98.3644 30.406 98.0284 30.61C97.7044 30.802 97.4464 31.078 97.2544 31.438C97.0744 31.786 96.9844 32.188 96.9844 32.644C96.9844 33.112 97.0744 33.526 97.2544 33.886C97.4464 34.234 97.7044 34.51 98.0284 34.714C98.3644 34.906 98.7484 35.002 99.1804 35.002ZM101.268 37V34.66L101.646 32.536L101.268 30.448V28.306H103.608V37H101.268ZM108.43 37.072L104.794 28.306H107.35L109.762 35.002H108.898L111.4 28.306H113.974L110.104 37.054L108.43 37.072ZM106.018 40.636L108.664 35.038L110.104 37.054L108.52 40.636H106.018ZM114.958 37V28.306H117.316V37H114.958ZM120.628 37V31.87C120.628 31.366 120.466 30.976 120.142 30.7C119.83 30.412 119.44 30.268 118.972 30.268C118.66 30.268 118.378 30.334 118.126 30.466C117.874 30.586 117.676 30.766 117.532 31.006C117.388 31.246 117.316 31.534 117.316 31.87L116.398 31.42C116.398 30.748 116.542 30.166 116.83 29.674C117.13 29.182 117.532 28.804 118.036 28.54C118.54 28.264 119.11 28.126 119.746 28.126C120.346 28.126 120.892 28.264 121.384 28.54C121.876 28.804 122.266 29.182 122.554 29.674C122.842 30.154 122.986 30.736 122.986 31.42V37H120.628ZM126.298 37V31.87C126.298 31.366 126.136 30.976 125.812 30.7C125.5 30.412 125.11 30.268 124.642 30.268C124.342 30.268 124.06 30.334 123.796 30.466C123.544 30.586 123.346 30.766 123.202 31.006C123.058 31.246 122.986 31.534 122.986 31.87L121.636 31.546C121.684 30.85 121.87 30.25 122.194 29.746C122.518 29.23 122.944 28.834 123.472 28.558C124 28.27 124.588 28.126 125.236 28.126C125.884 28.126 126.466 28.264 126.982 28.54C127.498 28.804 127.906 29.188 128.206 29.692C128.506 30.196 128.656 30.796 128.656 31.492V37H126.298ZM134.725 37.18C133.813 37.18 133.003 36.988 132.295 36.604C131.587 36.208 131.023 35.668 130.603 34.984C130.195 34.3 129.991 33.52 129.991 32.644C129.991 31.78 130.189 31.012 130.585 30.34C130.993 29.656 131.545 29.116 132.241 28.72C132.937 28.312 133.711 28.108 134.563 28.108C135.403 28.108 136.141 28.3 136.777 28.684C137.425 29.056 137.929 29.572 138.289 30.232C138.661 30.88 138.847 31.618 138.847 32.446C138.847 32.602 138.835 32.764 138.811 32.932C138.799 33.088 138.769 33.268 138.721 33.472L131.413 33.49V31.726L137.623 31.708L136.669 32.446C136.645 31.93 136.549 31.498 136.381 31.15C136.225 30.802 135.991 30.538 135.679 30.358C135.379 30.166 135.007 30.07 134.563 30.07C134.095 30.07 133.687 30.178 133.339 30.394C132.991 30.598 132.721 30.892 132.529 31.276C132.349 31.648 132.259 32.092 132.259 32.608C132.259 33.136 132.355 33.598 132.547 33.994C132.751 34.378 133.039 34.678 133.411 34.894C133.783 35.098 134.215 35.2 134.707 35.2C135.151 35.2 135.553 35.128 135.913 34.984C136.273 34.828 136.585 34.6 136.849 34.3L138.235 35.686C137.815 36.178 137.299 36.55 136.687 36.802C136.087 37.054 135.433 37.18 134.725 37.18ZM146.156 37V32.014C146.156 31.498 145.994 31.078 145.67 30.754C145.346 30.43 144.926 30.268 144.41 30.268C144.074 30.268 143.774 30.34 143.51 30.484C143.246 30.628 143.036 30.832 142.88 31.096C142.736 31.36 142.664 31.666 142.664 32.014L141.746 31.546C141.746 30.862 141.89 30.268 142.178 29.764C142.478 29.248 142.886 28.846 143.402 28.558C143.93 28.27 144.524 28.126 145.184 28.126C145.82 28.126 146.39 28.288 146.894 28.612C147.398 28.924 147.794 29.338 148.082 29.854C148.37 30.358 148.514 30.904 148.514 31.492V37H146.156ZM140.306 37V28.306H142.664V37H140.306ZM151.586 37V24.688H153.944V37H151.586ZM149.552 30.376V28.306H155.978V30.376H149.552ZM160.819 37V28.306H163.177V37H160.819ZM166.489 37V31.87C166.489 31.366 166.327 30.976 166.003 30.7C165.691 30.412 165.301 30.268 164.833 30.268C164.521 30.268 164.239 30.334 163.987 30.466C163.735 30.586 163.537 30.766 163.393 31.006C163.249 31.246 163.177 31.534 163.177 31.87L162.259 31.42C162.259 30.748 162.403 30.166 162.691 29.674C162.991 29.182 163.393 28.804 163.897 28.54C164.401 28.264 164.971 28.126 165.607 28.126C166.207 28.126 166.753 28.264 167.245 28.54C167.737 28.804 168.127 29.182 168.415 29.674C168.703 30.154 168.847 30.736 168.847 31.42V37H166.489ZM172.159 37V31.87C172.159 31.366 171.997 30.976 171.673 30.7C171.361 30.412 170.971 30.268 170.503 30.268C170.203 30.268 169.921 30.334 169.657 30.466C169.405 30.586 169.207 30.766 169.063 31.006C168.919 31.246 168.847 31.534 168.847 31.87L167.497 31.546C167.545 30.85 167.731 30.25 168.055 29.746C168.379 29.23 168.805 28.834 169.333 28.558C169.861 28.27 170.449 28.126 171.097 28.126C171.745 28.126 172.327 28.264 172.843 28.54C173.359 28.804 173.767 29.188 174.067 29.692C174.367 30.196 174.517 30.796 174.517 31.492V37H172.159ZM180.587 37.18C179.675 37.18 178.865 36.988 178.157 36.604C177.449 36.208 176.885 35.668 176.465 34.984C176.057 34.3 175.853 33.52 175.853 32.644C175.853 31.78 176.051 31.012 176.447 30.34C176.855 29.656 177.407 29.116 178.103 28.72C178.799 28.312 179.573 28.108 180.425 28.108C181.265 28.108 182.003 28.3 182.639 28.684C183.287 29.056 183.791 29.572 184.151 30.232C184.523 30.88 184.709 31.618 184.709 32.446C184.709 32.602 184.697 32.764 184.673 32.932C184.661 33.088 184.631 33.268 184.583 33.472L177.275 33.49V31.726L183.485 31.708L182.531 32.446C182.507 31.93 182.411 31.498 182.243 31.15C182.087 30.802 181.853 30.538 181.541 30.358C181.241 30.166 180.869 30.07 180.425 30.07C179.957 30.07 179.549 30.178 179.201 30.394C178.853 30.598 178.583 30.892 178.391 31.276C178.211 31.648 178.121 32.092 178.121 32.608C178.121 33.136 178.217 33.598 178.409 33.994C178.613 34.378 178.901 34.678 179.273 34.894C179.645 35.098 180.077 35.2 180.569 35.2C181.013 35.2 181.415 35.128 181.775 34.984C182.135 34.828 182.447 34.6 182.711 34.3L184.097 35.686C183.677 36.178 183.161 36.55 182.549 36.802C181.949 37.054 181.295 37.18 180.587 37.18ZM187.234 37V24.688H189.592V37H187.234ZM185.2 30.376V28.306H191.626V30.376H185.2ZM198.802 37V32.014C198.802 31.498 198.64 31.078 198.316 30.754C197.992 30.43 197.572 30.268 197.056 30.268C196.72 30.268 196.42 30.34 196.156 30.484C195.892 30.628 195.682 30.832 195.526 31.096C195.382 31.36 195.31 31.666 195.31 32.014L194.392 31.546C194.392 30.862 194.536 30.268 194.824 29.764C195.112 29.248 195.508 28.846 196.012 28.558C196.528 28.27 197.116 28.126 197.776 28.126C198.436 28.126 199.018 28.27 199.522 28.558C200.038 28.846 200.44 29.242 200.728 29.746C201.016 30.25 201.16 30.832 201.16 31.492V37H198.802ZM192.952 37V23.986H195.31V37H192.952ZM207.146 37.18C206.27 37.18 205.478 36.982 204.77 36.586C204.074 36.178 203.516 35.632 203.096 34.948C202.688 34.252 202.484 33.478 202.484 32.626C202.484 31.774 202.688 31.012 203.096 30.34C203.504 29.656 204.062 29.116 204.77 28.72C205.478 28.312 206.264 28.108 207.128 28.108C208.016 28.108 208.808 28.312 209.504 28.72C210.212 29.116 210.77 29.656 211.178 30.34C211.586 31.012 211.79 31.774 211.79 32.626C211.79 33.478 211.586 34.252 211.178 34.948C210.77 35.632 210.212 36.178 209.504 36.586C208.808 36.982 208.022 37.18 207.146 37.18ZM207.128 34.984C207.572 34.984 207.962 34.888 208.298 34.696C208.646 34.492 208.91 34.216 209.09 33.868C209.282 33.508 209.378 33.1 209.378 32.644C209.378 32.188 209.282 31.786 209.09 31.438C208.898 31.09 208.634 30.82 208.298 30.628C207.962 30.424 207.572 30.322 207.128 30.322C206.696 30.322 206.312 30.424 205.976 30.628C205.64 30.82 205.376 31.09 205.184 31.438C204.992 31.786 204.896 32.188 204.896 32.644C204.896 33.1 204.992 33.508 205.184 33.868C205.376 34.216 205.64 34.492 205.976 34.696C206.312 34.888 206.696 34.984 207.128 34.984ZM216.98 37.18C216.176 37.18 215.456 36.982 214.82 36.586C214.184 36.19 213.68 35.65 213.308 34.966C212.948 34.282 212.768 33.514 212.768 32.662C212.768 31.798 212.948 31.024 213.308 30.34C213.68 29.656 214.178 29.116 214.802 28.72C215.438 28.324 216.164 28.126 216.98 28.126C217.604 28.126 218.162 28.252 218.654 28.504C219.158 28.756 219.56 29.11 219.86 29.566C220.172 30.01 220.34 30.514 220.364 31.078V34.174C220.34 34.738 220.178 35.248 219.878 35.704C219.578 36.16 219.176 36.52 218.672 36.784C218.168 37.048 217.604 37.18 216.98 37.18ZM217.376 35.002C217.82 35.002 218.204 34.906 218.528 34.714C218.864 34.51 219.122 34.234 219.302 33.886C219.494 33.526 219.59 33.112 219.59 32.644C219.59 32.188 219.494 31.786 219.302 31.438C219.122 31.078 218.864 30.802 218.528 30.61C218.204 30.406 217.826 30.304 217.394 30.304C216.95 30.304 216.56 30.406 216.224 30.61C215.9 30.814 215.642 31.09 215.45 31.438C215.27 31.786 215.18 32.188 215.18 32.644C215.18 33.112 215.27 33.526 215.45 33.886C215.642 34.234 215.906 34.51 216.242 34.714C216.578 34.906 216.956 35.002 217.376 35.002ZM221.804 37H219.464V34.66L219.842 32.536L219.446 30.448V23.986H221.804V37Z" fill="white"/>
<rect x="531.585" y="22.2207" width="2" height="20" transform="rotate(45 531.585 22.2207)" fill="white"/>
<rect x="533" y="36.3633" width="2" height="20" transform="rotate(135 533 36.3633)" fill="white"/>
<rect width="350" height="294" transform="translate(0 60)" fill="#F7F9FB"/>
<rect width="350" height="294" transform="translate(0 60)" fill="white"/>
<g filter="url(#filter0_d_381_274)">
<rect x="30" y="92" width="290" height="95" rx="10" fill="white" shape-rendering="crispEdges"/>
<circle cx="60" cy="122" r="6.5" fill="#84EF84"/>
<rect x="46" y="108" width="28" height="28" rx="14" stroke="#CED8DF" stroke-width="2"/>
<path d="M93.76 124.36V121.92H96.8C97.1867 121.92 97.54 121.84 97.86 121.68C98.18 121.52 98.4333 121.287 98.62 120.98C98.8067 120.673 98.9 120.3 98.9 119.86C98.9 119.433 98.8067 119.067 98.62 118.76C98.4333 118.453 98.18 118.22 97.86 118.06C97.54 117.9 97.1867 117.82 96.8 117.82H93.76V115.38H97.26C98.1533 115.38 98.96 115.56 99.68 115.92C100.4 116.28 100.967 116.8 101.38 117.48C101.807 118.147 102.02 118.94 102.02 119.86C102.02 120.78 101.807 121.58 101.38 122.26C100.967 122.927 100.4 123.447 99.68 123.82C98.96 124.18 98.1533 124.36 97.26 124.36H93.76ZM91.36 129.5V115.38H94.5V129.5H91.36ZM107.288 129.7C106.395 129.7 105.595 129.48 104.888 129.04C104.195 128.6 103.642 128 103.228 127.24C102.828 126.48 102.628 125.613 102.628 124.64C102.628 123.667 102.828 122.8 103.228 122.04C103.642 121.28 104.195 120.68 104.888 120.24C105.595 119.8 106.395 119.58 107.288 119.58C107.942 119.58 108.528 119.707 109.048 119.96C109.582 120.213 110.015 120.567 110.348 121.02C110.682 121.46 110.868 121.967 110.908 122.54V126.74C110.868 127.313 110.682 127.827 110.348 128.28C110.028 128.72 109.602 129.067 109.068 129.32C108.535 129.573 107.942 129.7 107.288 129.7ZM107.908 126.94C108.562 126.94 109.088 126.727 109.488 126.3C109.888 125.86 110.088 125.307 110.088 124.64C110.088 124.187 109.995 123.787 109.808 123.44C109.635 123.093 109.382 122.827 109.048 122.64C108.728 122.44 108.355 122.34 107.928 122.34C107.502 122.34 107.122 122.44 106.788 122.64C106.468 122.827 106.208 123.093 106.008 123.44C105.822 123.787 105.728 124.187 105.728 124.64C105.728 125.08 105.822 125.473 106.008 125.82C106.195 126.167 106.455 126.44 106.788 126.64C107.122 126.84 107.495 126.94 107.908 126.94ZM109.968 129.5V126.88L110.428 124.52L109.968 122.16V119.78H112.968V129.5H109.968ZM118.123 129.54L114.123 119.78H117.423L119.963 127.52H118.743L121.343 119.78H124.643L120.483 129.54H118.123ZM115.623 133.6L118.543 127.3L120.483 129.54L118.763 133.6H115.623ZM131.995 129.5L128.635 119.78H131.635L133.715 126.84L132.835 126.86L135.135 119.78H137.615L139.935 126.86L139.035 126.84L141.135 119.78H144.135L140.775 129.5H138.275L136.015 122.78H136.775L134.475 129.5H131.995ZM145.162 129.5V119.78H148.222V129.5H145.162ZM146.702 118.44C146.222 118.44 145.822 118.28 145.502 117.96C145.195 117.627 145.042 117.227 145.042 116.76C145.042 116.28 145.195 115.88 145.502 115.56C145.822 115.24 146.222 115.08 146.702 115.08C147.182 115.08 147.575 115.24 147.882 115.56C148.189 115.88 148.342 116.28 148.342 116.76C148.342 117.227 148.189 117.627 147.882 117.96C147.575 118.28 147.182 118.44 146.702 118.44ZM151.757 129.5V115.76H154.817V129.5H151.757ZM149.557 122.38V119.78H157.017V122.38H149.557ZM164.785 129.5V123.96C164.785 123.453 164.625 123.047 164.305 122.74C163.998 122.42 163.605 122.26 163.125 122.26C162.792 122.26 162.498 122.333 162.245 122.48C161.992 122.613 161.792 122.813 161.645 123.08C161.498 123.333 161.425 123.627 161.425 123.96L160.245 123.38C160.245 122.62 160.405 121.953 160.725 121.38C161.045 120.807 161.492 120.367 162.065 120.06C162.638 119.74 163.298 119.58 164.045 119.58C164.805 119.58 165.472 119.74 166.045 120.06C166.618 120.367 167.058 120.8 167.365 121.36C167.685 121.907 167.845 122.547 167.845 123.28V129.5H164.785ZM158.365 129.5V114.98H161.425V129.5H158.365ZM173.899 129.5V115.38H177.039V129.5H173.899ZM182.639 129.5V115.38H185.799V129.5H182.639ZM175.779 123.6V120.88H183.679V123.6H175.779ZM192.475 129.72C191.315 129.72 190.315 129.533 189.475 129.16C188.648 128.773 187.888 128.193 187.195 127.42L189.235 125.4C189.688 125.92 190.188 126.327 190.735 126.62C191.295 126.9 191.942 127.04 192.675 127.04C193.342 127.04 193.855 126.92 194.215 126.68C194.588 126.44 194.775 126.107 194.775 125.68C194.775 125.293 194.655 124.98 194.415 124.74C194.175 124.5 193.855 124.293 193.455 124.12C193.068 123.947 192.635 123.78 192.155 123.62C191.688 123.46 191.222 123.28 190.755 123.08C190.288 122.867 189.855 122.607 189.455 122.3C189.068 121.98 188.755 121.587 188.515 121.12C188.275 120.64 188.155 120.04 188.155 119.32C188.155 118.453 188.362 117.707 188.775 117.08C189.202 116.453 189.788 115.98 190.535 115.66C191.282 115.327 192.142 115.16 193.115 115.16C194.102 115.16 195.002 115.333 195.815 115.68C196.642 116.027 197.322 116.5 197.855 117.1L195.815 119.12C195.388 118.68 194.955 118.353 194.515 118.14C194.088 117.927 193.602 117.82 193.055 117.82C192.508 117.82 192.075 117.927 191.755 118.14C191.435 118.34 191.275 118.633 191.275 119.02C191.275 119.38 191.395 119.673 191.635 119.9C191.875 120.113 192.188 120.3 192.575 120.46C192.975 120.62 193.408 120.78 193.875 120.94C194.355 121.1 194.828 121.287 195.295 121.5C195.762 121.713 196.188 121.987 196.575 122.32C196.975 122.64 197.295 123.053 197.535 123.56C197.775 124.053 197.895 124.667 197.895 125.4C197.895 126.747 197.415 127.807 196.455 128.58C195.495 129.34 194.168 129.72 192.475 129.72ZM198.425 129.5L204.025 115.38H206.865L212.405 129.5H209.085L204.845 117.78H205.985L201.685 129.5H198.425ZM201.605 126.94V124.38H209.305V126.94H201.605ZM221.698 129.72C220.698 129.72 219.791 129.5 218.978 129.06C218.178 128.607 217.544 127.993 217.078 127.22C216.611 126.447 216.378 125.58 216.378 124.62C216.378 123.66 216.611 122.8 217.078 122.04C217.544 121.28 218.178 120.68 218.978 120.24C219.778 119.787 220.684 119.56 221.698 119.56C222.711 119.56 223.618 119.78 224.418 120.22C225.218 120.66 225.851 121.267 226.318 122.04C226.784 122.8 227.018 123.66 227.018 124.62C227.018 125.58 226.784 126.447 226.318 127.22C225.851 127.993 225.218 128.607 224.418 129.06C223.618 129.5 222.711 129.72 221.698 129.72ZM221.698 126.94C222.138 126.94 222.524 126.847 222.858 126.66C223.191 126.46 223.444 126.187 223.618 125.84C223.804 125.48 223.898 125.073 223.898 124.62C223.898 124.167 223.804 123.773 223.618 123.44C223.431 123.093 223.171 122.827 222.838 122.64C222.518 122.44 222.138 122.34 221.698 122.34C221.271 122.34 220.891 122.44 220.558 122.64C220.224 122.827 219.964 123.093 219.778 123.44C219.591 123.787 219.498 124.187 219.498 124.64C219.498 125.08 219.591 125.48 219.778 125.84C219.964 126.187 220.224 126.46 220.558 126.66C220.891 126.847 221.271 126.94 221.698 126.94ZM228.541 129.5V119.78H231.601V129.5H228.541ZM231.601 124.16L230.321 123.16C230.574 122.027 231.001 121.147 231.601 120.52C232.201 119.893 233.034 119.58 234.101 119.58C234.568 119.58 234.974 119.653 235.321 119.8C235.681 119.933 235.994 120.147 236.261 120.44L234.441 122.74C234.308 122.593 234.141 122.48 233.941 122.4C233.741 122.32 233.514 122.28 233.261 122.28C232.754 122.28 232.348 122.44 232.041 122.76C231.748 123.067 231.601 123.533 231.601 124.16ZM241.516 129.5V115.38H244.656V129.5H241.516ZM243.916 123.96V121.26H250.976V123.96H243.916ZM243.916 118.08V115.38H251.296V118.08H243.916ZM257.28 129.72C256.12 129.72 255.12 129.533 254.28 129.16C253.453 128.773 252.693 128.193 252 127.42L254.04 125.4C254.493 125.92 254.993 126.327 255.54 126.62C256.1 126.9 256.746 127.04 257.48 127.04C258.146 127.04 258.66 126.92 259.02 126.68C259.393 126.44 259.58 126.107 259.58 125.68C259.58 125.293 259.46 124.98 259.22 124.74C258.98 124.5 258.66 124.293 258.26 124.12C257.873 123.947 257.44 123.78 256.96 123.62C256.493 123.46 256.026 123.28 255.56 123.08C255.093 122.867 254.66 122.607 254.26 122.3C253.873 121.98 253.56 121.587 253.32 121.12C253.08 120.64 252.96 120.04 252.96 119.32C252.96 118.453 253.166 117.707 253.58 117.08C254.006 116.453 254.593 115.98 255.34 115.66C256.086 115.327 256.946 115.16 257.92 115.16C258.906 115.16 259.806 115.333 260.62 115.68C261.446 116.027 262.126 116.5 262.66 117.1L260.62 119.12C260.193 118.68 259.76 118.353 259.32 118.14C258.893 117.927 258.406 117.82 257.86 117.82C257.313 117.82 256.88 117.927 256.56 118.14C256.24 118.34 256.08 118.633 256.08 119.02C256.08 119.38 256.2 119.673 256.44 119.9C256.68 120.113 256.993 120.3 257.38 120.46C257.78 120.62 258.213 120.78 258.68 120.94C259.16 121.1 259.633 121.287 260.1 121.5C260.566 121.713 260.993 121.987 261.38 122.32C261.78 122.64 262.1 123.053 262.34 123.56C262.58 124.053 262.7 124.667 262.7 125.4C262.7 126.747 262.22 127.807 261.26 128.58C260.3 129.34 258.973 129.72 257.28 129.72ZM263.23 129.5L268.83 115.38H271.67L277.21 129.5H273.89L269.65 117.78H270.79L266.49 129.5H263.23ZM266.41 126.94V124.38H274.11V126.94H266.41Z" fill="#222222"/>
<path d="M91.86 156.832V155.632H93.96C94.248 155.632 94.5 155.576 94.716 155.464C94.94 155.344 95.116 155.18 95.244 154.972C95.372 154.756 95.436 154.504 95.436 154.216C95.436 153.928 95.372 153.68 95.244 153.472C95.116 153.256 94.94 153.092 94.716 152.98C94.5 152.86 94.248 152.8 93.96 152.8H91.86V151.6H94.032C94.56 151.6 95.032 151.708 95.448 151.924C95.872 152.14 96.204 152.444 96.444 152.836C96.692 153.228 96.816 153.688 96.816 154.216C96.816 154.744 96.692 155.204 96.444 155.596C96.204 155.988 95.872 156.292 95.448 156.508C95.032 156.724 94.56 156.832 94.032 156.832H91.86ZM90.912 160V151.6H92.292V160H90.912ZM100.333 160.12C99.7729 160.12 99.2649 159.988 98.8089 159.724C98.3529 159.452 97.9889 159.088 97.7169 158.632C97.4529 158.176 97.3209 157.668 97.3209 157.108C97.3209 156.548 97.4529 156.044 97.7169 155.596C97.9889 155.148 98.3529 154.792 98.8089 154.528C99.2649 154.256 99.7729 154.12 100.333 154.12C100.901 154.12 101.413 154.252 101.869 154.516C102.325 154.78 102.685 155.14 102.949 155.596C103.221 156.044 103.357 156.548 103.357 157.108C103.357 157.668 103.221 158.176 102.949 158.632C102.685 159.088 102.325 159.452 101.869 159.724C101.413 159.988 100.901 160.12 100.333 160.12ZM100.333 158.848C100.661 158.848 100.949 158.776 101.197 158.632C101.453 158.48 101.649 158.272 101.785 158.008C101.929 157.744 102.001 157.444 102.001 157.108C102.001 156.772 101.929 156.476 101.785 156.22C101.641 155.964 101.445 155.764 101.197 155.62C100.949 155.468 100.661 155.392 100.333 155.392C100.013 155.392 99.7249 155.468 99.4689 155.62C99.2209 155.764 99.0249 155.964 98.8809 156.22C98.7449 156.476 98.6769 156.772 98.6769 157.108C98.6769 157.444 98.7449 157.744 98.8809 158.008C99.0249 158.272 99.2209 158.48 99.4689 158.632C99.7249 158.776 100.013 158.848 100.333 158.848ZM105.994 160L103.678 154.24H105.046L106.606 158.428L106.198 158.44L107.722 154.24H108.49L110.014 158.44L109.606 158.428L111.166 154.24H112.534L110.218 160H109.45L107.89 156.016H108.322L106.762 160H105.994ZM115.896 160.12C115.32 160.12 114.8 159.992 114.336 159.736C113.88 159.472 113.516 159.112 113.244 158.656C112.98 158.2 112.848 157.688 112.848 157.12C112.848 156.552 112.98 156.044 113.244 155.596C113.508 155.14 113.864 154.78 114.312 154.516C114.768 154.252 115.272 154.12 115.824 154.12C116.36 154.12 116.832 154.244 117.24 154.492C117.656 154.74 117.98 155.08 118.212 155.512C118.452 155.944 118.572 156.436 118.572 156.988C118.572 157.084 118.564 157.184 118.548 157.288C118.54 157.384 118.524 157.492 118.5 157.612H113.772V156.532H117.816L117.324 156.964C117.308 156.612 117.24 156.316 117.12 156.076C117 155.836 116.828 155.652 116.604 155.524C116.388 155.396 116.12 155.332 115.8 155.332C115.464 155.332 115.172 155.404 114.924 155.548C114.676 155.692 114.484 155.896 114.348 156.16C114.212 156.416 114.144 156.724 114.144 157.084C114.144 157.444 114.216 157.76 114.36 158.032C114.504 158.304 114.708 158.516 114.972 158.668C115.236 158.812 115.54 158.884 115.884 158.884C116.18 158.884 116.452 158.832 116.7 158.728C116.956 158.624 117.172 158.472 117.348 158.272L118.188 159.124C117.908 159.452 117.568 159.7 117.168 159.868C116.768 160.036 116.344 160.12 115.896 160.12ZM119.63 160V154.24H120.95V160H119.63ZM120.95 156.796L120.494 156.568C120.494 155.84 120.654 155.252 120.974 154.804C121.302 154.348 121.794 154.12 122.45 154.12C122.738 154.12 122.998 154.172 123.23 154.276C123.462 154.38 123.678 154.548 123.878 154.78L123.014 155.668C122.91 155.556 122.794 155.476 122.666 155.428C122.538 155.38 122.39 155.356 122.222 155.356C121.854 155.356 121.55 155.472 121.31 155.704C121.07 155.936 120.95 156.3 120.95 156.796ZM127.017 160.12C126.441 160.12 125.921 159.992 125.457 159.736C125.001 159.472 124.637 159.112 124.365 158.656C124.101 158.2 123.969 157.688 123.969 157.12C123.969 156.552 124.101 156.044 124.365 155.596C124.629 155.14 124.985 154.78 125.433 154.516C125.889 154.252 126.393 154.12 126.945 154.12C127.481 154.12 127.953 154.244 128.361 154.492C128.777 154.74 129.101 155.08 129.333 155.512C129.573 155.944 129.693 156.436 129.693 156.988C129.693 157.084 129.685 157.184 129.669 157.288C129.661 157.384 129.645 157.492 129.621 157.612H124.893V156.532H128.937L128.445 156.964C128.429 156.612 128.361 156.316 128.241 156.076C128.121 155.836 127.949 155.652 127.725 155.524C127.509 155.396 127.241 155.332 126.921 155.332C126.585 155.332 126.293 155.404 126.045 155.548C125.797 155.692 125.605 155.896 125.469 156.16C125.333 156.416 125.265 156.724 125.265 157.084C125.265 157.444 125.337 157.76 125.481 158.032C125.625 158.304 125.829 158.516 126.093 158.668C126.357 158.812 126.661 158.884 127.005 158.884C127.301 158.884 127.573 158.832 127.821 158.728C128.077 158.624 128.293 158.472 128.469 158.272L129.309 159.124C129.029 159.452 128.689 159.7 128.289 159.868C127.889 160.036 127.465 160.12 127.017 160.12ZM133.164 160.12C132.644 160.12 132.172 159.988 131.748 159.724C131.332 159.46 131 159.104 130.752 158.656C130.512 158.2 130.392 157.692 130.392 157.132C130.392 156.564 130.512 156.056 130.752 155.608C131 155.152 131.332 154.792 131.748 154.528C132.172 154.256 132.644 154.12 133.164 154.12C133.604 154.12 133.992 154.216 134.328 154.408C134.672 154.592 134.944 154.848 135.144 155.176C135.344 155.504 135.444 155.876 135.444 156.292V157.948C135.444 158.364 135.344 158.736 135.144 159.064C134.952 159.392 134.684 159.652 134.34 159.844C133.996 160.028 133.604 160.12 133.164 160.12ZM133.38 158.872C133.708 158.872 133.992 158.8 134.232 158.656C134.48 158.504 134.672 158.296 134.808 158.032C134.944 157.768 135.012 157.464 135.012 157.12C135.012 156.776 134.944 156.472 134.808 156.208C134.672 155.944 134.48 155.74 134.232 155.596C133.992 155.444 133.708 155.368 133.38 155.368C133.06 155.368 132.776 155.444 132.528 155.596C132.288 155.74 132.096 155.944 131.952 156.208C131.816 156.472 131.748 156.776 131.748 157.12C131.748 157.464 131.816 157.768 131.952 158.032C132.096 158.296 132.288 158.504 132.528 158.656C132.776 158.8 133.06 158.872 133.38 158.872ZM136.248 160H134.928V158.452L135.156 157.048L134.928 155.656V151.36H136.248V160ZM145.601 160.12C145.161 160.12 144.769 160.028 144.425 159.844C144.081 159.652 143.809 159.392 143.609 159.064C143.417 158.736 143.321 158.364 143.321 157.948V156.292C143.321 155.876 143.421 155.504 143.621 155.176C143.821 154.848 144.093 154.592 144.437 154.408C144.781 154.216 145.169 154.12 145.601 154.12C146.121 154.12 146.589 154.256 147.005 154.528C147.429 154.792 147.761 155.152 148.001 155.608C148.249 156.056 148.373 156.564 148.373 157.132C148.373 157.692 148.249 158.2 148.001 158.656C147.761 159.104 147.429 159.46 147.005 159.724C146.589 159.988 146.121 160.12 145.601 160.12ZM145.385 158.872C145.705 158.872 145.985 158.8 146.225 158.656C146.473 158.504 146.665 158.296 146.801 158.032C146.945 157.768 147.017 157.464 147.017 157.12C147.017 156.776 146.945 156.472 146.801 156.208C146.665 155.944 146.473 155.74 146.225 155.596C145.985 155.444 145.705 155.368 145.385 155.368C145.065 155.368 144.781 155.444 144.533 155.596C144.285 155.74 144.093 155.944 143.957 156.208C143.821 156.472 143.753 156.776 143.753 157.12C143.753 157.464 143.821 157.768 143.957 158.032C144.093 158.296 144.285 158.504 144.533 158.656C144.781 158.8 145.065 158.872 145.385 158.872ZM142.517 160V151.36H143.837V155.656L143.609 157.048L143.837 158.452V160H142.517ZM151.139 160.06L148.679 154.24H150.131L151.811 158.512H151.391L153.167 154.24H154.631L151.955 160.06H151.139ZM149.423 162.4L151.211 158.716L151.955 160.06L150.887 162.4H149.423Z" fill="#193142"/>
<rect x="161" y="145" width="52.8001" height="22" rx="4.23077" fill="#84EF84"/>
<g clip-path="url(#clip1_381_274)">
<path d="M169.384 153.254C169.384 152.7 169.986 152.275 170.886 152.275C172.211 152.275 173.762 152.828 174.714 153.554L175.716 150.994C174.488 150.015 172.762 149.59 171.037 149.59C168.135 149.59 166.082 151.372 166.108 153.679C166.157 158.219 172.762 156.815 172.789 158.697C172.789 159.274 172.089 159.702 170.988 159.702C169.486 159.702 167.984 159.25 166.834 158.397L165.783 160.855C167.258 161.909 169.184 162.41 171.287 162.41C174.139 162.41 176.14 160.756 176.14 158.473C176.065 154.057 169.411 155.036 169.387 153.254H169.384Z" fill="black"/>
<path d="M181.35 149.84H177.824V162.156H181.35V149.84Z" fill="black"/>
<path d="M205.491 149.84V151.596C204.64 150.318 203.315 149.59 201.587 149.59C198.409 149.59 195.882 152.45 195.882 155.985C195.882 159.521 198.409 162.407 201.587 162.407C203.312 162.407 204.64 161.679 205.491 160.401V162.157H209.017V149.84H205.491ZM202.415 159.073C200.713 159.073 199.339 157.721 199.339 155.988C199.339 154.255 200.716 152.904 202.415 152.904C204.114 152.904 205.491 154.255 205.491 155.988C205.491 157.721 204.14 159.073 202.415 159.073Z" fill="black"/>
<path d="M195.949 149.84H191.618L188.182 154.232H187.366V149.84H183.839V162.156H187.366V157.339H188.167L191.818 162.156H196.347L191.112 155.784L195.949 149.84Z" fill="black"/>
</g>
</g>
<rect x="46" y="223" width="28" height="28" rx="14" stroke="#CED8DF" stroke-width="2"/>
<rect x="95" y="224" width="210" height="26" rx="3" fill="#AAB3B9" fill-opacity="0.3"/>
<rect x="46" y="278" width="28" height="28" rx="14" stroke="#CED8DF" stroke-width="2"/>
<rect x="95" y="279" width="210" height="26" rx="3" fill="#AAB3B9" fill-opacity="0.3"/>
<rect width="213" height="294" transform="translate(350 60)" fill="#F7F9FB"/>
<path d="M386.416 126.176C385.595 126.176 384.827 126.027 384.112 125.728C383.408 125.429 382.789 125.019 382.256 124.496C381.733 123.963 381.323 123.344 381.024 122.64C380.725 121.925 380.576 121.163 380.576 120.352C380.576 119.541 380.72 118.789 381.008 118.096C381.307 117.392 381.717 116.779 382.24 116.256C382.773 115.723 383.392 115.312 384.096 115.024C384.8 114.725 385.563 114.576 386.384 114.576C387.216 114.576 387.984 114.725 388.688 115.024C389.392 115.312 390.005 115.723 390.528 116.256C391.061 116.779 391.477 117.392 391.776 118.096C392.075 118.8 392.224 119.557 392.224 120.368C392.224 121.179 392.075 121.936 391.776 122.64C391.477 123.344 391.061 123.963 390.528 124.496C390.005 125.019 389.392 125.429 388.688 125.728C387.995 126.027 387.237 126.176 386.416 126.176ZM386.384 124.144C387.109 124.144 387.739 123.984 388.272 123.664C388.805 123.344 389.221 122.901 389.52 122.336C389.829 121.771 389.984 121.109 389.984 120.352C389.984 119.797 389.899 119.291 389.728 118.832C389.557 118.373 389.312 117.979 388.992 117.648C388.672 117.307 388.293 117.045 387.856 116.864C387.419 116.683 386.928 116.592 386.384 116.592C385.68 116.592 385.056 116.752 384.512 117.072C383.979 117.381 383.557 117.819 383.248 118.384C382.949 118.949 382.8 119.605 382.8 120.352C382.8 120.917 382.885 121.435 383.056 121.904C383.237 122.373 383.483 122.773 383.792 123.104C384.112 123.435 384.491 123.691 384.928 123.872C385.376 124.053 385.861 124.144 386.384 124.144ZM393.725 126V118.272H395.821V126H393.725ZM395.821 121.728L395.005 121.184C395.101 120.235 395.378 119.488 395.837 118.944C396.296 118.389 396.957 118.112 397.821 118.112C398.194 118.112 398.53 118.176 398.829 118.304C399.128 118.421 399.4 118.619 399.645 118.896L398.333 120.4C398.216 120.272 398.072 120.176 397.901 120.112C397.741 120.048 397.554 120.016 397.341 120.016C396.893 120.016 396.525 120.16 396.237 120.448C395.96 120.725 395.821 121.152 395.821 121.728ZM403.426 126.16C402.712 126.16 402.072 125.984 401.506 125.632C400.941 125.28 400.493 124.8 400.162 124.192C399.842 123.584 399.682 122.901 399.682 122.144C399.682 121.376 399.842 120.688 400.162 120.08C400.493 119.472 400.936 118.992 401.49 118.64C402.056 118.288 402.701 118.112 403.426 118.112C403.981 118.112 404.477 118.224 404.914 118.448C405.362 118.672 405.72 118.987 405.986 119.392C406.264 119.787 406.413 120.235 406.434 120.736V123.488C406.413 123.989 406.269 124.443 406.002 124.848C405.736 125.253 405.378 125.573 404.93 125.808C404.482 126.043 403.981 126.16 403.426 126.16ZM403.778 124.224C404.173 124.224 404.514 124.139 404.802 123.968C405.101 123.787 405.33 123.541 405.49 123.232C405.661 122.912 405.746 122.544 405.746 122.128C405.746 121.723 405.661 121.365 405.49 121.056C405.33 120.736 405.101 120.491 404.802 120.32C404.514 120.139 404.178 120.048 403.794 120.048C403.4 120.048 403.053 120.139 402.754 120.32C402.466 120.501 402.237 120.747 402.066 121.056C401.906 121.365 401.826 121.723 401.826 122.128C401.826 122.544 401.906 122.912 402.066 123.232C402.237 123.541 402.472 123.787 402.77 123.968C403.069 124.139 403.405 124.224 403.778 124.224ZM407.714 126H405.634V123.92L405.97 122.032L405.618 120.176V114.432H407.714V126ZM413.265 126.16C412.454 126.16 411.734 125.989 411.105 125.648C410.475 125.296 409.974 124.816 409.601 124.208C409.238 123.6 409.057 122.907 409.057 122.128C409.057 121.36 409.233 120.677 409.585 120.08C409.947 119.472 410.438 118.992 411.057 118.64C411.675 118.277 412.363 118.096 413.121 118.096C413.867 118.096 414.523 118.267 415.089 118.608C415.665 118.939 416.113 119.397 416.433 119.984C416.763 120.56 416.929 121.216 416.929 121.952C416.929 122.091 416.918 122.235 416.897 122.384C416.886 122.523 416.859 122.683 416.817 122.864L410.321 122.88V121.312L415.841 121.296L414.993 121.952C414.971 121.493 414.886 121.109 414.737 120.8C414.598 120.491 414.39 120.256 414.113 120.096C413.846 119.925 413.515 119.84 413.121 119.84C412.705 119.84 412.342 119.936 412.033 120.128C411.723 120.309 411.483 120.571 411.313 120.912C411.153 121.243 411.073 121.637 411.073 122.096C411.073 122.565 411.158 122.976 411.329 123.328C411.51 123.669 411.766 123.936 412.097 124.128C412.427 124.309 412.811 124.4 413.249 124.4C413.643 124.4 414.001 124.336 414.321 124.208C414.641 124.069 414.918 123.867 415.153 123.6L416.385 124.832C416.011 125.269 415.553 125.6 415.009 125.824C414.475 126.048 413.894 126.16 413.265 126.16ZM418.225 126V118.272H420.321V126H418.225ZM420.321 121.728L419.505 121.184C419.601 120.235 419.878 119.488 420.337 118.944C420.796 118.389 421.457 118.112 422.321 118.112C422.694 118.112 423.03 118.176 423.329 118.304C423.628 118.421 423.9 118.619 424.145 118.896L422.833 120.4C422.716 120.272 422.572 120.176 422.401 120.112C422.241 120.048 422.054 120.016 421.841 120.016C421.393 120.016 421.025 120.16 420.737 120.448C420.46 120.725 420.321 121.152 420.321 121.728ZM431.775 126.16C430.869 126.16 430.09 126.005 429.439 125.696C428.799 125.387 428.218 124.923 427.695 124.304L429.135 122.864C429.466 123.301 429.85 123.643 430.287 123.888C430.725 124.123 431.258 124.24 431.887 124.24C432.453 124.24 432.901 124.128 433.231 123.904C433.573 123.68 433.743 123.371 433.743 122.976C433.743 122.635 433.647 122.357 433.455 122.144C433.263 121.931 433.007 121.749 432.687 121.6C432.378 121.451 432.031 121.317 431.647 121.2C431.274 121.072 430.895 120.928 430.511 120.768C430.138 120.608 429.791 120.411 429.471 120.176C429.162 119.931 428.911 119.621 428.719 119.248C428.527 118.864 428.431 118.384 428.431 117.808C428.431 117.125 428.597 116.544 428.927 116.064C429.258 115.584 429.711 115.216 430.287 114.96C430.863 114.704 431.514 114.576 432.239 114.576C433.007 114.576 433.701 114.72 434.319 115.008C434.938 115.296 435.445 115.669 435.839 116.128L434.399 117.568C434.069 117.205 433.727 116.939 433.375 116.768C433.034 116.597 432.645 116.512 432.207 116.512C431.706 116.512 431.311 116.608 431.023 116.8C430.735 116.992 430.591 117.269 430.591 117.632C430.591 117.941 430.687 118.192 430.879 118.384C431.071 118.576 431.322 118.741 431.631 118.88C431.951 119.019 432.298 119.152 432.671 119.28C433.055 119.408 433.434 119.552 433.807 119.712C434.191 119.872 434.538 120.08 434.847 120.336C435.167 120.592 435.423 120.923 435.615 121.328C435.807 121.723 435.903 122.213 435.903 122.8C435.903 123.845 435.535 124.667 434.799 125.264C434.063 125.861 433.055 126.16 431.775 126.16ZM440.693 126.16C440.01 126.16 439.402 126.016 438.869 125.728C438.346 125.44 437.935 125.04 437.637 124.528C437.338 124.016 437.189 123.424 437.189 122.752V118.272H439.301V122.704C439.301 123.024 439.354 123.301 439.461 123.536C439.567 123.76 439.727 123.931 439.941 124.048C440.154 124.165 440.405 124.224 440.693 124.224C441.13 124.224 441.471 124.091 441.717 123.824C441.962 123.557 442.085 123.184 442.085 122.704V118.272H444.181V122.752C444.181 123.435 444.031 124.032 443.733 124.544C443.445 125.056 443.034 125.456 442.501 125.744C441.978 126.021 441.375 126.16 440.693 126.16ZM445.85 126V118.272H447.946V126H445.85ZM450.89 126V121.44C450.89 120.992 450.746 120.645 450.458 120.4C450.181 120.144 449.834 120.016 449.418 120.016C449.141 120.016 448.89 120.075 448.666 120.192C448.442 120.299 448.266 120.459 448.138 120.672C448.01 120.885 447.946 121.141 447.946 121.44L447.13 121.04C447.13 120.443 447.258 119.925 447.514 119.488C447.781 119.051 448.138 118.715 448.586 118.48C449.034 118.235 449.541 118.112 450.106 118.112C450.639 118.112 451.125 118.235 451.562 118.48C451.999 118.715 452.346 119.051 452.602 119.488C452.858 119.915 452.986 120.432 452.986 121.04V126H450.89ZM455.93 126V121.44C455.93 120.992 455.786 120.645 455.498 120.4C455.221 120.144 454.874 120.016 454.458 120.016C454.191 120.016 453.941 120.075 453.706 120.192C453.482 120.299 453.306 120.459 453.178 120.672C453.05 120.885 452.986 121.141 452.986 121.44L451.786 121.152C451.829 120.533 451.994 120 452.282 119.552C452.57 119.093 452.949 118.741 453.418 118.496C453.887 118.24 454.41 118.112 454.986 118.112C455.562 118.112 456.079 118.235 456.538 118.48C456.997 118.715 457.359 119.056 457.626 119.504C457.893 119.952 458.026 120.485 458.026 121.104V126H455.93ZM459.725 126V118.272H461.821V126H459.725ZM464.765 126V121.44C464.765 120.992 464.621 120.645 464.333 120.4C464.056 120.144 463.709 120.016 463.293 120.016C463.016 120.016 462.765 120.075 462.541 120.192C462.317 120.299 462.141 120.459 462.013 120.672C461.885 120.885 461.821 121.141 461.821 121.44L461.005 121.04C461.005 120.443 461.133 119.925 461.389 119.488C461.656 119.051 462.013 118.715 462.461 118.48C462.909 118.235 463.416 118.112 463.981 118.112C464.514 118.112 465 118.235 465.437 118.48C465.874 118.715 466.221 119.051 466.477 119.488C466.733 119.915 466.861 120.432 466.861 121.04V126H464.765ZM469.805 126V121.44C469.805 120.992 469.661 120.645 469.373 120.4C469.096 120.144 468.749 120.016 468.333 120.016C468.066 120.016 467.816 120.075 467.581 120.192C467.357 120.299 467.181 120.459 467.053 120.672C466.925 120.885 466.861 121.141 466.861 121.44L465.661 121.152C465.704 120.533 465.869 120 466.157 119.552C466.445 119.093 466.824 118.741 467.293 118.496C467.762 118.24 468.285 118.112 468.861 118.112C469.437 118.112 469.954 118.235 470.413 118.48C470.872 118.715 471.234 119.056 471.501 119.504C471.768 119.952 471.901 120.485 471.901 121.104V126H469.805ZM476.832 126.16C476.128 126.16 475.493 125.984 474.928 125.632C474.363 125.28 473.92 124.8 473.6 124.192C473.28 123.584 473.12 122.901 473.12 122.144C473.12 121.376 473.28 120.688 473.6 120.08C473.92 119.472 474.363 118.992 474.928 118.64C475.493 118.288 476.128 118.112 476.832 118.112C477.387 118.112 477.883 118.224 478.32 118.448C478.757 118.672 479.104 118.987 479.36 119.392C479.627 119.787 479.771 120.235 479.792 120.736V123.52C479.771 124.032 479.627 124.485 479.36 124.88C479.104 125.275 478.757 125.589 478.32 125.824C477.883 126.048 477.387 126.16 476.832 126.16ZM477.216 124.224C477.803 124.224 478.277 124.032 478.64 123.648C479.003 123.253 479.184 122.747 479.184 122.128C479.184 121.723 479.099 121.365 478.928 121.056C478.768 120.736 478.539 120.491 478.24 120.32C477.952 120.139 477.611 120.048 477.216 120.048C476.832 120.048 476.491 120.139 476.192 120.32C475.904 120.491 475.675 120.736 475.504 121.056C475.344 121.365 475.264 121.723 475.264 122.128C475.264 122.544 475.344 122.912 475.504 123.232C475.675 123.541 475.904 123.787 476.192 123.968C476.491 124.139 476.832 124.224 477.216 124.224ZM479.072 126V123.92L479.408 122.032L479.072 120.176V118.272H481.152V126H479.072ZM483.006 126V118.272H485.102V126H483.006ZM485.102 121.728L484.286 121.184C484.382 120.235 484.659 119.488 485.118 118.944C485.577 118.389 486.238 118.112 487.102 118.112C487.475 118.112 487.811 118.176 488.11 118.304C488.409 118.421 488.681 118.619 488.926 118.896L487.614 120.4C487.497 120.272 487.353 120.176 487.182 120.112C487.022 120.048 486.835 120.016 486.622 120.016C486.174 120.016 485.806 120.16 485.518 120.448C485.241 120.725 485.102 121.152 485.102 121.728ZM492.016 126.064L488.784 118.272H491.056L493.2 124.224H492.432L494.656 118.272H496.944L493.504 126.048L492.016 126.064ZM489.872 129.232L492.224 124.256L493.504 126.048L492.096 129.232H489.872Z" fill="#AAB3B9"/>
<rect opacity="0.3" x="380" y="156" width="60" height="60" rx="2" fill="#AAB3B9"/>
<rect x="452" y="159.5" width="38" height="18" rx="3" fill="#84EF84"/>
<path d="M465.996 172.235L466.802 170.367C467.683 171.014 468.835 171.358 469.984 171.358C470.829 171.358 471.365 171.035 471.365 170.596C471.346 169.166 466.282 170.234 466.245 166.782C466.227 165.028 467.799 163.674 470.024 163.674C471.346 163.674 472.671 163.997 473.61 164.741L472.844 166.685C472.115 166.132 470.926 165.712 469.911 165.712C469.22 165.712 468.759 166.036 468.759 166.456C468.777 167.81 473.878 167.066 473.936 170.422C473.936 172.157 472.401 173.415 470.215 173.415C468.604 173.415 467.127 173.034 465.996 172.233V172.235Z" fill="black"/>
<path d="M484.765 163.861V173.223H482.062V171.887C481.412 172.861 480.394 173.414 479.071 173.414C476.636 173.414 474.7 171.222 474.7 168.532C474.7 165.842 476.636 163.668 479.071 163.668C480.394 163.668 481.412 164.221 482.062 165.194V163.858H484.765V163.861ZM482.062 168.534C482.062 167.237 481.026 166.227 479.704 166.227C478.381 166.227 477.345 167.258 477.345 168.534C477.345 169.81 478.4 170.841 479.704 170.841C481.008 170.841 482.062 169.849 482.062 168.534Z" fill="black"/>
<path d="M462.186 163.861V167.46H459.76V163.861H457.057V173.226H459.76V169.627H462.186V173.226H464.888V163.861H462.186Z" fill="black"/>
<rect x="495" y="159.5" width="38" height="18" rx="3" fill="#84EF84"/>
<path d="M508.248 163.936V166.102H502.76V167.943H507.268V170.11H502.76V173.296H500.057V163.936H508.248Z" fill="black"/>
<path d="M508.996 172.307L509.802 170.439C510.683 171.086 511.835 171.431 512.984 171.431C513.829 171.431 514.365 171.107 514.365 170.669C514.346 169.239 509.282 170.306 509.245 166.854C509.227 165.1 510.799 163.746 513.024 163.746C514.346 163.746 515.671 164.07 516.61 164.813L515.844 166.757C515.115 166.204 513.926 165.784 512.911 165.784C512.22 165.784 511.759 166.108 511.759 166.528C511.777 167.882 516.878 167.138 516.936 170.494C516.936 172.229 515.401 173.487 513.215 173.487C511.604 173.487 510.127 173.106 508.996 172.305V172.307Z" fill="black"/>
<path d="M527.765 163.935V173.297H525.062V171.962C524.412 172.935 523.394 173.488 522.071 173.488C519.636 173.488 517.7 171.296 517.7 168.606C517.7 165.916 519.636 163.742 522.071 163.742C523.394 163.742 524.412 164.295 525.062 165.269V163.933H527.765V163.935ZM525.062 168.608C525.062 167.311 524.026 166.301 522.704 166.301C521.381 166.301 520.345 167.332 520.345 168.608C520.345 169.884 521.4 170.915 522.704 170.915C524.008 170.915 525.062 169.923 525.062 168.608Z" fill="black"/>
<rect x="452" y="191" width="81" height="25" rx="2" fill="#AAB3B9" fill-opacity="0.3"/>
<rect opacity="0.3" x="380" y="249" width="60" height="60" rx="2" fill="#AAB3B9"/>
<rect x="452" y="252.5" width="38" height="18" rx="3" fill="#84EF84"/>
<path d="M465.996 265.235L466.802 263.367C467.683 264.014 468.835 264.358 469.984 264.358C470.829 264.358 471.365 264.035 471.365 263.596C471.346 262.166 466.282 263.234 466.245 259.782C466.227 258.028 467.799 256.674 470.024 256.674C471.346 256.674 472.671 256.997 473.61 257.741L472.844 259.685C472.115 259.132 470.926 258.712 469.911 258.712C469.22 258.712 468.759 259.036 468.759 259.456C468.777 260.81 473.878 260.066 473.936 263.422C473.936 265.157 472.401 266.415 470.215 266.415C468.604 266.415 467.127 266.034 465.996 265.233V265.235Z" fill="black"/>
<path d="M484.765 256.861V266.223H482.062V264.887C481.412 265.861 480.394 266.414 479.071 266.414C476.636 266.414 474.7 264.222 474.7 261.532C474.7 258.842 476.636 256.668 479.071 256.668C480.394 256.668 481.412 257.221 482.062 258.194V256.858H484.765V256.861ZM482.062 261.534C482.062 260.237 481.026 259.227 479.704 259.227C478.381 259.227 477.345 260.258 477.345 261.534C477.345 262.81 478.4 263.841 479.704 263.841C481.008 263.841 482.062 262.849 482.062 261.534Z" fill="black"/>
<path d="M462.186 256.861V260.46H459.76V256.861H457.057V266.226H459.76V262.627H462.186V266.226H464.888V256.861H462.186Z" fill="black"/>
<rect x="495" y="252.5" width="38" height="18" rx="3" fill="#84EF84"/>
<path d="M508.248 256.936V259.102H502.76V260.943H507.268V263.11H502.76V266.296H500.057V256.936H508.248Z" fill="black"/>
<path d="M508.996 265.307L509.802 263.439C510.683 264.086 511.835 264.431 512.984 264.431C513.829 264.431 514.365 264.107 514.365 263.669C514.346 262.239 509.282 263.306 509.245 259.854C509.227 258.1 510.799 256.746 513.024 256.746C514.346 256.746 515.671 257.07 516.61 257.813L515.844 259.757C515.115 259.204 513.926 258.784 512.911 258.784C512.22 258.784 511.759 259.108 511.759 259.528C511.777 260.882 516.878 260.138 516.936 263.494C516.936 265.229 515.401 266.487 513.215 266.487C511.604 266.487 510.127 266.106 508.996 265.305V265.307Z" fill="black"/>
<path d="M527.765 256.935V266.297H525.062V264.962C524.412 265.935 523.394 266.488 522.071 266.488C519.636 266.488 517.7 264.296 517.7 261.606C517.7 258.916 519.636 256.742 522.071 256.742C523.394 256.742 524.412 257.295 525.062 258.269V256.933H527.765V256.935ZM525.062 261.608C525.062 260.311 524.026 259.301 522.704 259.301C521.381 259.301 520.345 260.332 520.345 261.608C520.345 262.884 521.4 263.915 522.704 263.915C524.008 263.915 525.062 262.923 525.062 261.608Z" fill="black"/>
<rect x="452" y="284" width="81" height="25" rx="2" fill="#AAB3B9" fill-opacity="0.3"/>
</g>
<defs>
<filter id="filter0_d_381_274" x="0" y="72" width="350" height="155" filterUnits="userSpaceOnUse" color-interpolation-filters="sRGB">
<feFlood flood-opacity="0" result="BackgroundImageFix"/>
<feColorMatrix in="SourceAlpha" type="matrix" values="0 0 0 0 0 0 0 0 0 0 0 0 0 0 0 0 0 0 127 0" result="hardAlpha"/>
<feOffset dy="10"/>
<feGaussianBlur stdDeviation="15"/>
<feComposite in2="hardAlpha" operator="out"/>
<feColorMatrix type="matrix" values="0 0 0 0 0.0980392 0 0 0 0 0.192157 0 0 0 0 0.258824 0 0 0 0.25 0"/>
<feBlend mode="normal" in2="BackgroundImageFix" result="effect1_dropShadow_381_274"/>
<feBlend mode="normal" in="SourceGraphic" in2="effect1_dropShadow_381_274" result="shape"/>
</filter>
<clipPath id="clip0_381_274">
<rect width="563" height="354" fill="white"/>
</clipPath>
<clipPath id="clip1_381_274">
<rect width="43.2349" height="12.8174" fill="white" transform="translate(165.783 149.59)"/>
</clipPath>
</defs>
</svg>
