<?xml version="1.0" encoding="utf-8"?>
<!-- Generator: Adobe Illustrator 27.0.0, SVG Export Plug-In . SVG Version: 6.00 Build 0)  -->
<svg version="1.1" id="Layer_1" xmlns="http://www.w3.org/2000/svg" xmlns:xlink="http://www.w3.org/1999/xlink" x="0px" y="0px"
	 viewBox="0 0 1596 860" style="enable-background:new 0 0 1596 860;" xml:space="preserve">
<style type="text/css">
	.st0{fill:none;stroke:#D6DDE1;stroke-width:3;stroke-miterlimit:10;}
</style>
<path class="st0" d="M1596,859c-135.9-2.7-185.4-55.4-172.3-126.7c3.7-20.2-13-84.5-33.6-77.7c-33.8,11.2-45.3-6.4-56.6-4.9
	c-7.8,1-10.1,33.2-8.7,40.6c1.4,7.4,39.5,1.7,54.9,13c15.4,11.3,21.6,31.7,37.6,28.8c16-2.9-32.5-93.6-44.6-93.4
	c-8.2,0.1-13,7-23.6,7.2c-7.8,0.1-10.8-5.8-13.2-3.4c-4.9,5-0.5,38.9-10.1,37.1c-16.7-3.1-79.5-14.3-86.8-36.2
	c-3.1-9.2,37.8-23.5,42.7-21.4c13,5.6,50.1,17.3,49.2,20c-3.7,11.2-60.1-14-52.4-32.1c7.7-18.1,49-74.5,49.8-95.3
	c1.1-30.8-17.8-42.4-17.8-42.4c-6.8,0-18.8,3-42,6.6c-23.7,3.7-20.2,31.8-21.5,46.9c-1.3,15.4-19.1,107.3-8.9,107.3
	c10.2,0,28.1-139.2,10.4-157.1l-50.6-10.5c1.9-8.4,20.9-40.4,24.6-52.2c3.7-11.8,4.9-30,8.1-36.5c3.2-6.5,2-41,23.9-42.2
	c21.9-1.2,59.7-8.1,70.2-9.3c10.6-1.2,10.2-7.3,7.7-13.4c-2.4-6.1,0.8-17,1.2-21.1c0.4-4.1-3.6-11.7-5.4-14.8
	c-0.7-1.3,7.3-2.4,16.8-9.9c4.1-3.3,6.1-13.6,2.4-11.6c-3.6,2,0-10.3-4.4-4.7c-4.5,5.7-21.9,23.5-19.9,16.2
	c2-7.3,11.4-18.7,3.7-13.4c-7.7,5.3-10.6,11-15.8,7.7c-5.3-3.2-18.7-11.8-27.2-7.3c-8.5,4.5-13.9,9.1-17.1,14.1
	c-3.5,5.5-13.8,8.6-20.2,16.8c-6.3,8.2-23.9,21.5-20.6,34.2s11.2,28.7,35,22.3c23.8-6.3,39.2-12.1,50.4-23.6
	c12.9-13.3,12.4-50.5-9.5-56c-18.8-4.7-25.4,8.2-31.4,25.1c-1.9,5.3,1.2,40.6,25.4,38.4c24.2-2.2,31.2,8,31.2,8
	c9.3-1,10.4-23.4,17.1-21.8c6.8,1.6-1-13.5,7.3-15.1c8.3-1.6,3.1-14.5,7.8-20.2c4.7-5.7-0.5-26.4,8.3-26.9c8.8-0.6-6.2-23.9,1-24.4
	c7.3-0.5,6.2,8.3,9.9,9.3c3.6,1,11.4-6.1,13.4-6.6c5-1.2,14.8-1.4,18.4,1.7c3.6,3.1-6.7,19.3-15.3,24.7c-7.5,4.7-28,11.4-28.5,6.7
	s30.6-1,30.1,3.1c-0.5,4.1-8.3,33.7-13.5,37.4c-5.2,3.6,3.6,16.6-3.1,21.3c-6.7,4.7-3.6,23.4-18.7,27c-15.1,3.6-12.5,9.3-24.9,15.6
	c-12.5,6.2-15.1,35.8-27,38.9c-11.9,3.1,3.6,22.8-4.7,30.1c-8.3,7.3,23.9,33.2,7.8,34.8c-16.1,1.6-72.5,5.5-100.2,18.2
	c-147.6,67.9-201-25.9-204.6-30.4c-3.6-4.6-18.1-10.8-17-25c1-14.2-10.1-31.4-6.1-35c4.1-3.5,12.2-12.2,19.3-4.6
	c7.1,7.6,19.8,25.3,15.7,29.4c-4,4.1-3,30.4-10.1,35c-7.1,4.6-4.6-35.5,5.1-40c9.6-4.6,22.3-23.8,29.4-32.9
	c7.1-9.1,45.1-44.1,48.6-48.1c3.5-4.1,56.2-113,35-108.4c-21.3,4.6-72-13.9-77-8.1c-23.5,27.4-5.1,85.4-24.3,88.9
	c-19.2,3.5-17.7,3.3-36.5,7.8c-18.7,4.6-31.4,15.7-44.6,13.2c-13.2-2.5-7.6-21.8-21.3-10.6c-13.7,11.1-37,51.2-28.4,55.2
	c8.6,4,24.8-18.7,33.4-18.7c8.6,0,18.2-23.3,11.6-21.3c-6.6,2-25.3,18.7-1,17.7c24.3-1,58.3-9.6,66.9-7.8c8.6,1.7,42.1-0.8,42.1-0.8
	s-45.6,55.9-49.8,46.8c-4.1-9.1,56.8-47.2,62.4-60.4c5.6-13.2,28.2-105.1,38.3-106.1c10.1-1,28,3.8,33.1-1.8c5.1-5.6,7.6-98.3-4-112
	c-11.7-13.7,22.8-24.3,29.4-23.8c6.6,0.5,10.1-7.6,19.8-7.6c9.6,0,16.7-6.1,25.3-8.1c8.6-2,20.2-3.3,20.7-8.9
	c0.4-4.5-14-14-5.7-16.4c4.4-1.3,11.9,1.5,14-1c2-2.5,10.5-13.5,15.7-14.7c3.9-0.9,17.2,5.1,13.2,9.1c-4.1,4.1-29.4,18.7-33.4,19.8
	c-4,1-14.7-9.6-17.7-9.6c-3,0-34.4,6.1-43.6,8.1c-9.1,2-19.2,6.1-25.8,8.1c-6.6,2-5.2,3-13.3,6.1c-8.1,3-24.6-7.8-29.2-6.3
	c-4.6,1.5-0.8,15.6-2.5,20.4c-6.3,17.8-36.3,4.8-50.5,6.4c-14.2,1.5-20-8.4-29.6,4.3c-9.6,12.7,2.1,41-28.1,42.6
	c-20.8,1.1-42.4-37.5-30.7-43.6c11.7-6.1,23.8,0.5,32.9-19.3c9.1-19.8,2.4-24.2,13-27.8c10.6-3.5,13.2-6,20.8-18.7
	c7.6-12.7,15.4-26.4,30.6-25.9c15.2,0.5,23.3,4.6,25.4,16.8c1.5,8.7,11.3,17.5,11.8,23.1c0.5,5.6,15.1,8.8,13.2,23.3
	c-0.7,5.1-14.4,4.1-17.2,5.9c-17.9,11.2-31.7,3.2-47-18.9c-9.5-13.6-2.2-34.4,10.7-36.1c17-2.3,29.1,22.8,31,29.8
	c4.8,17.9,0.9,21.3-2.7,27.1c-7.5,12-40.8,3.8-49.9,25.5c-4.6,10.8-7.2,26.4-15.8,36c-3.2,3.5-8.6,7-12.6,18.1
	c-4.1,11.1-11.5,11.6-17.6,26.3c-6.1,14.7-2.8,7.7-7.9,18.4c-5.1,10.7-8.1,8.2-8.1,14.3c0,6.1-7.1,3.5-5.1,9.1
	c2,5.6,8.1,22.5,9.6,14.6c1.5-8-6.2-15.2-13.3-14.6c-7.1,0.5-13.5,4.1-20.1,9.5c-6.6,5.3-13.2,7.3-11.1,13.4c2,6.1,6.6,9.6,11.6,8.6
	c5.1-1,5.1-8.1,7.6-9.6c2.5-1.5,2-5.1,10.6-3.5c8.6,1.5,17.7-1.5,23.3-8.9c5.6-7.3,11.6-19.4,16.7-19.3c5.1,0.1,9.4-14.4,13.4-16.4
	c4-2,5.3-19.8,13.4-21.8c8.1-2,10.6-10.6,10.6-10.6s3.5-16.2,10.1-15.2c6.6,1,1,11.6,11.1,15.2s4.1,6.1,6.6,11.1
	c2.5,5.1-5.1,8.6-4.1,13.2c1,4.6-3,8.4-1.5,11c1.5,2.6-3.3,9.6-6.1,11.7c-23.2,18.3-10.6,66.9-73,78.5
	c-62.3,11.6-105.9,6.1-124.1,62.8c-23.3,72.6-74.1,40.7-91.3,7.1c-18.1-35.4-75.8-27.8-88.6-21.5c-23.2,11.4,63.4,135.8,13.4,164.8
	c-17.3,10.1-36.5-13-39.8-20.8c-3.2-7.8-21.9-87.1-11.6-88.5c6-0.8,33.4,101.4-0.4,110.4c-33.8,9-75-47.4-83.3-54.7
	c-10.3-9.1-19.3-20.9-24.1-17.6c-4.3,3-25.8,29.6-16.1,31.6c9.7,1.9,31.1-1.9,32.3-10.3c2-14.4-34.2-32.9-45.2-36.8
	c-11-3.9-28.4,0.2-31-7.3c-2.6-7.6,24.6-19.6,37.2-22.8c11.4-2.8,20.7-8.8,24.6-4.9c3.9,3.9,2.8,14.3,10.6,22.7
	c7.8,8.4,30.1,22.1,47.6,37.8c5.3,4.8-24.1-34.2-19.7-70.7c5.9-49.1,53.5-77.8,32.9-75.9c-12.3,1.2-23.7,35.5-9.8,44.8
	c20.2,13.5,67.5,10.9,74,9.3c11-2.6,34.2-11.2,25.1-37.7c-9-26.5-21.9-87.3-30.9-99c-8.8-11.5-15.3,0.2-16.6-25
	c-1.3-25.2-23.2-122-27.8-123.3c-4.5-1.3-32.4-0.8-30.1,4.9c1.2,3,33.6-2.4,26.1-12.4c-8.5-11.2-14.7-30.7-30.2-26.8
	c-15.5,3.9,1.9,19.4,5.2,23.9c3.2,4.5,16.8,73.4,16.9,80.8c0.1,6.7-2.6,9.6,0.6,14.8c3.2,5.2,9.5,23.2,1.3,33.9
	c-8.3,10.7-28.6,8.4-46.5-8.1c-10.1-9.3-9.5-33.2,2.7-40.9c10-6.3,24.4-5.6,33.4,4.8c9,10.3-0.3-7.9-3.6-15.7
	c-3.2-7.8-12.7-8-18.7-5.4c-10.6,4.5-14.6-1.1-23.6,6.6c-9,7.8-7.5,9.5-12.1,17.2c-4.5,7.7-9.8,12.7-5.3,23.1
	c4.5,10.3-0.6,16.8,7.1,25.8c7.8,9-24.3,42.3,10.9,45.4c20.8,1.8,23.9-33.1,29.7-36.3c5.8-3.2,25.2,2.3,25.8,7.3
	c0.6,5,1.3,12.7,0.6,17.9c-0.6,5.2-6.5,21.2-2,21.8c4.5,0.6,20.5-18.1,26.9-20.6c6.5-2.6,6.9-17.6,20.7-11.9c6,2.5,14.2,15,4.1,20.3
	c-12.1,6.3-23.2-7-18.7-7.7c4.5-0.6,20,6.5,16.1,16.1s-10.9,13.5-25.7,28.1c-14.5,14.3-34.9,27.4-42.6,19.6
	c-7.7-7.8,8.9-45.2,16.6-38.7c4.2,3.6-18.9,38.4-25.1,33.3c-9.8-8-10.4-49.4-15.6-57.8c-5.2-8.4-80.4,47.1-92.5,90.4
	c-12.1,43.3-34.2,124.8-55.8,161.8c-19.1,32.6-84.2,38.2-91.8,36.5c-7.6-1.7-107.3-3.6-109-9.5c-1.7-5.9-3.1-13.3,0.4-14.5
	c3.3-1.1,107.6-3.7,111.3,3.8c3.8,7.8,15.9,126.8,30.3,148.8c14.4,22,14.4,34.7,21.2,45.7c6.8,11,7.6,29.6,13.5,37.2
	c5.9,7.6,10.2,21.2,11.8,25.4c1.7,4.2,5.1,16.9,0.8,18.6c-4.2,1.7-22.7,14.1-29.5,10.7c-6.8-3.4,15.1-14.1,17.6-14.1
	s14.4-2.7,16.9,10.9c2.5,13.6,31.5,34.4,16.4,41.8c-19.3,9.5-40.9-18.9-41.7-30.8c-0.8-11.8-15.2-31.3-19.5-38.1
	c-4.2-6.8-10.1-25.4-16-33c-6-7.6-9.4-30.5-12.7-38.1c-3.4-7.6-8.5-16.1-13.5-25.4c-5.1-9.3-12.7-12.7-15.2-25.4
	c-2.5-12.7,0-19.5-5.9-27.9c-5.9-8.5-13.5-27.9-16.9-33s-7.6-11-11-14.4c-3.4-3.4-6.8-10.2-11,0.8c-4.2,11-1.7,4.2-11.8,24.5
	c-10.2,20.3-16.1,18.6-16.9,28.8c-0.8,10.2-9.1,11.8-11.7,29.6c-2.6,17.8-2.6,22.8-6.9,38.1c-4.2,15.2-10.2,20.3-12.7,33.8
	c-2.5,13.5-7.6,29.6-8.5,33.8c-0.8,4.2-5.1,11.8-6.8,14.4c-1.7,2.5-18.4,5-26,6.4c-9.9,1.8-18.4-5.9-12.5-11.6
	c8.3-8,37.4,2.6,35.7,7.6c-1.7,5.1-1,6.7-2.7,14.3c-1.7,7.6-7.1,15.2-15.4,25.2c-6.8,8.3-19,25-30.6,21.4
	c-4.9-1.5-2.3-12.6,0.8-21.2c12.3-33.5,15.8-51.8,20.9-59.4c5.1-7.6,2.8-27.7,7-37.9c4.2-10.2,10.1-8.4,10.9-18.6
	c0.8-10.2-1.1-19.6,4.8-22.8c4.9-2.7-3-19.5,9.3-37.8c7.7-11.5,2.2-18.9,5.6-34.2s12.6-28.8,16.8-42.3c4.2-13.5,0.8-14.2,5.1-27.9
	c1.9-6.2,7.6-32.1,6.7-33.4c-1.5-2.6-10.3-0.6-11.8-3.3c-0.9-1.6,16.1-91,11.7-99.3c-4.4-8.3,14.2-43.7,15-45.1
	c0.9-1.5,23.3,0.6,29.8,5.9c6.5,5.3,36.6,1.5,42.5-0.9c5.9-2.4,12.7-9.4,11.8-3.5c-0.9,5.9-1.8,36.7-0.6,40.9
	c3.4,12.2,13,7.8,12.1,13.7c-0.9,5.9,2.9,97-3.6,96.7c-6.5-0.3-1.2-108.5,8.3-114.4c9.4-5.9,56.4-35.4,60.2-41.9
	c3.8-6.5,28.9-16.8,32.2-28c3.2-11.2,20.4-25.1,20.9-26.5c0.6-1.5-5.9-18.9-10.6-17.4c-4.7,1.5,9.1,20.1,13.3,15
	c4.1-5,20.6-27.1,27.1-32.2c6.5-5,2.1-8-1.5-6.2c-3.5,1.8-8,7.7-11.2,5c-3.2-2.7,2.1-35.4-1.2-35.4s-18.9,47.2-20.4,49.6
	c-1.5,2.4-25.4,16.8-27.4,20.9c-2.1,4.1-10,5.3-13,10.3c-2.9,5-15.9,9.1-19.5,12.7c-3.5,3.5-22.4,17.7-25.1,20.6
	c-2.7,2.9-12.4,5.9-18,9.7c-5.6,3.8-20.6,10.2-23.8,12c-3.2,1.8-8.6-8.2-21-4.6c-4.9,1.4-21.9-1.3-26.4-10.7
	c-1.8-3.8-4.7-27.2,1.3-37.8c7.5-13.3,14.9-14,29.4-12.2c5.4,0.6,12.8,8.5,13.4,21.1c0.6,13.1-3,27.4-5.7,33.6
	c-2.7,6.2,6-2.1,11.9-1.8c5.9,0.3,9.4-1.8,6.2-8.3c-3.2-6.5-2.5-7.8-2.5-14.6c0-6.8,0.7-13.5-1.3-21.5c-2.1-8-2.9-13.2-9.7-15.6
	c-6.9-2.4-7.7-6.6-10.1-7.7c-2.4-1.2-8-7.8-14.8-5.2c-6.8,2.7-8.3-2.7-17.1,2.6c-8.8,5.3-10.9,3.9-14.7,9.2
	c-3.8,5.3-10.5,5.4-10.7,12.8c-0.3,7.4-6.6,10.1-6.2,20.5c0.5,12.2-3.3,6.8-3.4,17.4c0,2.4,0.5,14.8-4.8,12.5
	c-5.3-2.4-34.5-19.8-38.6-18c-4.1,1.8-31-15.3-33.6-19.2c-2.7-3.8-5.3-10.3-9.7-13.9c-4.4-3.5-6.8-5.9-10.6-10.6
	c-3.8-4.7-19.2-18.9-24.2-18.3c-5,0.6-15.6,9.4-13.9,11.8c1.8,2.4,17.7-10.6,18.3-13.3c0.6-2.7-9.7-7.4-10-17.1
	c-0.3-9.7-0.6-35.7-3.2-36.6c-2.7-0.9-2.2,30.4-5.2,30.7c-3,0.3-8.9-15-14-12.7c-5,2.4,7.1,19.8,9.4,28c2.4,8.3,10,30.4,10.6,31.3
	c0.6,0.9,20.9,29.2,25.7,33.9c4.7,4.7,11.2,15,16.8,17.4c5.6,2.4,27.4,18.6,36.3,25.1c6.5,4.7,16.8,11,21.6,12.9
	c12.8,5.1,21.6-22.7,14.9-25.4c-7.6-3.1-0.5,91.3-34.4,101.9c-33.9,10.6-40.8,235.5-185.9,177.7"/>
</svg>
