<svg width="140" height="46" viewBox="0 0 140 46" fill="none" xmlns="http://www.w3.org/2000/svg">
<rect width="140" height="45.618" fill="white"/>
<path d="M60.5424 18.857C60.5424 17.9058 61.581 17.1748 63.1362 17.1748C65.424 17.1748 68.1031 18.1261 69.7487 19.3727L71.4795 14.9719C69.3573 13.2897 66.3772 12.5588 63.3971 12.5588C58.3851 12.5588 54.8381 15.6228 54.8832 19.588C54.9685 27.3932 66.3772 24.9801 66.4224 28.2143C66.4224 29.2056 65.2133 29.9416 63.3118 29.9416C60.718 29.9416 58.1242 29.1656 56.1375 27.6986L54.3213 31.9242C56.87 33.7366 60.1963 34.5977 63.8286 34.5977C68.7553 34.5977 72.212 31.754 72.212 27.8288C72.0816 20.2388 60.5876 21.9211 60.5474 18.857H60.5424Z" fill="black"/>
<path d="M81.2129 12.9892H75.1223V34.162H81.2129V12.9892Z" fill="black"/>
<path d="M122.909 12.9893V16.0083C121.439 13.8104 119.152 12.5588 116.166 12.5588C110.678 12.5588 106.313 17.4752 106.313 23.5532C106.313 29.6312 110.678 34.5927 116.166 34.5927C119.147 34.5927 121.439 33.341 122.909 31.1432V34.1621H129V12.9893H122.909ZM117.596 28.8602C114.656 28.8602 112.283 26.5371 112.283 23.5582C112.283 20.5793 114.661 18.2562 117.596 18.2562C120.531 18.2562 122.909 20.5793 122.909 23.5582C122.909 26.5371 120.576 28.8602 117.596 28.8602Z" fill="black"/>
<path d="M106.428 12.9892H98.9478L93.0126 20.5392H91.6028V12.9892H85.5122V34.162H91.6028V25.8812H92.9875L99.2939 34.162H107.115L98.0748 23.2077L106.428 12.9892Z" fill="black"/>
<path d="M11 10.8627C11 9.27951 12.2895 7.99611 13.8802 7.99611H39.2717C40.8625 7.99611 42.152 9.27951 42.152 10.8627V36.1334C42.152 37.7166 40.8625 39 39.2717 39H13.8802C12.2895 39 11 37.7166 11 36.1334V10.8627Z" fill="#84EF84"/>
<path fill-rule="evenodd" clip-rule="evenodd" d="M22.8126 25.4037L41.2032 4L45.6962 7.9612L24.4922 32.6391C21.8499 35.7144 16.8562 33.8214 16.8562 29.7443V15.2714H22.8126V25.4037Z" fill="black"/>
</svg>
